<?xml version="1.0" encoding="utf-8"?>
<!-- Generator: Adobe Illustrator 27.9.0, SVG Export Plug-In . SVG Version: 6.00 Build 0)  -->
<svg version="1.1" id="Layer_1" xmlns="http://www.w3.org/2000/svg" xmlns:xlink="http://www.w3.org/1999/xlink" x="0px" y="0px"
	 viewBox="0 0 569.2 261.2" style="enable-background:new 0 0 569.2 261.2;" xml:space="preserve">
<style type="text/css">
	.st0{fill:#708EC2;}
	.st1{fill:#B7635E;}
	.st2{fill:#F8D36F;}
	.st3{fill:none;stroke:#F8D36F;stroke-width:10;stroke-linecap:round;stroke-miterlimit:10;}
	.st4{fill:none;stroke:#FDF1EB;stroke-width:10;stroke-miterlimit:10;}
	.st5{fill:#A7BC81;}
	.st6{fill:none;}
	.st7{fill:#FDF1EB;}
	.st8{fill:#FFD15B;stroke:#000000;stroke-width:1.0442;stroke-miterlimit:10;}
	.st9{fill:none;stroke:#FDF1EB;stroke-width:12;stroke-miterlimit:10;}
	.st10{fill:none;stroke:#FDF1EB;stroke-width:6.743;stroke-miterlimit:10;}
	.st11{opacity:0.5;fill:#FDF1EB;enable-background:new    ;}
	.st12{fill:#FFD15B;stroke:#000000;stroke-miterlimit:10;}
</style>
<g id="_x38_VOQfR_00000114043736212160655390000006978095940147621256_">
	<g>
		<g>
			<path d="M177.2,112.4c2.9-0.2,5.4-0.6,7.9-0.6c6.2-0.1,12.4-0.1,18.7,0c7.7,0.2,15.1,2.1,22.4,4.6c12.9,4.5,23,12.5,29.5,24.7
				c3.7,7,5.5,14.5,6,22.5c0.4,6.6,0.2,13.1-1.1,19.6c-2.5,12-7.9,22.4-17.2,30.5c-8.9,7.7-19.3,12.2-30.7,14.6
				c-9.3,1.9-18.7,2.4-28.1,1.9c-9.9-0.5-19.6-2.3-28.5-7.2c-9.8-5.4-16.5-13.2-18.1-24.5c-1.1-7.8,0.4-15.2,6.3-20.9
				c3.6-3.5,8.2-5.6,13.1-6.1c4-0.5,8.1-0.4,12.2-0.6c1.5-0.1,2.1,0.6,2.1,2.1c0,2.7-0.1,5.3,0,8c0.3,5.4,1.9,10.4,6,14.1
				c1.6,1.4,3.6,2.6,5.6,3.1c5.4,1.4,10.9,1.1,16.1-1.2c5.1-2.3,7.9-6.6,9.4-11.7c2.6-8.7,3-17.6,1.1-26.4
				c-1.9-8.6-6-14.7-17.6-16.5c-9.2-1.4-18.3,0-27.1,2.8c-3.4,1.1-6.3,1.2-9.6-0.3c-3.7-1.7-7.6-3-11.4-4.5
				c-0.8-0.3-1.5-0.7-2.4-1.1c0.3-3.8,0.5-7.5,0.9-11.2c0.4-4.5,0.9-9.1,1.4-13.6c0.5-4.9,0.9-9.7,1.4-14.6
				c0.4-4.3,0.7-8.6,1.1-12.9c0.4-4.6,0.9-9.2,1.3-13.9c0.4-4.2,0.8-8.4,1.1-12.6c0.4-4.1,0.7-8.3,1-12.4c0.1-1.3,0.7-2,2-2
				c0.7,0,1.3,0,2,0c31.7,0,63.4,0,95.2,0c0.5,0,1,0,1.5,0c1.6-0.1,2.2,0.6,2.3,2.2c0.1,3.2,0.4,6.3,0.4,9.4
				c0.2,9,0.3,17.9,0.5,26.9c0.1,5.4,0.4,10.8,0.5,16.2c0.1,2.5-0.2,2.7-2.7,2.7c-7.2,0-14.5,0-21.7,0c-2.3,0-2.5-0.1-3-2.4
				c-0.9-3.6-1.7-7.3-2.6-10.9c-0.8-3.1-1.4-3.6-4.5-3.6c-12.8,0-25.6,0-38.5,0c-2.2,0-2.2,0.2-2.4,2.2c-0.6,6.9-1.3,13.9-1.9,20.8
				C177.2,110.4,177.2,111.3,177.2,112.4z M168.5,122.4c0.3-4.1,0.5-7.9,0.9-11.7c0.4-4.8,0.9-9.6,1.3-14.4
				c0.4-4.7,0.7-9.4,1.1-14.1c0.3-3.2,0.5-3.3,3.7-3.3c15.2,0,30.3,0,45.5,0c6.4,0,9.4,2.3,11.1,8.6c0.5,1.9,0.9,3.9,1.3,5.8
				c0.6,2.5,0.7,2.5,3.2,2.6c2.4,0,4.8,0,7.2,0c2.7,0,2.9-0.1,2.8-2.8c-0.1-5.6-0.3-11.3-0.5-16.9c-0.2-6.6-0.4-13.1-0.5-19.7
				c-0.1-2.9-0.1-2.9-3-2.9c-0.6,0-1.2,0-1.7,0c-26.1,0-52.3,0-78.4,0c-0.8,0-1.7,0-2.5,0c-2,0.1-2.5,0.5-2.7,2.5
				c-0.4,4.4-0.7,8.8-1.1,13.1c-0.4,4.3-0.7,8.6-1.2,12.9c-0.4,4.3-0.9,8.6-1.3,12.9c-0.4,4.5-0.7,9.1-1.1,13.6
				c-0.7,7.8-1.6,15.7-2.4,23.5c-0.1,1.4,0.3,2.3,1.8,2.8c2.4,0.8,4.6,1.9,7,2.7c0.9,0.3,2,0.4,2.9,0.2c5.2-1,10.4-2.4,15.6-3.1
				c6-0.8,12.1-0.9,18.1,0.3c12,2.4,19.6,10.3,22,22.3c1,5.1,1.1,10.2,1,15.4c-0.1,5.8-0.9,11.4-3,16.8c-3.3,8.4-9.1,14.2-18.2,16.2
				c-4.2,1-8.5,1.2-12.9,0.5c-8.6-1.3-14.6-5.9-17.9-13.7c-1.5-3.6-2.1-7.7-2.9-11.5c-0.5-2.2-0.4-2.3-2.7-2.2
				c-3.6,0.2-6.8,1.2-9.8,3.3c-2.3,1.5-4,3.5-4.7,6.2c-2.4,8.1-0.4,15.3,5.1,21.5c4.4,5,10.3,7.8,16.6,9.8
				c7.4,2.3,15.2,2.9,22.9,3.1c4.5,0.1,9.1-0.3,13.6-1c9-1.3,17.8-3.6,25.7-8.3c8.4-4.9,14.9-11.7,18.9-20.6
				c5.1-11.4,6-23.2,3.8-35.4c-2-11.1-7.7-20.1-16.7-26.9c-5.6-4.2-12-6.8-18.7-8.5c-8.9-2.3-17.9-3-27.1-2.6
				c-5.8,0.3-11.6,1-17.3,2.1C171.7,121.7,170.3,122,168.5,122.4z"/>
			<path d="M70.7,170.5c0-1.3,0-2.2,0-3.1c0-16.9,0-33.8,0-50.7c0-3.3,0-3.2-3-4.5c-6.8-2.8-13.7-5.2-19.8-9.4
				c-8.6-6-12.9-14.2-13.2-24.7c-0.1-5.4,0.7-10.6,3.2-15.5c3.9-7.6,10.1-12.5,17.8-15.5c3.9-1.5,8.1-2.3,12.3-3.2
				c2.3-0.5,2.7-0.7,2.7-3.3c0-4.4,0-8.8,0-13.2c0-3.3,1.1-4.5,4-4.5c2.6,0,4,1.6,4,4.6c0.1,4.4,0,8.8,0,13.2c0,2.3,0,2.4,2.3,2.7
				c7.6,1,14.9,2.8,21.6,6.4c4.6,2.5,8.4,6,11.3,10.3c1,1.4,1.4,3,0.2,4.6c-1.1,1.5-2.6,2.4-4.5,2c-1-0.2-2-0.9-2.6-1.6
				c-3.6-4.2-7.9-7.7-12.9-10c-4.2-1.9-8.6-3-13.2-3.6c-1.8-0.2-2.2,0.2-2.2,2.3c0,5.2,0,10.3,0,15.5c0,11.5,0,23,0,34.4
				c0,3,0,2.9,2.7,3.9c6.9,2.7,13.9,5.2,20,9.5c7.9,5.4,12.9,12.7,14.1,22.3c1.8,15-3.5,25.9-17.1,33.7c-5.4,3.1-11.3,4.7-17.6,5.2
				c-1.9,0.1-2.1,0.3-2.1,2.5c0,6.7,0,13.5,0,20.2c0,1.1-0.2,2.3-0.6,3.4c-0.7,1.9-2.4,2.6-4.2,2.2c-1.8-0.4-3.1-1.7-3.1-3.7
				c-0.1-5.5,0-11,0-16.5c0-1.8,0-3.7,0-5.5c-0.1-2.2-0.5-2.4-2.7-2.7c-4.3-0.7-8.7-1.3-12.9-2.5c-7.4-2.3-13.8-6.6-19.7-11.5
				c-1.8-1.5-3.6-3.2-5.3-4.9c-1.5-1.4-1.8-3.5-0.9-5.3c1.4-3.1,4.7-3.5,7.3-0.8c1.9,1.9,3.8,4,5.8,5.8
				C50.4,165.9,59.7,169.5,70.7,170.5z M78.9,116.6c0,18.1,0,35.8,0,53.9c2.1-0.3,4-0.4,5.8-0.8c5.5-1,10.4-3.4,14.7-7
				c6-5,8.3-11.6,7.7-19.3c-0.4-5.1-2.2-9.6-5.6-13.5c-4.7-5.3-10.8-8.2-17-11C82.8,118.1,81,117.4,78.9,116.6z M70.6,51.8
				c-5.6,0.3-10.4,1.8-14.9,4.4C47.4,61,42.6,67.9,43.3,77.8c0.4,5.3,2.1,10.1,6.1,13.8c3.9,3.6,8.4,6.5,13.3,8.7
				c2.5,1.1,5.1,2.1,7.9,3.3C70.6,86.2,70.6,69.2,70.6,51.8z"/>
			<path d="M397.8,136.3c0-15.9,1.4-31.6,5.7-46.9C407,77,412.9,65.8,422.7,57c7.8-7,17-10.9,27.3-12.6c5.5-0.9,11.1-1.3,16.7-1
				c12,0.6,23.2,3.5,32.8,11c8.3,6.4,14.2,14.6,18.5,24.1c4.4,9.9,6.8,20.3,8.4,31c0.6,4.3,1,8.6,1.1,12.9
				c0.3,7.1,0.6,14.1,0.5,21.2c-0.4,15.7-2.5,31.2-7.8,46c-4,11.1-10.2,20.8-19.2,28.4c-6.8,5.8-14.7,9.4-23.5,11
				c-13.6,2.4-27,2-40-3.2c-7.6-3.1-14-7.9-19.3-14.1c-9.6-11.1-14.4-24.4-16.9-38.6c-1.1-6-1.9-12.1-2.5-18.3
				C398,148.6,398,142.5,397.8,136.3z M463,51.1c-4.5,0.5-9.1,0.7-13.6,1.5c-10.1,1.8-18.7,6.5-25.4,14.2
				c-6.7,7.7-10.9,16.8-13.5,26.7c-3.5,13.3-4.4,26.8-4.9,40.5c-0.2,4.9,0.2,9.8,0.4,14.7c0.1,3,0.2,6,0.6,8.9
				c1,6.6,1.9,13.2,3.4,19.6c2.9,13,8.3,24.7,18.4,33.8c4,3.6,8.5,6.4,13.6,8.2c10.5,3.7,21.3,4.3,32.2,2.5
				c8.5-1.4,16.1-4.8,22.5-10.5c8.7-7.8,14-17.7,17.4-28.6c4.5-14.2,5.6-29,6.1-43.8c0.2-6.2-0.5-12.4-0.9-18.6
				c-0.5-9-2-17.9-4.6-26.5c-1.6-5.4-3.7-10.7-6.1-15.8C506,72.1,502,67.3,497.3,63c-4-3.7-8.5-6.6-13.7-8.5
				C477,52.1,470.1,51.1,463,51.1z"/>
			<path d="M397,136c0.3,15.5-1.2,30.1-5,44.5c-2.8,10.7-7.1,20.8-14.2,29.4c-7.9,9.7-17.8,16.4-30.3,18.8
				c-14.4,2.8-28.5,2.2-42.1-3.5c-8.7-3.7-15.6-9.7-21.2-17.3c-5.4-7.3-9-15.3-11.4-24c-2.5-8.7-3.9-17.7-4.8-26.7
				c-1-9.9-1.2-19.8-0.8-29.6c0.6-14.1,2.1-28.2,6.6-41.7c3.6-11,9.2-20.8,17.9-28.7c6.5-5.9,14.1-9.6,22.6-11.7
				c7.3-1.8,14.8-2.4,22.3-2c12,0.7,23.3,3.8,32.9,11.5c8.9,7.2,15,16.4,19.1,26.9c3.7,9.4,5.9,19.2,7.1,29.2
				C396.7,119.7,397.2,128.2,397,136z M332.4,51.2c-3.6,0.2-7.1,0.3-10.7,0.8c-10.2,1.3-19.2,5.3-26.5,12.7
				c-7.5,7.6-12.3,16.9-15,27.2c-4.3,15.8-5.4,32-5.1,48.3c0.2,8.9,0.7,17.7,2.1,26.5c1.8,11.5,4.6,22.7,10.9,32.7
				c4.8,7.6,10.8,13.9,19,17.9c6,2.9,12.5,4.3,19.2,4.9c7.3,0.7,14.4,0.1,21.5-1.6c6.5-1.7,12.5-4.5,17.6-9
				c8.2-7.2,13.6-16.2,17.2-26.5c5-14.3,6.4-29.2,7-44.1c0.2-4.7-0.3-9.5-0.4-14.2c-0.1-8.8-1.2-17.4-3.1-25.9
				c-2.8-12.6-7-24.6-16-34.4c-4.6-5-9.8-8.9-16.1-11.5C347,52.2,339.8,51,332.4,51.2z"/>
			<path d="M441.3,139.2c0.3-10.4,0.2-18.4,0.8-26.4c0.7-11.2,1.4-22.4,5.3-33.1c1.6-4.5,3.8-8.7,8-11.5c6.1-4.1,14.8-2.6,19.3,3.2
				c4,5.3,6,11.5,6.9,18c0.9,6.6,1.5,13.2,2.1,19.8c1.2,12.7,1.3,25.4,0.9,38.1c-0.4,12.8-0.6,25.6-3.4,38.1
				c-1.3,5.8-2.7,11.5-6.3,16.4c-5.6,7.9-18,7.9-23.5-0.1c-3.4-4.9-5-10.5-6.2-16.2c-1.5-7-2.3-14.1-2.6-21.2
				C442.1,155.2,441.6,146,441.3,139.2z M449.5,136.3c-0.1,0-0.2,0-0.2,0c0.2,7.6,0.6,15.3,0.7,22.9c0.1,7.3,0.9,14.6,2.1,21.8
				c1,5.7,2.2,11.3,5.6,16.1c2.7,4,8.1,3.9,10.9-0.1c2.3-3.2,3.3-6.9,4.2-10.6c2.7-10.9,3.4-22.2,3.6-33.3
				c0.2-15.8,0.8-31.6-0.9-47.3c-0.6-5.8-1.2-11.7-2.2-17.5c-0.7-4.1-2.3-7.9-4.5-11.5c-2.5-4.2-9.5-3.8-11.8,0.8
				c-1.3,2.7-2.6,5.6-3.5,8.5c-3,10.9-3.4,22.1-3.9,33.3C449.2,125,449.5,130.7,449.5,136.3z"/>
			<path d="M353.5,136.3c0,2.9,0.1,5.8,0,8.7c-0.4,8.8-0.9,17.6-1.4,26.3c-0.5,7.9-1.8,15.7-4.4,23.2c-1.2,3.5-2.9,6.9-5.7,9.5
				c-5.9,5.7-17,4.7-21.6-2.2c-2.9-4.3-4.7-9.2-5.8-14.2c-1.8-8-2.9-16-3.1-24.2c-0.3-11-0.9-22.1-0.9-33.1c0-9.1,0.6-18.2,1.4-27.3
				c0.6-6.4,1.7-12.8,3-19.2c1.1-5.2,3.2-10.1,7.2-14c6.1-6,16.2-5.2,21.3,1.5c3.4,4.5,5.2,9.6,6.4,15c1.5,7,2.4,14.1,2.6,21.2
				c0.2,4.8,0.7,9.6,0.9,14.4C353.7,126.8,353.5,131.6,353.5,136.3C353.5,136.3,353.5,136.3,353.5,136.3z M345.5,137
				c0.1,0,0.2,0,0.3,0c-0.2-8.1-0.5-16.1-0.7-24.2c-0.1-7.3-0.8-14.6-2.1-21.8c-0.9-4.9-2.4-9.6-4.9-14c-2.8-4.7-9.4-3.6-11.5-0.1
				c-2.1,3.5-3.5,7.2-4.4,11.1c-2.6,10.6-3.2,21.5-3.4,32.4c-0.3,15.4-0.7,30.8,0.9,46.1c0.6,5.6,1.2,11.2,2.1,16.8
				c0.8,4.8,2.2,9.6,4.9,13.8c2.6,4,8.4,4.1,10.9,0.1c1.5-2.4,2.7-5,3.5-7.6c3.4-11.3,3.9-23,4.4-34.7
				C345.7,148.9,345.5,142.9,345.5,137z"/>
		</g>
	</g>
</g>
</svg>
