<?xml version="1.0" encoding="utf-8"?>
<!-- Generator: Adobe Illustrator 27.9.0, SVG Export Plug-In . SVG Version: 6.00 Build 0)  -->
<svg version="1.1" id="Layer_1" xmlns="http://www.w3.org/2000/svg" xmlns:xlink="http://www.w3.org/1999/xlink" x="0px" y="0px"
	 viewBox="0 0 457.1 288.3" style="enable-background:new 0 0 457.1 288.3;" xml:space="preserve">
<style type="text/css">
	.st0{fill:#708EC2;}
	.st1{fill:#B7635E;}
	.st2{fill:#F8D36F;}
	.st3{fill:none;stroke:#F8D36F;stroke-width:10;stroke-linecap:round;stroke-miterlimit:10;}
	.st4{fill:none;stroke:#FDF1EB;stroke-width:10;stroke-miterlimit:10;}
	.st5{fill:#A7BC81;}
	.st6{fill:none;}
	.st7{fill:#FDF1EB;}
	.st8{fill:#FFD15B;stroke:#000000;stroke-width:1.0442;stroke-miterlimit:10;}
	.st9{fill:none;stroke:#FDF1EB;stroke-width:12;stroke-miterlimit:10;}
	.st10{fill:none;stroke:#FDF1EB;stroke-width:6.743;stroke-miterlimit:10;}
	.st11{opacity:0.5;fill:#FDF1EB;enable-background:new    ;}
	.st12{fill:#FFD15B;stroke:#000000;stroke-miterlimit:10;}
</style>
<g id="_x32_DjyCk_00000127038887626987825330000000034584710182254230_">
	<g>
		<g>
			<path d="M79.6,115.6c4.8-1,9.2-2.1,13.7-2.7c12.1-1.6,24-0.9,35.2,4.4c14.8,7,24,18.7,27.4,34.7c3.4,16.1,2.3,32-4.5,47.1
				c-7.7,17.3-21.3,27.5-39.8,31.2c-10.9,2.2-21.8,2.1-32.7-0.7c-17.9-4.6-30.2-15.8-38.2-32.2c-5.7-11.7-8.3-24.2-9.4-37
				c-1.5-18.3-0.7-36.6,3.9-54.5c3.7-14.6,9.7-28.2,20-39.4c14.8-16.2,33.5-22.4,55.1-21.2c9.4,0.5,18.5,2.2,26.9,6.7
				c8.9,4.8,14.4,12.1,16.1,22.2c1.9,11.1-4.4,22.1-14.9,26.4c-8.8,3.6-18,3.4-27.5,3.4c-0.1-1.2-0.1-2.3-0.2-3.3
				c-0.5-6.2-1-12.4-1.6-18.6c-0.1-1.1-0.5-2.1-0.9-3.1c-2-5.2-4.6-6.4-9.9-4.5c-4.3,1.6-7.1,4.8-9.4,8.6
				c-5.1,8.3-7.1,17.7-8.7,27.1C80,112,79.8,113.8,79.6,115.6z M118.7,96.5c6.9-0.1,13.9-0.3,20-4.4c5-3.4,7.9-8.3,7.6-14.6
				c-0.6-9.9-6.2-16.2-14.8-20.1c-6-2.8-12.3-3.9-18.8-4.5C94.8,51.4,78.6,55.1,65,67.3c-9.1,8.2-15,18.5-19.2,29.9
				c-6.1,16.4-7.8,33.4-7.5,50.8c0.2,14.1,1.7,27.9,7,41.1c6.4,16.1,17,28.1,34.2,33c9.7,2.8,19.6,2.9,29.4,1.2
				c16.8-2.9,29.1-11.9,36-27.6c5.8-13.2,6.8-27.1,4.1-41.1c-3.2-16-12.6-27.3-28.2-32.4c-14-4.6-28.1-3.5-41.8,2
				c-2.6,1-5.1,2.4-7.7,3.7c0-1.2-0.1-2.1,0-3c1.1-8.5,2-17,3.6-25.4c1.5-8,4.4-15.7,9.2-22.5c3.6-5,8.1-8.8,14.3-10.2
				c7.7-1.7,13,0.8,16.2,8c1,2.3,1.7,4.7,2.1,7.1C117.5,86.7,118,91.5,118.7,96.5z"/>
			<path d="M238.7,87.8c-1.3,0-2.2,0-3.1,0c-12.2,0-24.5,0-36.7,0c-0.7,0-1.5,0-2.2,0.1c-3.5,0.3-4.6,1.3-5,4.7
				c-0.7,5.4-1.4,10.9-2,16.3c-0.2,2-0.8,2.7-2.9,2.6c-7.7-0.1-15.3,0-23,0c-0.7,0-1.5-0.1-2.6-0.1c0.5-21.2,1-42.2,1.5-63.5
				c42,0,83.9,0,126,0c0.1,0.5,0.2,1.2,0.2,1.8c0,2.1-0.2,4.2,0,6.2c0.8,8.2-1.4,15.6-4.6,23.1c-20.7,49.2-41,98.5-61.4,147.8
				c-0.8,2-1.7,2.7-4,2.7c-13.2-0.1-26.5-0.1-39.7-0.1c-0.8,0-1.6,0-2.9,0C197.2,182.1,217.8,135.2,238.7,87.8z M250,80.5
				c-20.9,47.4-41.5,94.3-62.2,141.5c1.3,0,2.2,0,3,0c7.8,0,15.6-0.1,23.5,0.1c2.1,0,3-0.7,3.8-2.5c20.8-50.2,41.6-100.4,62.5-150.6
				c1.9-4.5,0.6-9.1,1-13.9c-1.2,0-2.1,0-2.9,0c-35.3,0-70.6,0-105.9,0c-2.3,0-3,0.6-3,2.9c-0.3,14.5-0.7,28.9-1,43.4
				c0,0.8,0,1.6,0,2.5c4.8,0,9.3,0,14,0c0.5-3.9,0.9-7.6,1.4-11.3c0.5-4.1,1.6-8.1,5.5-10.1c2.5-1.3,5.5-1.9,8.3-1.9
				c16.3-0.2,32.6-0.1,48.9-0.1C247.7,80.5,248.5,80.5,250,80.5z"/>
			<path d="M371.9,196.3c0.2-8.1,1.5-15.7,5.3-22.7c7.9-14.7,29.6-15.4,37.8-0.3c4.6,8.4,5.8,17.4,5.2,26.8
				c-0.5,6.8-2.2,13.2-5.7,19.2c-8.2,13.9-29.8,14-37.7-1.4C373.2,210.9,372.1,203.7,371.9,196.3z M380,195.9c0,1.2-0.1,2.5,0,3.7
				c0.5,6,1.6,11.9,5.3,16.9c6.3,8.2,19.3,7,23.4-2.4c1.7-4,2.8-8.4,3.3-12.7c0.9-8.1,0.3-16.1-3.5-23.6c-2.9-5.7-7.6-8.4-14-7.9
				c-5.9,0.5-9.5,3.9-11.6,9.1C380.6,184.5,379.8,190.1,380,195.9z"/>
			<path d="M344.3,128.9c-0.1,6.7-1.1,13.2-3.8,19.4c-5.4,12.6-19.3,17.9-30.8,11.7c-5-2.7-8.4-7.1-10.3-12.4
				c-4.8-13.4-4.9-26.8,1.2-39.8c3.8-8.2,10.6-12.6,19.9-12.5c9.3,0.1,15.6,4.9,19.6,13C343.1,114.8,344.2,121.8,344.3,128.9z
				 M304,128.5c0,6.6,0.8,13.1,4.1,19c2.9,5.1,7.3,7.6,13.2,7.3c6-0.3,10.2-3.3,12-8.9c1.4-4.3,2.5-8.8,2.9-13.3
				c0.7-7.9-0.2-15.6-4.2-22.7c-2.8-4.8-7-7.2-12.6-7c-5.7,0.1-9.6,2.8-12,7.9C304.8,116.4,304.1,122.4,304,128.5z"/>
			<path d="M401.9,100.6c-0.3,0.6-0.7,1.7-1.3,2.8c-18.8,28.6-37.6,57.1-56.4,85.7c-7.9,12-15.8,24-23.7,36.1
				c-0.5,0.8-1,1.5-1.6,2.2c-1.4,1.5-3.1,1.5-4.8,0.6c-1.6-0.9-1.9-2.5-1.4-4.1c0.2-0.8,0.7-1.5,1.1-2.2
				c26.9-40.9,53.8-81.8,80.7-122.8c1.1-1.7,2.5-3,4.7-2.3C401,96.9,401.9,98.1,401.9,100.6z"/>
			<path d="M116.4,170.1c-0.1,9.4-0.5,17.9-3.6,25.9c-0.8,2.2-1.9,4.3-3.2,6.2c-5.5,8-16.6,9.1-23.7,2.4c-3.8-3.6-6.3-7.9-8.1-12.7
				c-5.2-14.8-6.7-30.1-6.6-45.7c0-0.9,0.5-2,1.2-2.6c6.1-5.8,13.3-9.4,21.8-9.8c8.2-0.4,14.7,4.1,18.1,11.9
				C115.9,153.8,116.3,162.4,116.4,170.1z M109,170.9c0-0.8,0-1.7,0-2.5c-0.3-7.2-0.7-14.5-4.2-21.1c-1.9-3.5-4.7-5.9-8.8-6.1
				c-6.4-0.4-11.8,2.3-16.7,6.1c-0.5,0.4-0.7,1.3-0.7,2c0,12.5,1.2,24.9,5.1,36.9c1.4,4.2,3.6,8.2,6.1,11.9
				c2.9,4.4,10.8,5.6,14.3-0.9c0.8-1.5,1.6-3.1,2.1-4.8C108.6,185.4,108.8,178.2,109,170.9z"/>
		</g>
	</g>
</g>
</svg>
