<?xml version="1.0" encoding="utf-8"?>
<!-- Generator: Adobe Illustrator 27.9.0, SVG Export Plug-In . SVG Version: 6.00 Build 0)  -->
<svg version="1.1" id="Layer_1" xmlns="http://www.w3.org/2000/svg" xmlns:xlink="http://www.w3.org/1999/xlink" x="0px" y="0px"
	 viewBox="0 0 314.16 382.12" style="enable-background:new 0 0 314.16 382.12;" xml:space="preserve">
<style type="text/css">
	.st0{fill:#D35656;}
	.st1{fill:#5C90CC;}
	.st2{fill:#FFD25B;}
	.st3{fill:#FFF1EC;}
	.st4{fill:#9BBD72;}
	.st5{fill:none;stroke:#000000;stroke-width:8.7206;stroke-linecap:round;stroke-miterlimit:10;}
	.st6{fill:#F9C2D3;}
	.st7{fill:none;stroke:#000000;stroke-width:3;stroke-linecap:round;stroke-miterlimit:10;}
	.st8{fill:#FFD25B;stroke:#FFD25B;stroke-miterlimit:10;}
	.st9{fill:#EF7834;}
	.st10{fill:#23324D;}
	.st11{fill:none;stroke:#000000;stroke-width:3.5;stroke-linecap:round;stroke-miterlimit:10;}
	.st12{fill:none;}
	.st13{fill:none;stroke:#000000;stroke-width:3.1817;stroke-linecap:round;stroke-miterlimit:10;}
	.st14{fill:none;stroke:#000000;stroke-width:4;stroke-linecap:round;stroke-miterlimit:10;}
	.st15{fill:none;stroke:#000000;stroke-width:9;stroke-miterlimit:10;}
	.st16{fill:none;stroke:#000000;stroke-width:5;stroke-linecap:round;stroke-miterlimit:10;}
	.st17{fill:none;stroke:#000000;stroke-width:5.9898;stroke-miterlimit:10;}
	.st18{fill:none;stroke:#000000;stroke-width:5.9898;stroke-linecap:round;stroke-miterlimit:10;}
	.st19{fill:#F7941D;}
	.st20{fill:none;stroke:#000000;stroke-width:3;stroke-miterlimit:10;}
	.st21{fill:none;stroke:#000000;stroke-width:3.0176;stroke-linecap:round;stroke-miterlimit:10;}
	.st22{fill:none;stroke:#000000;stroke-width:2.2105;stroke-linecap:round;stroke-miterlimit:10;}
	.st23{fill:none;stroke:#000000;stroke-width:3.5;stroke-miterlimit:10;}
	.st24{fill:none;stroke:#000000;stroke-width:4;stroke-miterlimit:10;}
	.st25{fill:none;stroke:#000000;stroke-width:4.3732;stroke-linecap:round;stroke-miterlimit:10;}
	.st26{fill:none;stroke:#000000;stroke-width:0.5467;stroke-linecap:round;stroke-miterlimit:10;}
	.st27{fill:none;stroke:#000000;stroke-width:2.9155;stroke-linecap:round;stroke-miterlimit:10;}
	.st28{fill:none;stroke:#000000;stroke-width:3.6444;stroke-linecap:round;stroke-miterlimit:10;}
	.st29{fill:none;stroke:#000000;stroke-width:0.1822;stroke-linecap:round;stroke-miterlimit:10;}
	.st30{fill:none;stroke:#000000;stroke-linecap:round;stroke-miterlimit:10;}
	.st31{fill:none;stroke:#000000;stroke-width:8.6374;stroke-linecap:round;stroke-miterlimit:10;}
	.st32{fill:none;stroke:#000000;stroke-width:8.6374;stroke-miterlimit:10;}
	.st33{fill:none;stroke:#000000;stroke-width:8.6879;stroke-linecap:round;stroke-miterlimit:10;}
	.st34{fill:none;stroke:#000000;stroke-width:6.3642;stroke-linecap:round;stroke-miterlimit:10;}
</style>
<g>
	<g id="XMLID_00000026126186438255604960000004023085091082386079_">
		<g>
			<path class="st0" d="M288.09,25.79c5.59,5.71,6.3,14.54,2.42,21.51c-2.73,4.89-7.76,11.86-16.98,20.19
				c-4.41,4.02-9.81,8.35-16.39,12.9c-1.43,0.98-3.35,1.04-4.84,0.11c-7.28-4.61-13.13-8.97-17.8-13.02
				c-18.02-15.55-18.67-22.46-18.67-27.83c0-0.11,0-0.17,0-0.17c0-10.77,8.72-19.48,19.46-19.48c5.4,0,10.23,2.19,13.78,5.71
				c2.42,2.42,4.19,5.48,5.09,8.88c0.14,0.65,1.04,0.65,1.21,0c2.16-8.38,9.78-14.59,18.87-14.59c5.37,0,10.23,2.19,13.78,5.71
				C288.04,25.74,288.06,25.77,288.09,25.79z"/>
		</g>
		<g>
			<path class="st31" d="M288.09,25.79c5.59,5.71,6.3,14.54,2.42,21.51c-2.73,4.89-7.76,11.86-16.98,20.19
				c-4.41,4.02-9.81,8.35-16.39,12.9c-1.43,0.98-3.35,1.04-4.84,0.11c-7.28-4.61-13.13-8.97-17.8-13.02
				c-18.02-15.55-18.67-22.46-18.67-27.83c0-0.11,0-0.17,0-0.17c0-10.77,8.72-19.48,19.46-19.48c5.4,0,10.23,2.19,13.78,5.71
				c2.42,2.42,4.19,5.48,5.09,8.88c0.14,0.65,1.04,0.65,1.21,0c2.16-8.38,9.78-14.59,18.87-14.59c5.37,0,10.23,2.19,13.78,5.71
				C288.04,25.74,288.06,25.77,288.09,25.79z"/>
		</g>
	</g>
	<g id="XMLID_00000133498271085426762280000010570868372554486946_">
		<g>
			<path class="st4" d="M173.15,239.36v-39.14c0-2.19-1.8-3.99-4.02-3.99H88.91c-2.19,0-3.99,1.8-3.99,3.99v39.14
				c0,2.22,1.8,3.99,3.99,3.99h80.21C171.35,243.35,173.15,241.58,173.15,239.36z M198.48,358.37H52.95V140.78h0.53h144.99
				c4.41,0,7.96,3.57,7.96,7.96v201.67C206.43,354.8,202.89,358.37,198.48,358.37z"/>
			<path class="st3" d="M84.92,239.36v-39.14c0-2.19,1.8-3.99,3.99-3.99h80.21c2.22,0,4.02,1.8,4.02,3.99v39.14
				c0,2.22-1.8,3.99-4.02,3.99H88.91C86.72,243.35,84.92,241.58,84.92,239.36z"/>
			<path class="st1" d="M52.95,358.37H38.53c-4.39,0-7.96-3.57-7.96-7.96v-51v-23.95V251.5v-23.93v-23.95V179.7v-30.96
				c0-4.39,3.57-7.96,7.96-7.96h14.42V358.37z"/>
		</g>
		<g>
			<path class="st32" d="M53.49,140.78h144.99c4.41,0,7.96,3.57,7.96,7.96v201.67c0,4.39-3.54,7.96-7.96,7.96H52.95H38.53
				c-4.39,0-7.96-3.57-7.96-7.96v-51v-23.95V251.5v-23.93v-23.95V179.7v-30.96c0-4.39,3.57-7.96,7.96-7.96h14.42"/>
			<polyline class="st32" points="52.95,140.78 53.49,140.78 64.68,140.61 			"/>
			<line class="st32" x1="52.95" y1="358.37" x2="52.95" y2="140.78"/>
			<polyline class="st33" points="38.78,179.7 30.57,179.7 18.37,179.7 			"/>
			<polyline class="st33" points="38.78,203.62 30.57,203.62 18.37,203.62 			"/>
			<polyline class="st33" points="38.78,227.58 30.57,227.58 18.37,227.58 			"/>
			<polyline class="st33" points="38.78,251.5 30.57,251.5 18.37,251.5 			"/>
			<polyline class="st33" points="38.78,275.46 30.57,275.46 18.37,275.46 			"/>
			<polyline class="st33" points="38.78,299.41 30.57,299.41 18.37,299.41 			"/>
			<path class="st32" d="M169.12,243.35H88.91c-2.19,0-3.99-1.77-3.99-3.99v-39.14c0-2.19,1.8-3.99,3.99-3.99h80.21
				c2.22,0,4.02,1.8,4.02,3.99v39.14C173.15,241.58,171.35,243.35,169.12,243.35z"/>
		</g>
	</g>
	<g id="XMLID_00000160150109079916502470000004810759155382157498_">
		<g>
			<path class="st2" d="M256.16,161.15v176.83c0,2.32-1.89,4.21-4.21,4.21h-50.82c-2.32,0-4.21-1.89-4.21-4.21V161.15
				c0-2.32,1.89-4.21,4.21-4.21h50.82C254.27,156.95,256.16,158.83,256.16,161.15z"/>
		</g>
		<g>
			<path class="st32" d="M251.95,342.19h-50.82c-2.32,0-4.21-1.89-4.21-4.21V161.15c0-2.32,1.89-4.21,4.21-4.21h50.82
				c2.32,0,4.21,1.89,4.21,4.21v176.83C256.16,340.31,254.27,342.19,251.95,342.19z"/>
			<line class="st34" x1="242.96" y1="179.4" x2="254.4" y2="179.4"/>
			<line class="st34" x1="242.96" y1="192.81" x2="254.4" y2="192.81"/>
			<line class="st34" x1="235.05" y1="205.51" x2="254.4" y2="205.51"/>
			<line class="st34" x1="242.96" y1="218.21" x2="254.4" y2="218.21"/>
			<line class="st34" x1="242.96" y1="230.88" x2="254.4" y2="230.88"/>
			<line class="st34" x1="235.05" y1="243.58" x2="254.4" y2="243.58"/>
			<line class="st34" x1="242.96" y1="256.28" x2="254.4" y2="256.28"/>
			<line class="st34" x1="242.96" y1="268.96" x2="254.4" y2="268.96"/>
			<line class="st34" x1="235.05" y1="281.66" x2="254.4" y2="281.66"/>
			<line class="st34" x1="242.96" y1="294.36" x2="254.4" y2="294.36"/>
			<line class="st34" x1="242.96" y1="307.04" x2="254.4" y2="307.04"/>
			<line class="st34" x1="235.05" y1="319.74" x2="254.4" y2="319.74"/>
		</g>
	</g>
	<g id="XMLID_00000145033104601243390950000014049356911550073736_">
		<g>
			<path class="st0" d="M181.49,186.92v32.11c0,0.65-0.53,1.18-1.21,1.18h-49.31c-0.65,0-1.18-0.53-1.18-1.18l0.11-32.11H181.49z"/>
			<polygon class="st1" points="181.49,171.09 181.49,186.92 129.9,186.92 129.99,171.09 			"/>
			<path class="st2" d="M181.49,95.54v75.55h-51.51l0.28-75.88c0-0.08,0.03-0.22,0.11-0.42h50.69l0.11-0.06l0.11,0.17
				C181.44,95.09,181.49,95.32,181.49,95.54z"/>
			<path class="st3" d="M160.94,61.89l20.24,32.84l-0.11,0.06h-50.69c1.12-3.46,12.68-21.87,19.77-32.98L160.94,61.89z"/>
		</g>
		<g>
			<path class="st32" d="M129.99,171.09l0.28-75.88c0-0.08,0.03-0.22,0.11-0.42c1.12-3.46,12.68-21.87,19.77-32.98
				c1.91-3.01,3.49-5.48,4.44-6.97c0.48-0.73,1.55-0.7,2.02,0.03l4.33,7.03l20.24,32.84l0.11,0.17c0.14,0.2,0.2,0.42,0.2,0.65v75.55
				v15.83v32.11c0,0.65-0.53,1.18-1.21,1.18h-49.31c-0.65,0-1.18-0.53-1.18-1.18l0.11-32.11L129.99,171.09z"/>
			<polyline class="st32" points="129.85,94.78 130.38,94.78 181.07,94.78 			"/>
			<polyline class="st32" points="149.08,61.8 150.14,61.8 160.94,61.89 161.11,61.89 			"/>
			<polyline class="st32" points="129.79,186.92 129.9,186.92 181.49,186.92 182.11,186.92 			"/>
			<polyline class="st32" points="129.79,171.09 129.99,171.09 181.49,171.09 182.11,171.09 			"/>
			<line class="st31" x1="166.85" y1="169.37" x2="166.85" y2="125.18"/>
			<line class="st31" x1="166.85" y1="115" x2="166.85" y2="111.15"/>
		</g>
	</g>
</g>
</svg>
