<?xml version="1.0" encoding="utf-8"?>
<!-- Generator: Adobe Illustrator 27.9.0, SVG Export Plug-In . SVG Version: 6.00 Build 0)  -->
<svg version="1.1" id="Layer_1" xmlns="http://www.w3.org/2000/svg" xmlns:xlink="http://www.w3.org/1999/xlink" x="0px" y="0px"
	 viewBox="0 0 1728 724.6" style="enable-background:new 0 0 1728 724.6;" xml:space="preserve">
<style type="text/css">
	.st0{fill:#708EC2;}
	.st1{fill:#B7635E;}
	.st2{fill:#F8D36F;}
	.st3{fill:none;stroke:#F8D36F;stroke-width:10;stroke-linecap:round;stroke-miterlimit:10;}
	.st4{fill:none;stroke:#FDF1EB;stroke-width:10;stroke-miterlimit:10;}
	.st5{fill:#A7BC81;}
	.st6{fill:none;}
	.st7{fill:#FDF1EB;}
	.st8{fill:#FFD15B;stroke:#000000;stroke-miterlimit:10;}
	.st9{opacity:0.5;fill:#FDF1EB;enable-background:new    ;}
	.st10{fill:#FFD15B;stroke:#000000;stroke-width:1.0442;stroke-miterlimit:10;}
	.st11{fill:none;stroke:#FDF1EB;stroke-width:12;stroke-miterlimit:10;}
	.st12{fill:none;stroke:#FDF1EB;stroke-width:6.743;stroke-miterlimit:10;}
	.st13{fill:#FDF1EB;stroke:#FDF1EB;stroke-width:10;stroke-miterlimit:10;}
	.st14{fill:#C45E5B;}
	.st15{fill:none;stroke:#FFD15B;stroke-width:12;stroke-miterlimit:10;}
	.st16{fill:#FBF1EC;}
	.st17{fill:none;stroke:#221F20;stroke-width:9;stroke-miterlimit:10;}
	.st18{fill:#A1BB7A;}
	.st19{fill:#688EC6;}
	.st20{fill:none;stroke:#221F20;stroke-width:5.9898;stroke-miterlimit:10;}
	.st21{fill:none;stroke:#221F20;stroke-width:5.9898;stroke-linecap:round;stroke-miterlimit:10;}
	.st22{fill:#221F20;}
	.st23{fill:#E07F45;}
	.st24{fill:#E9973E;}
</style>
<rect x="-19.8" y="-24.2" class="st13" width="1747.8" height="769.3"/>
<circle class="st0" cx="135.2" cy="315.1" r="234.7"/>
<circle class="st14" cx="296.3" cy="471.7" r="126.1"/>
<circle class="st15" cx="36.9" cy="441.1" r="231.6"/>
<g>
	<g id="XMLID_00000169544342368930512190000015434351980816185248_">
		<g>
			<path class="st18" d="M573,301.1V493c0,4.4-3.6,8-8,8H426.4V293.2H565C569.4,293.2,573,296.8,573,301.1z M541.2,387.1v-37
				c0-2.2-1.8-4-4-4h-76.3c-2.2,0-4,1.8-4,4v37c0,2.2,1.8,4,4,4h76.3C539.4,391.1,541.2,389.4,541.2,387.1z"/>
			<path class="st16" d="M541.2,350.1v37c0,2.2-1.8,4-4,4h-76.3c-2.2,0-4-1.8-4-4v-37c0-2.2,1.8-4,4-4h76.3
				C539.4,346.1,541.2,347.9,541.2,350.1z"/>
			<path class="st19" d="M405,330.4v-29.2c0-4.4,3.6-7.9,8-7.9h13.4V501H413c-4.4,0-8-3.6-8-8v-48.3v-22.9V399v-22.9v-22.9V330.4z"
				/>
		</g>
		<g>
			<path class="st20" d="M426.4,293.2H565c4.4,0,8,3.6,8,7.9V493c0,4.4-3.6,8-8,8H426.4H413c-4.4,0-8-3.6-8-8v-48.3v-22.9V399v-22.9
				v-22.9v-22.9v-29.2c0-4.4,3.6-7.9,8-7.9H426.4z"/>
			<line class="st20" x1="426.4" y1="293.2" x2="437.6" y2="293"/>
			<line class="st20" x1="426.4" y1="501" x2="426.4" y2="293.2"/>
			<polyline class="st21" points="412.9,330.4 405,330.4 393.4,330.4 			"/>
			<polyline class="st21" points="412.9,353.2 405,353.2 393.4,353.2 			"/>
			<polyline class="st21" points="412.9,376.1 405,376.1 393.4,376.1 			"/>
			<polyline class="st21" points="412.9,399 405,399 393.4,399 			"/>
			<polyline class="st21" points="412.9,421.8 405,421.8 393.4,421.8 			"/>
			<polyline class="st21" points="412.9,444.7 405,444.7 393.4,444.7 			"/>
			<path class="st20" d="M537.2,391.1h-76.3c-2.2,0-4-1.8-4-4v-37c0-2.2,1.8-4,4-4h76.3c2.2,0,4,1.8,4,4v37
				C541.2,389.4,539.4,391.1,537.2,391.1z"/>
		</g>
	</g>
	<g id="XMLID_00000042014744670721280180000003577898724604129209_">
		<g>
			<path class="st2" d="M620.5,312.8v168.5c0,2.3-1.9,4.2-4.2,4.2h-48.2c-2.3,0-4.2-1.9-4.2-4.2V312.8c0-2.3,1.9-4.2,4.2-4.2h48.2
				C618.6,308.6,620.5,310.5,620.5,312.8z"/>
		</g>
		<g>
			<path class="st20" d="M616.3,485.6h-48.2c-2.3,0-4.2-1.9-4.2-4.2V312.8c0-2.3,1.9-4.2,4.2-4.2h48.2c2.3,0,4.2,1.9,4.2,4.2v168.5
				C620.5,483.7,618.6,485.6,616.3,485.6z"/>
			<line class="st21" x1="607.9" y1="330.1" x2="618.8" y2="330.1"/>
			<line class="st21" x1="607.9" y1="342.9" x2="618.8" y2="342.9"/>
			<line class="st21" x1="600.3" y1="355" x2="618.8" y2="355"/>
			<line class="st21" x1="607.9" y1="367.1" x2="618.8" y2="367.1"/>
			<line class="st21" x1="607.9" y1="379.2" x2="618.8" y2="379.2"/>
			<line class="st21" x1="600.3" y1="391.4" x2="618.8" y2="391.4"/>
			<line class="st21" x1="607.9" y1="403.5" x2="618.8" y2="403.5"/>
			<line class="st21" x1="607.9" y1="415.6" x2="618.8" y2="415.6"/>
			<line class="st21" x1="600.3" y1="427.7" x2="618.8" y2="427.7"/>
			<line class="st21" x1="607.9" y1="439.8" x2="618.8" y2="439.8"/>
			<line class="st21" x1="607.9" y1="452" x2="618.8" y2="452"/>
			<line class="st21" x1="600.3" y1="464.1" x2="618.8" y2="464.1"/>
		</g>
	</g>
	<g id="XMLID_00000111882386838563660080000002046936476108739745_">
		<g>
			<path class="st22" d="M713.6,527.8H712v-7.4c0,0,0,0,0-0.1l-1.2-1.9l-46.3-73v-11.7c0-3-0.6-5.9-1.8-8.5c0.2,0.2,0.4,0.4,0.6,0.7
				l56.6,89.3c1.6,2.4,1.8,5.7,0.4,8.5C718.9,526.2,716.4,527.8,713.6,527.8z"/>
			<path class="st22" d="M712,520.3v7.4h-47.5v-9.4h46.3L712,520.3C712,520.3,712,520.3,712,520.3z"/>
			<polygon class="st23" points="664.5,445.4 710.8,518.4 664.5,518.4 			"/>
			<path d="M664.5,518.4v9.4h-4.7c-2.6,0-4.7-2.1-4.7-4.7c0-2.6,2.1-4.7,4.7-4.7H664.5z"/>
			<path d="M360,623.6c0,5.9,4,10.6,8.9,10.6h277.3c4.9,0,8.9-4.8,8.9-10.6V523.1c0,2.6,2.1,4.7,4.7,4.7h4.7v95.8
				c0,11-8.2,20-18.3,20H368.9c-10.1,0-18.3-9-18.3-20v-95.9l4.7,0c0,0,0.1,0,0.1,0h4.6V623.6z"/>
			<path d="M662.7,425.2c1.2,2.6,1.8,5.5,1.8,8.5v11.7l-9.2-14.4c-0.2-0.4-0.4-0.8-0.5-1.2c-0.6-2,0.2-4.1,2-5.3
				C658.7,423.2,661.2,423.5,662.7,425.2z"/>
			<path d="M655.1,433.7c0-1.4-0.2-2.7-0.6-3.9l0.3-0.1c0.1,0.4,0.3,0.8,0.5,1.2l9.2,14.4v73h-4.7c-2.6,0-4.7,2.1-4.7,4.7V433.7z"/>
			<path class="st2" d="M646.2,423.1c3.8,0,7,2.8,8.2,6.7c0.4,1.2,0.6,2.6,0.6,3.9v89.4v100.5c0,5.9-4,10.6-8.9,10.6H368.9
				c-4.9,0-8.9-4.8-8.9-10.6v-95.9l82.3,0.1c5,0,9.6-3.2,11.6-8.2l39.3-96.5H646.2z"/>
			<path d="M656.8,424.4c-1.8,1.2-2.6,3.3-2,5.3l-0.3,0.1c-1.3-3.9-4.5-6.7-8.2-6.7H493.3l3.8-9.4h149c7.3,0,13.6,4.7,16.5,11.5
				C661.2,423.5,658.7,423.2,656.8,424.4z"/>
			<path d="M497.2,413.7l-3.8,9.4L454,519.6c-2,5-6.6,8.2-11.6,8.2l-82.3-0.1h-4.6c2.5-0.1,4.6-2.1,4.6-4.7c0-2.3-1.6-4.2-3.7-4.6
				h21.6v-0.1l64.4,0.1c1.2,0,2.3-0.9,2.9-2.3l37.9-93l3.8-9.4H497.2z"/>
			<path class="st2" d="M388.4,439l-14.2,34.5l-14.2-5.8v21.6h17.9v29l-22.6,0l-4.7,0h-10v-29h10v-25.5l-3.4-1.4l3.4-8.1l10.2-24.8
				c0.1-0.4,0.3-0.8,0.4-1.1c0.1-0.1,0.2-0.3,0.2-0.4L388.4,439z"/>
			<path class="st2" d="M368.9,423.1h114.3l-37.9,93c-0.6,1.4-1.7,2.3-2.9,2.3l-64.4-0.1v-29H360v-21.6l14.2,5.8l14.2-34.5l-26.9-11
				c0.6-1.2,1.4-2.2,2.4-3C365.4,423.7,367.1,423.1,368.9,423.1z"/>
			<path class="st24" d="M361.5,428L361.5,428c0,0.2-0.1,0.3-0.2,0.4L361.5,428z"/>
			<path d="M360.9,429.5l-10.2,24.8v-0.1l10-24.6c1-2.4-0.2-5.2-2.6-6.1c-2.1-0.9-4.5-0.1-5.7,1.8c1.3-2.9,3.1-5.5,5.5-7.5
				c3.2-2.6,7-4,11-4H487l-3.8,9.4H368.9c-1.8,0-3.5,0.7-5,1.9c-1,0.8-1.7,1.9-2.4,3l-0.1,0l-0.2,0.4
				C361.1,428.7,361,429.1,360.9,429.5z"/>
			<path d="M350.7,433.7c0-3,0.6-5.9,1.7-8.5c1.2-1.9,3.6-2.7,5.7-1.8c2.4,1,3.5,3.7,2.6,6.1l-10,24.6V433.7z"/>
			<path d="M356.3,518.4c2.1,0.5,3.7,2.3,3.7,4.6c0,2.6-2.1,4.6-4.6,4.7c0,0-0.1,0-0.1,0l-4.7,0v-9.3H356.3z"/>
			<path class="st24" d="M355.4,518.3l22.6,0v0.1h-21.6C356,518.3,355.7,518.3,355.4,518.3z"/>
			<path class="st24" d="M355.4,518.3c0.3,0,0.6,0,1,0.1h-5.7v-0.1L355.4,518.3z"/>
			<rect x="340.7" y="518.3" class="st24" width="10" height="0.1"/>
			<polygon class="st2" points="350.7,454.3 347.3,462.5 350.7,454.2 			"/>
			<polygon class="st2" points="337,487.8 347.3,462.5 350.7,463.8 350.7,489.3 340.7,489.3 			"/>
			<path d="M340.7,518.4h10v9.3l-26.6,0c-2.9,0-5.6-1.5-7.2-3.9c-1.9-2.7-2.2-6.2-0.9-9.3L352,426c0.1-0.3,0.2-0.5,0.4-0.8
				c-1.1,2.6-1.7,5.5-1.7,8.5v20.5l-3.4,8.3L337,487.8L324.6,518c0,0.1,0,0.2,0,0.3l16.1,0V518.4z"/>
			<path class="st2" d="M340.7,489.3v29l-16.1,0c0-0.1,0-0.2,0-0.3l12.3-30.2L340.7,489.3z"/>
		</g>
	</g>
	<g id="XMLID_00000135649319799423516990000017243559050336065969_">
		<g>
			<path class="st14" d="M549.2,337.3v30.7c0,0.6-0.5,1.1-1.2,1.1h-47.1c-0.6,0-1.1-0.5-1.1-1.1l0.1-30.7H549.2z"/>
			<polygon class="st19" points="549.2,322.2 549.2,337.3 499.9,337.3 500,322.2 			"/>
			<path class="st2" d="M549.2,322.2H500l0.3-72.5c0-0.1,0-0.2,0.1-0.4h48.4l0.1-0.1l0.1,0.2c0.1,0.2,0.2,0.4,0.2,0.6V322.2z"/>
			<path class="st16" d="M548.9,249.2l-0.1,0.1h-48.4c1.1-3.3,12.1-20.9,18.8-31.5l10.3,0.1L548.9,249.2z"/>
		</g>
		<g>
			<path class="st20" d="M500,322.2l0.3-72.5c0-0.1,0-0.2,0.1-0.4c1.1-3.3,12.1-20.9,18.8-31.5c1.8-2.9,3.3-5.2,4.2-6.7
				c0.5-0.7,1.5-0.7,1.9,0l4.1,6.7l19.4,31.3l0.1,0.2c0.1,0.2,0.2,0.4,0.2,0.6v72.2v15.1v30.7c0,0.6-0.5,1.1-1.2,1.1h-47.1
				c-0.6,0-1.1-0.5-1.1-1.1l0.1-30.7L500,322.2z"/>
			<polyline class="st20" points="499.9,249.3 500.4,249.3 548.8,249.3 			"/>
			<polyline class="st20" points="518.2,217.8 519.2,217.8 529.5,217.8 529.7,217.8 			"/>
			<polyline class="st20" points="499.8,337.3 499.9,337.3 549.2,337.3 549.8,337.3 			"/>
			<polyline class="st20" points="499.8,322.2 500,322.2 549.2,322.2 549.8,322.2 			"/>
			<line class="st21" x1="535.2" y1="320.5" x2="535.2" y2="278.3"/>
			<line class="st21" x1="535.2" y1="268.6" x2="535.2" y2="264.9"/>
		</g>
	</g>
</g>
</svg>
