<?xml version="1.0" encoding="utf-8"?>
<!-- Generator: Adobe Illustrator 27.9.0, SVG Export Plug-In . SVG Version: 6.00 Build 0)  -->
<svg version="1.1" id="Layer_1" xmlns="http://www.w3.org/2000/svg" xmlns:xlink="http://www.w3.org/1999/xlink" x="0px" y="0px"
	 viewBox="0 0 1728 925.2" style="enable-background:new 0 0 1728 925.2;" xml:space="preserve">
<style type="text/css">
	.st0{fill:#708EC2;}
	.st1{fill:#B7635E;}
	.st2{fill:#F8D36F;}
	.st3{fill:none;stroke:#F8D36F;stroke-width:10;stroke-linecap:round;stroke-miterlimit:10;}
	.st4{fill:none;stroke:#FDF1EB;stroke-width:10;stroke-miterlimit:10;}
	.st5{fill:#A7BC81;}
	.st6{fill:none;}
	.st7{fill:#FDF1EB;}
	.st8{fill:#FFD15B;stroke:#000000;stroke-miterlimit:10;}
	.st9{opacity:0.5;fill:#FDF1EB;enable-background:new    ;}
	.st10{fill:#FFD15B;stroke:#000000;stroke-width:1.0442;stroke-miterlimit:10;}
	.st11{fill:none;stroke:#FDF1EB;stroke-width:12;stroke-miterlimit:10;}
	.st12{fill:none;stroke:#FDF1EB;stroke-width:6.743;stroke-miterlimit:10;}
	.st13{fill:#FDF1EB;stroke:#FDF1EB;stroke-width:11.1493;stroke-miterlimit:10;}
	.st14{fill:#FDF1EB;stroke:#FDF1EB;stroke-width:10;stroke-miterlimit:10;}
	.st15{fill:#FBF1EC;}
	.st16{fill:#C45E5B;}
	.st17{fill:none;stroke:#221F20;stroke-width:9;stroke-miterlimit:10;}
	.st18{fill:#FFD15B;}
	.st19{fill:none;stroke:#FFD15B;stroke-width:12;stroke-miterlimit:10;}
	.st20{fill:#A1BB7A;}
	.st21{fill:#688EC6;}
	.st22{fill:none;stroke:#221F20;stroke-width:5.9898;stroke-miterlimit:10;}
	.st23{fill:none;stroke:#221F20;stroke-width:5.9898;stroke-linecap:round;stroke-miterlimit:10;}
	.st24{fill:#221F20;}
	.st25{fill:#E07F45;}
	.st26{fill:#E9973E;}
	.st27{fill:none;stroke:#708EC2;stroke-width:12;stroke-miterlimit:10;}
	.st28{fill:none;stroke:#221F20;stroke-width:7.1818;stroke-linecap:round;stroke-miterlimit:10;}
</style>
<rect x="-9.9" y="-8.6" class="st13" width="1747.8" height="956.4"/>
<circle class="st18" cx="1554" cy="516.8" r="238.3"/>
<circle class="st27" cx="1654.8" cy="699.3" r="182.5"/>
<g>
	<g id="XMLID_00000121245504209863045930000003322252365303635356_">
		<g>
			<path d="M1532.1,492.1c1.5,0.2,2.7,1.4,2.6,3c-0.1,1.5-1.3,2.5-2.9,2.6l-4.8,0c-1.5-0.1-2.2-1-2.4-2.4c-0.2-1.7,0.7-2.9,2.3-3.1
				C1528.5,491.8,1530.3,491.9,1532.1,492.1z"/>
			<path d="M1532.7,438.5c4.5,15.2,1.6,28.4-6.9,39.7l-4.9-2.6c7.2-9.7,10.1-22.5,6.6-34.8c-5.1-17.8-21.5-29.6-37.6-29.3
				c-4.3,0.1-8.7,0-13.1,0c-1.4,0-2.7,0.2-4.6,0.4c2.4,2.5,4.9,3.2,7.7,3.2c2.4,0,4.7-0.1,7.1,0.2c0.8,0.1,1.9,1,2,2
				c0.1,1,0.3,2.3-1.2,3.2c-1,0.6-3,0.1-5.4,0.4c8.6,10.6,12.4,22.1,11.3,34.6l-5.7-0.6c0.7-8.4-1.3-17-6.1-24.8
				c-8.1-13.1-24-21.6-41.4-17.8c13.8,9.7,21.5,22.7,21.5,39.6c0,8.9-2.3,16.7-6.5,23.5l-5-2.9c6.1-10.1,7.5-22.8,3.2-35
				c-5.4-15.3-21.5-26.4-36.7-25.9c-14.5,0.4-29,0.1-43.6,0.1c-1.7,0-3.5,0-6.1,0c11.4,7.8,18.4,18.7,21,30.3l-5.5,1
				c-3.9-17.7-20.1-31.2-38.2-31.2c-22.5-0.1-45,0-67.6,0c0,0,0-0.1,0-0.1c-22.7,0-45.4,0-68.1,0c-1.6,0-3.3-0.1-4.9,0.1
				c-2.4,0.3-4.3,2.5-4.4,4.8l-5.6-0.2c0-0.7,0.1-1.3,0.2-2c0.8-5.2,5.3-8.7,11.4-8.8c4.2-0.1,8.4,0,12.5-0.1c1.6,0,2.2-0.8,2.1-2.4
				c-0.6-8.6,1.2-11.4,9.2-14c3.3-1.1,5.1-3.4,6.2-6.4c2-5.3,3.1-10.7,3.1-16.2l5.5,0.2c-0.1,7.4-1.6,14.8-4.5,22.2
				c2.2,0.1,3.9,0.2,5.7,0.2c57.6,0,115.2,0,172.8,0c1.3,0,2.5,0,3.8,0c1.5,0,2.4-0.8,2.4-2.3c0-5.1,0-10.2,0-15.3
				c0-1.5-0.6-2.2-2.2-2.5c-3-0.1-5.3-0.7-5.1-3.4c0.2-3.1,3.6-2.6,5.9-2.6c13.3,0,26.5,0,39.8,0c1.1,0,2.2,0.1,3.2,0.2
				c2.2,0.4,2.3,1.6,2.4,2.5c0.1,0.9-0.1,2-1,2.7c-0.6,0.5-2.7,0.5-3.6,0.5c-2.2,0-2.7,1.2-2.7,3.1c0,4.5-0.1,9.1,0,13.6
				c0.1,3,0.7,3.6,3.6,3.3c9.4-1,16.5-5.5,20.2-14.4c1.6-3.8,2.2-7.5,1.8-11l5.9-0.6c0.9,7.8-1.5,16.1-7.7,22.7
				c-5.2,5.6-11.6,8.4-19.1,9.3c-4.6,0.5-4.5,0.8-4.5,5.3c0,5.2,0.3,5.6,5.6,5c9.3-1,17.6-4.4,24.3-11.1c6-6,9.7-12.7,11.2-20.1
				l5.7,1.1c-2.1,10.2-7.9,19.9-17.5,27.2c-0.8,0.7-1.7,1.2-3.5,2.5C1510.2,406.5,1526.3,416.9,1532.7,438.5z M1454.8,399
				c0-10,0-18.8,0-27.7c0-2-1.3-2.3-2.9-2.3c-5.8,0-11.6-0.1-17.4,0c-3.9,0-4,0.1-4,3.9c-0.1,7.2,0,14.5,0,21.7
				c0,1.2,0.2,2.4,0.4,4.1c2.9-1.7,5.6-2.9,7.8-4.7c3-2.4,5.5-2,8.4,0C1449.2,395.6,1451.5,396.9,1454.8,399z M1451.5,405.1
				c0-0.3,0-0.6,0.1-0.9c-2.4-1.5-4.8-3.1-7.3-4.5c-0.8-0.4-2.2-0.6-2.9-0.2c-2.5,1.6-5.3,2.7-7.6,5.6
				C1440.1,405.1,1445.8,405.1,1451.5,405.1z M1424.2,401.9c0.1-7.8,0.5-6.8-6.6-6.8c-60.9,0-121.7,0-182.6,0
				c-1.5,0-2.9-0.1-4.4,0.1c-3.1,0.3-5,2-5.1,4.6c-0.1,2.4,1.8,4.9,4.4,5.4c1.6,0.3,3.3,0.2,4.9,0.2c30.3,0,60.7,0,91,0
				c30.3,0,60.7,0,91,0c1.3,0,2.5,0,3.8,0C1424,405.2,1424.2,405.1,1424.2,401.9z"/>
			<path class="st16" d="M1527.4,440.8c3.5,12.3,0.7,25.1-6.6,34.8c-5.8,7.8-14.5,13.6-25,15.6c-4.9,0.9-10.1,0.4-15.2,0.5
				c-2.7,0-5.4,0-8.2-0.5c11.7-8.1,18.8-19,20.9-32.6c0.2-1,0.3-2.1,0.4-3.1c1.1-12.5-2.6-24-11.3-34.6c2.4-0.3,4.4,0.2,5.4-0.4
				c1.5-0.9,1.2-2.2,1.2-3.2c-0.1-1-1.2-1.9-2-2c-2.3-0.3-4.7-0.3-7.1-0.2c-2.8,0-5.3-0.7-7.7-3.2c1.8-0.2,3.2-0.4,4.6-0.4
				c4.4,0,8.7,0.1,13.1,0C1506,411.2,1522.4,423,1527.4,440.8z"/>
			<path d="M1520.9,475.6l4.9,2.6c-3.5,4.6-7.9,8.9-13.1,12.9c2.2-0.1,4.5-0.1,5.6,0.6c1.5,0.9,1.9,2.1,1.2,3.7
				c-0.4,0.9-1.7,1.9-2.7,2.1c-1.5,0.4-3.2,0.2-4.9,0.2c-21.4,0-42.9,0-64.3,0V492c12.4,0,24.4-5.9,31.6-15.1
				c5.2-6.7,8.2-14.3,8.8-22l5.7,0.6c-0.1,1-0.2,2.1-0.4,3.1c-2.1,13.7-9.2,24.6-20.9,32.6c2.9,0.5,5.6,0.5,8.2,0.5
				c5.1-0.1,10.3,0.4,15.2-0.5C1506.4,489.2,1515,483.4,1520.9,475.6z"/>
			<path d="M1483.8,325.4c19.5,9.8,28.1,30.6,24,49.7l-5.7-1.1c1.1-5.3,1-10.9-0.3-16.9c-4.1-19.3-22.1-31-39.7-30.8
				c-37.6,0.4-75.2,0.1-112.9,0.1c-38.3,0-76.7,0-115,0c-1.3,0-2.5-0.1-3.8,0.1c-3.1,0.3-5.1,2.5-5.1,5.3l-5.7,0.2
				c0-0.4,0-0.8,0-1.3c0.2-5.8,4.5-9.7,10.8-10.3c1.6-0.2,3.3-0.1,4.9-0.1c29.1,0,58.2,0,87.2,0c2,0,3.9,0,7,0
				c-1.5-1.6-2.1-2.4-3-3.1c-17.1-13.7-25.9-31.4-25.7-53.4c0-7.3,0.9-14.5,3.5-21.4c4.2-11.3,12.4-18.1,24.2-20.4
				c4.2-0.8,8.6-0.9,13-1.2c1.8-0.1,3.6,0,6.5,0c-2.1-1.5-3.1-2.4-4.3-3.1c-11.5-7.7-16.6-18.9-17.5-32.2c-0.3-3.9,0.2-8,0.7-11.9
				c0.5-3.8,1.5-4.5,5.2-4.9c11.4-1.1,21.6,2,30.2,9.7c8.9,7.9,13.9,18,15.6,29.7c0.1,0.7,0.2,1.4,0.4,2.1c0,0.1,0.2,0.3,0.4,0.5
				c1.6-1.2,3.2-2.4,4.7-3.6l4.1,4.3c-0.4,0.2-0.7,0.5-1,0.8c-4.1,3.3-7.3,7.3-9.4,12.6c2.4,0.6,4.2-0.5,6-1
				c10.8-3.2,21.7-3.9,32.8-1.8c12.8,2.4,21.5,9.7,25.2,22.1c6.6,21.9,3.2,42.3-10.4,60.9c-4.1,5.6-9.1,10.3-15.2,14.5
				c1.7,1.4,3.3,0.9,4.7,1c14,0,28-0.1,42,0C1469.8,320.5,1477,322,1483.8,325.4z M1438.1,265.2c0.1-4.1-0.3-8.4-1.1-12.4
				c-3-16.4-11.2-23.5-25.7-25.2c-9-1-18.1-0.6-26.9,2.5c-7.5,2.7-15.1,3.1-22.8,0.4c-7.8-2.8-15.9-3.8-24.1-3.1
				c-4.1,0.4-8.3,1.1-12.2,2.2c-6.2,1.8-10.6,6.1-13.6,11.8c-3.6,6.9-5.4,13.9-5,21.6c0,3.6,0.4,6.4,0.8,9.2
				c2.5,17.3,10.7,31.5,25.1,41.6c7.5,5.3,15.9,7.9,25.2,5.3c3.7-1,7.3-2,10.8-3.4c2.7-1,5.1-1.4,7.8,0.1c2.2,1.2,4.7,1.9,7.1,2.6
				c6.7,1.9,13.4,2.4,20.3-0.1c7.1-2.6,12.5-7.2,17.6-12.4C1432.4,294.5,1437.8,280.9,1438.1,265.2z M1371.9,215.9
				c1-10.7-2.4-20.1-9-28.3c-5.6-7-12.8-12-22-12.6c-10.2-0.7-8.5-0.7-8.8,7.9c0,8,1.5,13.9,4.8,19.3c6.9,11.3,17.5,16.4,30.2,17.8
				C1371.6,220.5,1371.5,220.4,1371.9,215.9z"/>
			<path class="st21" d="M1501.9,357.2c1.3,5.9,1.3,11.6,0.3,16.9c-1.5,7.3-5.3,14.1-11.2,20.1c-6.7,6.7-15,10.1-24.3,11.1
				c-5.3,0.6-5.6,0.2-5.6-5c0-4.6,0-4.8,4.5-5.3c7.5-0.9,13.9-3.7,19.1-9.3c6.2-6.6,8.6-14.8,7.7-22.7c-1-9.5-6.9-18.4-16.6-23
				c-5.2-2.5-10.7-3.2-16.4-3.2c-62.3,0-124.7,0-187,0c-12.7,0-25.4,0-38.2,0c-1.3,0-2.5,0.1-3.8,0c-3-0.3-4.9-2.2-5-4.7
				c0-2.8,2-5,5.1-5.3c1.3-0.1,2.5-0.1,3.8-0.1c38.3,0,76.7,0,115,0c37.6,0,75.2,0.3,112.9-0.1
				C1479.8,326.2,1497.8,337.9,1501.9,357.2z"/>
			<path d="M1501.3,223.6c0,7.3-5.3,12.6-12.7,12.7c-7.7,0.4-12.8-5.7-12.9-12.4c-0.1-7.4,6.3-13,12.7-12.8
				C1495.8,211.2,1501.3,216.4,1501.3,223.6z M1488.4,230.6c3.7,0,6.8-3.2,6.7-7c-0.1-4-3.1-7-6.8-6.9c-3.7,0.2-6.8,3.5-6.5,7.3
				C1482,227.6,1485,230.6,1488.4,230.6z"/>
			<path class="st2" d="M1495.1,223.7c0.1,3.8-3,7-6.7,7c-3.4,0-6.4-3-6.6-6.6c-0.2-3.7,2.8-7.1,6.5-7.3
				C1492.1,216.7,1495.1,219.7,1495.1,223.7z"/>
			<path d="M1492.4,362.9l-5.9,0.6c-0.5-4.7-2.6-9.1-6.3-13.1c-5.3-5.8-12.1-7.6-19.6-7.6c-71.8,0.1-143.5,0-215.3,0
				c-1.8,0-3.5,0-5.7,0c3.2,8,4.7,15.9,4.6,23.7l-5.5-0.2c0-1.5-0.1-3.1-0.3-4.6c-0.4-3.6-1-7.2-2.1-10.6c-1.3-4-3.2-7.3-8.1-8.6
				c-5.6-1.4-8.3-5-8.5-10.4l5.7-0.2c0.1,2.6,2,4.5,5,4.7c1.3,0.1,2.5,0,3.8,0c12.7,0,25.4,0,38.2,0c62.3,0,124.7,0,187,0
				c5.7,0,11.2,0.7,16.4,3.2C1485.6,344.5,1491.4,353.4,1492.4,362.9z"/>
			<path class="st15" d="M1481.9,430.1c4.8,7.8,6.9,16.4,6.1,24.8c-0.7,7.7-3.6,15.2-8.8,22c-7.2,9.2-19.2,15.1-31.6,15.1
				c-2.5,0-5-0.2-7.5-0.8c6.5-4.6,11.7-9.8,15.4-15.8c4.2-6.8,6.5-14.6,6.5-23.5c0-16.9-7.6-29.8-21.5-39.6
				C1457.9,408.5,1473.8,417,1481.9,430.1z"/>
			<path class="st15" d="M1486.5,363.5c0.4,3.5-0.2,7.2-1.8,11c-3.7,8.9-10.7,13.4-20.2,14.4c-2.9,0.3-3.5-0.3-3.6-3.3
				c-0.1-4.5,0-9.1,0-13.6c0-1.9,0.5-3.2,2.7-3.1c0.9,0,3,0,3.6-0.5c0.9-0.7,1.1-1.8,1-2.7c-0.1-0.9-0.2-2.1-2.4-2.5
				c-1-0.2-2.1-0.2-3.2-0.2c-13.3,0-26.5,0-39.8,0c-2.4,0-5.7-0.5-5.9,2.6c-0.2,2.7,2.1,3.3,5.1,3.4c1.6,0.3,2.2,1,2.2,2.5
				c0,5.1,0,10.2,0,15.3c0,1.5-0.8,2.3-2.4,2.3c-1.3,0-2.5,0-3.8,0c-57.6,0-115.2,0-172.8,0c-1.8,0-3.5-0.1-5.7-0.2
				c2.9-7.4,4.5-14.8,4.5-22.2c0.1-7.8-1.4-15.7-4.6-23.7c2.2,0,4,0,5.7,0c71.8,0,143.5,0,215.3,0c7.6,0,14.4,1.8,19.6,7.6
				C1483.9,354.4,1486.1,358.8,1486.5,363.5z"/>
			<path d="M1450.4,472.4l5,2.9c-3.7,6-8.9,11.3-15.4,15.8c2.5,0.5,5,0.8,7.5,0.8v5.8c-13.1,0-26.2,0-39.3,0
				c-37.4,0-74.9,0.1-112.3,0.1c-36.2,0-72.3-0.1-108.5-0.1c-1.4,0-3,0.2-4.3-0.2c-1-0.3-2.4-1.3-2.6-2.3c-0.5-1.6,0.8-2.7,2.3-3.1
				c1-0.3,2.2-0.3,3.2-0.4c1.6-0.1,3.3,0,4.9,0c3.1-0.1,3.1-0.2,3.1-3c0.1-8.6,1.6-10.7,10.2-13.6c2.4-0.8,4.1-2.5,5-4.7
				c1.2-2.8,2.4-5.7,2.8-8.8c1.2-7.6,1.4-15.1-0.4-22.5l5.5-1.3c3.1,12.3,2,24.6-3.4,37.4c2.1,0,3.5,0,4.9,0c28,0,56,0,83.9,0
				c0.7,0,1.5-0.1,2.2,0c2.4,0.2,3.4-1,3.4-3.2c0.1-4.4,0-8.7,0.1-13.1c0-2.6-0.2-4.7-3.6-5c-0.6-0.1-1.5-1.5-1.6-2.4
				c-0.2-1.4,0.7-2.5,2.2-2.6c11.1,0,22.1-0.1,33.2,0.1c0.8,0,1.9,1.1,2.2,1.9c0.6,1.3-0.3,2.8-1.6,2.9c-3.8,0.2-3.6,2.7-3.6,5.4
				c0.1,2.4,0,4.7,0,7.1c0,7.6,0.3,9.5,5.2,9.2l0.2,5.5c-0.9,0.1-1.8,0.1-2.7,0.2c-2.6,0.3-2.6,0.3-2.6,4.8c0,5,0,5.5,2.5,5.4
				c4.7-0.1,9.5,0.1,14.1-0.8c21.4-4.6,35.2-26.4,30.5-47.9l5.5-1c3.9,17.7-2.8,37-20.4,49.6c1.2,0.1,2.1,0.3,2.9,0.3
				c14.5,0,29,0,43.6-0.1c3.3,0,6.6,0.2,9.8-0.5C1436,488.3,1445,481.4,1450.4,472.4z M1329.4,483.8c0-9.3,0-17.8,0-26.3
				c0-1.5-0.8-2.3-2.4-2.3c-3.3,0-6.5-0.1-9.8,0c-3.1,0.1-3.2,0.2-3.3,3.6c-0.1,6.7,0,13.4,0,20.2c0,1.4,0.2,2.8,0.3,4.7
				c1.5-1.2,2.6-2.1,3.8-3c4-3.1,4.1-3.1,7.8,0.2C1326.7,481.6,1327.6,482.4,1329.4,483.8z M1327.2,491.4c0.1-0.3,0.1-0.6,0.2-0.9
				c-0.4-0.3-0.8-0.6-1.2-1c-4.6-4.2-4.6-4.2-9.1,0.4c-0.3,0.3-0.3,0.8-0.6,1.6C1320.2,491.4,1323.7,491.4,1327.2,491.4z
				 M1307.6,486.2c0.1-1.7,1.1-4.3-2-4.8c-0.9-0.1-1.8-0.1-2.7-0.1c-32,0-64,0-95.9,0c-1.1,0-2.2,0-3.3,0.2
				c-2.4,0.5-4.3,2.8-4.2,5.1c0.1,2.5,2.1,4.7,4.8,4.9c2.2,0.2,4.3,0.2,6.5,0.2c14.5,0,29.1,0,43.6,0c15.6,0,31.2,0,46.9,0
				c1.5,0,2.9,0.2,4.3-0.1C1309,490.9,1307.4,488,1307.6,486.2z"/>
			<path class="st2" d="M1454.8,371.3c0,8.8,0,17.7,0,27.7c-3.3-2.1-5.6-3.4-7.8-5c-2.8-2-5.4-2.4-8.4,0c-2.2,1.8-4.9,3-7.8,4.7
				c-0.2-1.7-0.4-2.9-0.4-4.1c0-7.2-0.1-14.5,0-21.7c0-3.8,0.1-3.8,4-3.9c5.8-0.1,11.6,0,17.4,0
				C1453.5,369.1,1454.8,369.3,1454.8,371.3z"/>
			<path class="st16" d="M1453.6,437.4c4.4,12.2,2.9,24.9-3.2,35c-5.4,9-14.5,15.9-26.4,18.7c-3.1,0.7-6.5,0.5-9.8,0.5
				c-14.5,0.1-29,0.1-43.6,0.1c-0.8,0-1.7-0.2-2.9-0.3c17.6-12.5,24.2-31.8,20.4-49.6c-2.5-11.6-9.5-22.4-21-30.3c2.7,0,4.4,0,6.1,0
				c14.5,0,29,0.3,43.6-0.1C1432.1,411,1448.2,422.1,1453.6,437.4z"/>
			<path class="st21" d="M1451.6,404.2c0,0.3-0.1,0.6-0.1,0.9c-5.7,0-11.4,0-17.7,0c2.3-2.8,5.1-4,7.6-5.6c0.7-0.4,2.1-0.2,2.9,0.2
				C1446.8,401.1,1449.2,402.7,1451.6,404.2z"/>
			<path class="st16" d="M1437,252.7c0.7,4.1,1.1,8.3,1.1,12.4c-0.3,15.7-5.7,29.4-16.6,40.8c-5.1,5.3-10.5,9.9-17.6,12.4
				c-6.9,2.5-13.5,2-20.3,0.1c-2.4-0.7-4.9-1.5-7.1-2.6c-2.7-1.4-5.1-1.1-7.8-0.1c-3.5,1.4-7.2,2.4-10.8,3.4
				c-9.3,2.7-17.7,0-25.2-5.3c-14.4-10.1-22.6-24.2-25.1-41.6c-0.4-2.8-0.8-5.6-0.8-9.2c-0.3-7.7,1.4-14.7,5-21.6
				c3-5.7,7.4-10,13.6-11.8c4-1.1,8.1-1.9,12.2-2.2c8.2-0.7,16.3,0.2,24.1,3.1c7.7,2.8,15.3,2.3,22.8-0.4c8.8-3.1,17.9-3.6,26.9-2.5
				C1425.9,229.3,1434,236.3,1437,252.7z"/>
			<path class="st21" d="M1417.6,395.1c7.1,0,6.6-1,6.6,6.8c0,3.2-0.2,3.2-3.5,3.4c-1.3,0.1-2.5,0-3.8,0c-30.3,0-60.7,0-91,0
				c-30.3,0-60.7,0-91,0c-1.6,0-3.3,0.1-4.9-0.2c-2.7-0.5-4.6-3-4.4-5.4c0.1-2.6,2-4.3,5.1-4.6c1.4-0.1,2.9-0.1,4.4-0.1
				C1295.9,395.1,1356.8,395.1,1417.6,395.1z"/>
			<path d="M1397.4,203c0.7,1.9-0.5,2.9-2.1,3.8c-2.6,1.5-5.3,2.9-7.7,4.7l-4.1-4.3c1.6-1.2,3.2-2.3,4.8-3.5c1.5-1,3.2-1.8,4.9-2.3
				C1394.9,201,1396.7,201,1397.4,203z"/>
			<path class="st16" d="M1382.7,442.8c4.7,21.5-9.1,43.3-30.5,47.9c-4.5,1-9.4,0.8-14.1,0.8c-2.5,0-2.5-0.4-2.5-5.4
				c0-4.5,0-4.5,2.6-4.8c0.9-0.1,1.8-0.2,2.7-0.2c2.7-0.2,5.4-0.3,8.1-0.8c13.4-2.4,23.3-14.4,23.7-28c0.4-12.8-8.7-26.3-23.4-29.5
				c-3.5-0.8-7.2-1-10.8-1c-43.1-0.1-86.1,0-129.2,0c-1.8,0-3.6,0.1-5.4-0.2c-2.6-0.3-4.7-2.8-4.5-5.2c0.1-2.3,2-4.5,4.4-4.8
				c1.6-0.2,3.3-0.1,4.9-0.1c22.7,0,45.4,0,68.1,0c0,0,0,0.1,0,0.1c22.5,0,45,0,67.6,0C1362.6,411.6,1378.8,425.1,1382.7,442.8z"/>
			<path d="M1349.4,422.9c14.7,3.2,23.8,16.7,23.4,29.5c-0.5,13.6-10.3,25.6-23.7,28c-2.7,0.5-5.4,0.6-8.1,0.8l-0.2-5.5
				c1.3-0.1,2.9-0.3,4.8-0.5c1.3-0.2,2.5-0.6,3.7-0.9c9.3-2.6,15.1-8.8,16.9-18.1c1.8-9.4-1.3-17.6-9.2-23.5
				c-4.7-3.4-10-4.8-15.8-4.8c-40.7,0-81.4,0-122.1,0c-1.6,0-3.2,0.2-5.1,0.3c1.4,3.2,2.5,6.4,3.3,9.7l-5.5,1.3
				c-0.3-1.3-0.7-2.5-1.2-3.8c-1.4-3.9-3.5-6.8-8.1-7.8c-5.6-1.2-8.6-5.8-8.4-11.3l5.6,0.2c-0.1,2.4,1.9,4.9,4.5,5.2
				c1.8,0.2,3.6,0.2,5.4,0.2c43.1,0,86.1,0,129.2,0C1342.2,421.8,1345.9,422.1,1349.4,422.9z"/>
			<path class="st20" d="M1363,187.6c6.6,8.2,10,17.6,9,28.3c-0.4,4.5-0.4,4.6-4.8,4.1c-12.7-1.5-23.3-6.6-30.2-17.8
				c-3.3-5.4-4.7-11.3-4.8-19.3c0.3-8.6-1.4-8.7,8.8-7.9C1350.2,175.6,1357.3,180.5,1363,187.6z"/>
			<path class="st15" d="M1357,432.6c8,5.8,11.1,14,9.2,23.5c-1.8,9.2-7.6,15.5-16.9,18.1c-1.2,0.4-2.4,0.7-3.7,0.9
				c-2,0.3-3.6,0.5-4.8,0.5c-4.9,0.3-5.2-1.6-5.2-9.2c0-2.4,0.1-4.7,0-7.1c-0.1-2.6-0.2-5.1,3.6-5.4c1.4-0.1,2.2-1.5,1.6-2.9
				c-0.3-0.8-1.4-1.9-2.2-1.9c-11.1-0.1-22.1-0.1-33.2-0.1c-1.5,0-2.4,1.2-2.2,2.6c0.1,0.9,1,2.3,1.6,2.4c3.3,0.3,3.6,2.4,3.6,5
				c-0.1,4.3,0,8.7-0.1,13.1c0,2.1-1,3.4-3.4,3.2c-0.7-0.1-1.4,0-2.2,0c-28,0-56,0-83.9,0c-1.4,0-2.8,0-4.9,0
				c5.4-12.8,6.5-25.1,3.4-37.4c-0.8-3.2-1.9-6.4-3.3-9.7c1.9-0.1,3.5-0.3,5.1-0.3c40.7,0,81.4,0,122.1,0
				C1346.9,427.8,1352.3,429.2,1357,432.6z M1311.1,443c0.9-0.2,2.3-1.6,2.3-2.4c0-0.8-1.4-2.4-2.2-2.4c-3.4-0.3-6.9-0.2-10.3-0.1
				c-1.5,0.1-2.3,1.3-1.9,2.7c0.2,0.9,1.1,2,1.9,2.2c1.6,0.4,3.2,0.1,4.9,0.1c0,0,0,0,0,0C1307.5,443.2,1309.4,443.4,1311.1,443z
				 M1292.1,462.7c3.1,0,5-1.4,5-3.1c-0.1-1.7-2-2.9-5.1-2.9c-7.1,0-14.1,0-21.2,0c-7.3,0-14.5,0-21.8,0c-3.7,0-4.8,0.8-4.8,3
				c0,2,1.4,3,4.9,3C1263.5,462.7,1277.8,462.7,1292.1,462.7z M1294.8,440.9c0.3-1.5-1-2.8-3.1-2.9c-4.3-0.1-8.7-0.1-13,0
				c-1.6,0-2.8,0.8-2.8,2.6c0,1.8,1.1,2.6,2.8,2.6c2.2,0,4.3,0,6.5,0v0c2.2,0,4.3,0,6.5,0C1293.3,443.3,1294.4,442.5,1294.8,440.9z"
				/>
			<path class="st2" d="M1329.4,457.5c0,8.5,0,17,0,26.3c-1.7-1.4-2.7-2.2-3.6-3c-3.7-3.2-3.8-3.2-7.8-0.2c-1.1,0.9-2.2,1.8-3.8,3
				c-0.1-1.9-0.3-3.3-0.3-4.7c0-6.7-0.1-13.4,0-20.2c0-3.3,0.2-3.5,3.3-3.6c3.3-0.1,6.5,0,9.8,0
				C1328.5,455.2,1329.4,456,1329.4,457.5z"/>
			<path class="st16" d="M1327.4,490.5c-0.1,0.3-0.1,0.6-0.2,0.9c-3.5,0-7,0-10.7,0c0.3-0.7,0.3-1.3,0.6-1.6
				c4.4-4.6,4.4-4.6,9.1-0.4C1326.5,489.8,1327,490.2,1327.4,490.5z"/>
			<path d="M1313.4,440.6c0,0.8-1.3,2.2-2.3,2.4c-1.7,0.4-3.6,0.1-5.4,0.1c0,0,0,0,0,0c-1.6,0-3.3,0.3-4.9-0.1
				c-0.8-0.2-1.7-1.3-1.9-2.2c-0.4-1.4,0.5-2.6,1.9-2.7c3.4-0.2,6.9-0.2,10.3,0.1C1312,438.3,1313.4,439.8,1313.4,440.6z"/>
			<path class="st16" d="M1305.6,481.4c3.1,0.5,2.1,3.1,2,4.8c-0.1,1.9,1.4,4.7-1.9,5.4c-1.4,0.3-2.9,0.1-4.3,0.1
				c-15.6,0-31.2,0-46.9,0c-14.5,0-29.1,0-43.6,0c-2.2,0-4.4,0-6.5-0.2c-2.8-0.3-4.8-2.4-4.8-4.9c0-2.2,1.9-4.5,4.2-5.1
				c1.1-0.2,2.2-0.2,3.3-0.2c32,0,64,0,95.9,0C1303.8,481.3,1304.7,481.2,1305.6,481.4z"/>
			<path d="M1297.1,459.6c0.1,1.7-1.9,3.1-5,3.1c-14.3,0-28.6,0-43,0c-3.5,0-4.8-1-4.9-3c0-2.2,1.1-2.9,4.8-3c7.3-0.1,14.5,0,21.8,0
				c7.1,0,14.1,0,21.2,0C1295.1,456.7,1297,457.9,1297.1,459.6z"/>
			<path d="M1291.7,438c2.1,0,3.4,1.4,3.1,2.9c-0.3,1.6-1.5,2.4-3.1,2.4c-2.2,0-4.3,0-6.5,0v0c-2.2,0-4.3,0-6.5,0
				c-1.7,0-2.8-0.8-2.8-2.6c0-1.8,1.1-2.6,2.8-2.6C1283,438,1287.3,437.9,1291.7,438z"/>
			<path d="M1222,367.9c0.1,11-8.6,19.7-19.6,19.7c-10.3,0.7-19.5-9.2-19.5-19.2c0-12.8,11-20,19.6-19.9
				C1213.1,348.8,1221.9,357.3,1222,367.9z M1215.8,368.4c0.1-7.7-5.5-13.3-13.1-13.7c-7.7-0.4-13.8,5.9-14.1,13.5
				c-0.2,7.1,6.5,13.5,13.7,13.6C1209.6,382.1,1215.7,375.9,1215.8,368.4z"/>
			<path class="st2" d="M1202.7,354.8c7.6,0.4,13.2,6,13.1,13.7c-0.1,7.5-6.3,13.6-13.5,13.5c-7.2-0.2-13.8-6.6-13.7-13.6
				C1188.9,360.7,1195.1,354.4,1202.7,354.8z"/>
		</g>
		<g>
			<line class="st28" x1="1354.4" y1="355.3" x2="1364.4" y2="355.3"/>
			<line class="st28" x1="1272.9" y1="355.3" x2="1343.2" y2="355.3"/>
			<path class="st28" d="M1317.8,251.7c0,0,2.4-12.9,17.2-13.8"/>
			<path class="st28" d="M1315.3,263c0,0-0.4,2,0.4,4.9"/>
			<line class="st28" x1="1396.5" y1="422.5" x2="1424.2" y2="422.5"/>
		</g>
	</g>
</g>
</svg>
