<?xml version="1.0" encoding="utf-8"?>
<!-- Generator: Adobe Illustrator 27.9.0, SVG Export Plug-In . SVG Version: 6.00 Build 0)  -->
<svg version="1.1" id="Layer_1" xmlns="http://www.w3.org/2000/svg" xmlns:xlink="http://www.w3.org/1999/xlink" x="0px" y="0px"
	 viewBox="0 0 194.8 190.22" style="enable-background:new 0 0 194.8 190.22;" xml:space="preserve">
<style type="text/css">
	.st0{fill:#D35656;}
	.st1{fill:#5C90CC;}
	.st2{fill:#FFD25B;}
	.st3{fill:#FFF1EC;}
	.st4{fill:#9BBD72;}
	.st5{fill:none;stroke:#000000;stroke-width:8.7206;stroke-linecap:round;stroke-miterlimit:10;}
	.st6{fill:#F9C2D3;}
	.st7{fill:none;stroke:#000000;stroke-width:3;stroke-linecap:round;stroke-miterlimit:10;}
	.st8{fill:#FFD25B;stroke:#FFD25B;stroke-miterlimit:10;}
	.st9{fill:#EF7834;}
	.st10{fill:#23324D;}
	.st11{fill:none;stroke:#000000;stroke-width:3.5;stroke-linecap:round;stroke-miterlimit:10;}
	.st12{fill:none;}
	.st13{fill:none;stroke:#000000;stroke-width:3.1817;stroke-linecap:round;stroke-miterlimit:10;}
	.st14{fill:none;stroke:#000000;stroke-width:4;stroke-linecap:round;stroke-miterlimit:10;}
	.st15{fill:none;stroke:#000000;stroke-width:9;stroke-miterlimit:10;}
	.st16{fill:none;stroke:#000000;stroke-width:5;stroke-linecap:round;stroke-miterlimit:10;}
	.st17{fill:none;stroke:#000000;stroke-width:5.9898;stroke-miterlimit:10;}
	.st18{fill:none;stroke:#000000;stroke-width:5.9898;stroke-linecap:round;stroke-miterlimit:10;}
	.st19{fill:#F7941D;}
	.st20{fill:none;stroke:#000000;stroke-width:3;stroke-miterlimit:10;}
	.st21{fill:none;stroke:#000000;stroke-width:3.0176;stroke-linecap:round;stroke-miterlimit:10;}
	.st22{fill:none;stroke:#000000;stroke-width:2.2105;stroke-linecap:round;stroke-miterlimit:10;}
	.st23{fill:none;stroke:#000000;stroke-width:3.5;stroke-miterlimit:10;}
	.st24{fill:none;stroke:#000000;stroke-width:4;stroke-miterlimit:10;}
	.st25{fill:none;stroke:#000000;stroke-width:4.3732;stroke-linecap:round;stroke-miterlimit:10;}
	.st26{fill:none;stroke:#000000;stroke-width:0.5467;stroke-linecap:round;stroke-miterlimit:10;}
	.st27{fill:none;stroke:#000000;stroke-width:2.9155;stroke-linecap:round;stroke-miterlimit:10;}
	.st28{fill:none;stroke:#000000;stroke-width:3.6444;stroke-linecap:round;stroke-miterlimit:10;}
	.st29{fill:none;stroke:#000000;stroke-width:0.1822;stroke-linecap:round;stroke-miterlimit:10;}
	.st30{fill:none;stroke:#000000;stroke-linecap:round;stroke-miterlimit:10;}
	.st31{fill:none;stroke:#000000;stroke-width:8.6374;stroke-linecap:round;stroke-miterlimit:10;}
	.st32{fill:none;stroke:#000000;stroke-width:8.6374;stroke-miterlimit:10;}
	.st33{fill:none;stroke:#000000;stroke-width:8.6879;stroke-linecap:round;stroke-miterlimit:10;}
	.st34{fill:none;stroke:#000000;stroke-width:6.3642;stroke-linecap:round;stroke-miterlimit:10;}
</style>
<g id="AHWUqK_00000027571408699607242840000003832464337217687693_">
	<g>
		<g>
			<path class="st3" d="M178.17,97.89c0,45.67-37.05,82.7-82.72,82.68c-45.67-0.02-82.67-37.06-82.65-82.74
				c0.02-45.67,37.08-82.67,82.77-82.63C141.2,15.25,178.17,52.26,178.17,97.89z M74.55,108.19c-0.48,0-0.85,0-1.22,0
				c-3.2,0-6.41-0.03-9.61,0.02c-0.89,0.01-1.09-0.29-1.08-1.12c0.03-6.1,0.02-12.2,0.02-18.29c0-0.33,0.03-0.66,0.06-1.12
				c4.01,0,7.92,0,11.88,0c0-4.51-0.03-8.88,0.01-13.25c0.03-3.69,0.35-7.36,1.24-10.96c1.72-6.93,5.51-12.16,12.31-14.9
				c3.76-1.51,7.71-2.06,11.72-2.16c4.48-0.1,8.96-0.03,13.44-0.02c0.3,0,0.6,0.04,0.92,0.07c0.03,0.2,0.07,0.33,0.07,0.46
				c0,6.37,0,12.75,0.02,19.12c0,0.76-0.36,0.82-0.95,0.82c-3.69-0.01-7.37,0-11.06,0c-1.77,0-3.19,0.77-4.31,2.09
				c-1.5,1.77-2.03,3.88-2.04,6.14c-0.02,3.86-0.01,7.72,0,11.58c0,0.33,0.04,0.66,0.07,1.08c6.12,0,12.14,0,18.22,0
				c-0.04,0.37-0.05,0.64-0.09,0.9c-0.91,6.16-1.84,12.32-2.71,18.49c-0.12,0.84-0.4,1.07-1.22,1.06
				c-4.34-0.04-8.68-0.02-13.02-0.01c-0.4,0-0.79,0.04-1.17,0.06c0,20.73,0,41.34,0,61.95c34.64,0.52,68.96-26.58,71.9-67.04
				c2.91-39.97-27.05-74.2-66.4-77.3c-40.32-3.18-75.09,27.1-77.9,66.96c-2.63,37.31,23.12,66.01,50.91,73.82
				C74.55,147.21,74.55,127.78,74.55,108.19z"/>
		</g>
	</g>
</g>
</svg>
