<?xml version="1.0" encoding="utf-8"?>
<!-- Generator: Adobe Illustrator 27.8.1, SVG Export Plug-In . SVG Version: 6.00 Build 0)  -->
<svg version="1.1" id="Layer_1" xmlns="http://www.w3.org/2000/svg" xmlns:xlink="http://www.w3.org/1999/xlink" x="0px" y="0px"
	 viewBox="0 0 612 792" style="enable-background:new 0 0 612 792;" xml:space="preserve">
<style type="text/css">
	.st0{fill:#FFF1EC;}
	.st1{fill:#D35656;}
	.st2{fill:none;stroke:#000000;stroke-width:9;stroke-miterlimit:10;}
</style>
<g>
	<g id="XMLID_00000183207138153225924830000011642148156853674174_">
		<g>
			<path class="st0" d="M392.23,393.94l1.04,0.45c38.61-2.46,70.84-21.79,90.32-26.67c0,0,21.49-6.9,35.63,10.78
				c2.87,3.62,2.01,8.95-1.68,11.71c-22.72,16.94-101.66,74.65-129.08,78.79c-32.12,4.85-126.13,3.62-126.13,3.62
				s-22.12-1.42-42.45,21.12l-59.8-91.55h0.04c6.12-10.82,55.03-65.21,90.84-64.13c30.33,0.93,37.46,9.96,54.73,16.94
				c17.31,6.98,32.9,2.5,58.98,6.16C386.33,364.21,397.94,381.37,392.23,393.94z"/>
			<path class="st1" d="M415.51,220.81c9.21,9.4,10.37,23.91,3.99,35.4c-4.48,8.1-12.76,19.55-27.94,33.28
				c-7.31,6.6-16.19,13.69-27.01,21.23c-2.39,1.64-5.52,1.72-7.98,0.15c-12.01-7.57-21.6-14.74-29.29-21.38
				c-29.66-25.63-30.74-37.01-30.74-45.85c0-0.19,0-0.3,0-0.3c0-17.72,14.36-32.05,32.05-32.05c8.88,0,16.86,3.58,22.68,9.36
				c3.95,3.99,6.9,9.03,8.36,14.66c0.26,1.04,1.75,1.04,2.01,0c3.54-13.84,16.12-24.03,31.04-24.03c8.88,0,16.86,3.58,22.68,9.36
				C415.4,220.7,415.47,220.77,415.51,220.81z"/>
		</g>
		<g>
			<path class="st2" d="M415.51,220.81c9.21,9.4,10.37,23.91,3.99,35.4c-4.48,8.1-12.76,19.55-27.94,33.28
				c-7.31,6.6-16.19,13.69-27.01,21.23c-2.39,1.64-5.52,1.72-7.98,0.15c-12.01-7.57-21.6-14.74-29.29-21.38
				c-29.66-25.63-30.74-37.01-30.74-45.85c0-0.19,0-0.3,0-0.3c0-17.72,14.36-32.05,32.05-32.05c8.88,0,16.86,3.58,22.68,9.36
				c3.95,3.99,6.9,9.03,8.36,14.66c0.26,1.04,1.75,1.04,2.01,0c3.54-13.84,16.12-24.03,31.04-24.03c8.88,0,16.86,3.58,22.68,9.36
				C415.4,220.7,415.47,220.77,415.51,220.81z"/>
			<line class="st2" x1="140.41" y1="415.25" x2="150.64" y2="430.5"/>
			<path class="st2" d="M197.34,538.84l32.72-21.19c2.13-1.34,2.72-4.18,1.34-6.27l-11.53-17.65l-59.8-91.55l-10.26-15.71
				c-1.04-1.64-3.17-2.13-4.85-1.08l-32.9,20.18"/>
			<path class="st2" d="M393.27,394.39c38.61-2.46,70.84-21.79,90.32-26.67c0,0,21.49-6.9,35.63,10.78
				c2.87,3.62,2.01,8.95-1.68,11.71c-22.72,16.94-101.66,74.65-129.08,78.79c-32.12,4.85-126.13,3.62-126.13,3.62
				s-22.12-1.42-42.45,21.12"/>
			<path class="st2" d="M309.34,410.14c0,0,65.77-0.56,77.22-9.29c2.65-2.01,4.51-4.36,5.67-6.9c5.71-12.57-5.89-29.73-27.57-32.79
				c-26.08-3.66-41.67,0.82-58.98-6.16c-17.27-6.98-24.4-16-54.73-16.94c-35.81-1.08-84.72,53.31-90.84,64.13"/>
		</g>
	</g>
</g>
</svg>
