<?xml version="1.0" encoding="utf-8"?>
<!-- Generator: Adobe Illustrator 27.9.0, SVG Export Plug-In . SVG Version: 6.00 Build 0)  -->
<svg version="1.1" id="Layer_1" xmlns="http://www.w3.org/2000/svg" xmlns:xlink="http://www.w3.org/1999/xlink" x="0px" y="0px"
	 viewBox="0 0 1728 724.6" style="enable-background:new 0 0 1728 724.6;" xml:space="preserve">
<style type="text/css">
	.st0{fill:#708EC2;}
	.st1{fill:#B7635E;}
	.st2{fill:#F8D36F;}
	.st3{fill:none;stroke:#F8D36F;stroke-width:10;stroke-linecap:round;stroke-miterlimit:10;}
	.st4{fill:none;stroke:#FDF1EB;stroke-width:10;stroke-miterlimit:10;}
	.st5{fill:#A7BC81;}
	.st6{fill:none;}
	.st7{fill:#FDF1EB;}
	.st8{fill:#FFD15B;stroke:#000000;stroke-miterlimit:10;}
	.st9{opacity:0.5;fill:#FDF1EB;enable-background:new    ;}
	.st10{fill:#FFD15B;stroke:#000000;stroke-width:1.0442;stroke-miterlimit:10;}
	.st11{fill:none;stroke:#FDF1EB;stroke-width:12;stroke-miterlimit:10;}
	.st12{fill:none;stroke:#FDF1EB;stroke-width:6.743;stroke-miterlimit:10;}
	.st13{fill:#FDF1EB;stroke:#FDF1EB;stroke-width:10;stroke-miterlimit:10;}
	.st14{fill:none;stroke:#FFD15B;stroke-width:12;stroke-miterlimit:10;}
	.st15{fill:#FBF1EC;}
	.st16{fill:#C45E5B;}
	.st17{fill:none;stroke:#221F20;stroke-width:9;stroke-miterlimit:10;}
</style>
<rect x="-19.8" y="-24.2" class="st13" width="1747.8" height="769.3"/>
<circle class="st0" cx="1510.6" cy="581.7" r="269.6"/>
<circle class="st5" cx="1264.2" cy="553.5" r="126.1"/>
<circle class="st14" cx="1437.1" cy="437.8" r="231.6"/>
<g>
	<g id="XMLID_00000183207138153225924830000011642148156853674174_">
		<g>
			<path class="st15" d="M1262.8,421.6l1,0.4c38.6-2.4,70.8-21.8,90.3-26.7c0,0,21.5-6.9,35.6,10.8c2.9,3.6,2,9-1.7,11.7
				c-22.7,16.9-101.7,74.6-129.1,78.8c-32.1,4.8-126.1,3.7-126.1,3.7s-22.1-1.5-42.5,21.1l-59.8-91.5c6.1-10.9,55-65.2,90.8-64.1
				c30.3,0.9,37.5,9.9,54.7,16.9c17.3,7,32.9,2.5,59,6.2C1256.9,391.9,1268.5,409.1,1262.8,421.6z"/>
			<path class="st16" d="M1286,248.5c9.2,9.4,10.4,23.9,4,35.4c-4.5,8.1-12.8,19.5-27.9,33.3c-7.3,6.6-16.2,13.7-27,21.2
				c-2.4,1.6-5.5,1.7-8,0.2c-12-7.6-21.6-14.8-29.3-21.4c-29.7-25.6-30.7-37-30.7-45.8c0-0.2,0-0.3,0-0.3c0-17.7,14.4-32,32-32
				c8.9,0,16.9,3.6,22.7,9.4c4,4,6.9,9,8.4,14.7c0.3,1,1.8,1,2,0c3.5-13.8,16.1-24,31-24c8.9,0,16.9,3.6,22.7,9.4
				C1285.9,248.4,1286,248.5,1286,248.5z"/>
		</g>
		<g>
			<path class="st17" d="M1286,248.5c9.2,9.4,10.4,23.9,4,35.4c-4.5,8.1-12.8,19.5-27.9,33.3c-7.3,6.6-16.2,13.7-27,21.2
				c-2.4,1.6-5.5,1.7-8,0.2c-12-7.6-21.6-14.8-29.3-21.4c-29.7-25.6-30.7-37-30.7-45.8c0-0.2,0-0.3,0-0.3c0-17.7,14.4-32,32-32
				c8.9,0,16.9,3.6,22.7,9.4c4,4,6.9,9,8.4,14.7c0.3,1,1.8,1,2,0c3.5-13.8,16.1-24,31-24c8.9,0,16.9,3.6,22.7,9.4
				C1285.9,248.4,1286,248.5,1286,248.5z"/>
			<line class="st17" x1="1010.9" y1="442.9" x2="1021.2" y2="458.2"/>
			<path class="st17" d="M1090.4,521.4l-59.8-91.5l-10.3-15.7c-1.1-1.6-3.2-2.1-4.8-1.1l-32.9,20.2"/>
			<path class="st17" d="M1067.9,566.6l32.7-21.2c2.1-1.4,2.7-4.2,1.3-6.3l-11.5-17.6"/>
			<path class="st17" d="M1263.8,422.1c38.6-2.4,70.8-21.8,90.3-26.7c0,0,21.5-6.9,35.6,10.8c2.9,3.6,2,9-1.7,11.7
				c-22.7,16.9-101.7,74.6-129.1,78.8c-32.1,4.8-126.1,3.7-126.1,3.7s-22.1-1.5-42.5,21.1v0"/>
			<path class="st17" d="M1179.9,437.8c0,0,65.8-0.5,77.2-9.3c2.6-2,4.5-4.4,5.7-6.9c5.7-12.6-5.9-29.8-27.6-32.8
				c-26.1-3.6-41.7,0.8-59-6.2c-17.3-7-24.4-16-54.7-16.9c-35.8-1.1-84.7,53.3-90.8,64.1"/>
		</g>
	</g>
</g>
</svg>
