<?xml version="1.0" encoding="utf-8"?>
<!-- Generator: Adobe Illustrator 27.9.0, SVG Export Plug-In . SVG Version: 6.00 Build 0)  -->
<svg version="1.1" id="Layer_1" xmlns="http://www.w3.org/2000/svg" xmlns:xlink="http://www.w3.org/1999/xlink" x="0px" y="0px"
	 viewBox="0 0 162.56 165.09" style="enable-background:new 0 0 162.56 165.09;" xml:space="preserve">
<style type="text/css">
	.st0{fill:#D35656;}
	.st1{fill:#5C90CC;}
	.st2{fill:#FFD25B;}
	.st3{fill:#FFF1EC;}
	.st4{fill:#9BBD72;}
	.st5{fill:none;stroke:#000000;stroke-width:8.7206;stroke-linecap:round;stroke-miterlimit:10;}
	.st6{fill:#F9C2D3;}
	.st7{fill:none;stroke:#000000;stroke-width:3;stroke-linecap:round;stroke-miterlimit:10;}
	.st8{fill:#FFD25B;stroke:#FFD25B;stroke-miterlimit:10;}
	.st9{fill:#EF7834;}
	.st10{fill:#23324D;}
	.st11{fill:none;stroke:#000000;stroke-width:3.5;stroke-linecap:round;stroke-miterlimit:10;}
	.st12{fill:none;}
	.st13{fill:none;stroke:#000000;stroke-width:3.1817;stroke-linecap:round;stroke-miterlimit:10;}
	.st14{fill:none;stroke:#000000;stroke-width:4;stroke-linecap:round;stroke-miterlimit:10;}
	.st15{fill:none;stroke:#000000;stroke-width:9;stroke-miterlimit:10;}
	.st16{fill:none;stroke:#000000;stroke-width:5;stroke-linecap:round;stroke-miterlimit:10;}
	.st17{fill:none;stroke:#000000;stroke-width:5.9898;stroke-miterlimit:10;}
	.st18{fill:none;stroke:#000000;stroke-width:5.9898;stroke-linecap:round;stroke-miterlimit:10;}
	.st19{fill:#F7941D;}
	.st20{fill:none;stroke:#000000;stroke-width:3;stroke-miterlimit:10;}
	.st21{fill:none;stroke:#000000;stroke-width:3.0176;stroke-linecap:round;stroke-miterlimit:10;}
	.st22{fill:none;stroke:#000000;stroke-width:2.2105;stroke-linecap:round;stroke-miterlimit:10;}
	.st23{fill:none;stroke:#000000;stroke-width:3.5;stroke-miterlimit:10;}
	.st24{fill:none;stroke:#000000;stroke-width:4;stroke-miterlimit:10;}
	.st25{fill:none;stroke:#000000;stroke-width:4.3732;stroke-linecap:round;stroke-miterlimit:10;}
	.st26{fill:none;stroke:#000000;stroke-width:0.5467;stroke-linecap:round;stroke-miterlimit:10;}
	.st27{fill:none;stroke:#000000;stroke-width:2.9155;stroke-linecap:round;stroke-miterlimit:10;}
	.st28{fill:none;stroke:#000000;stroke-width:3.6444;stroke-linecap:round;stroke-miterlimit:10;}
	.st29{fill:none;stroke:#000000;stroke-width:0.1822;stroke-linecap:round;stroke-miterlimit:10;}
	.st30{fill:none;stroke:#000000;stroke-linecap:round;stroke-miterlimit:10;}
	.st31{fill:none;stroke:#000000;stroke-width:8.6374;stroke-linecap:round;stroke-miterlimit:10;}
	.st32{fill:none;stroke:#000000;stroke-width:8.6374;stroke-miterlimit:10;}
	.st33{fill:none;stroke:#000000;stroke-width:8.6879;stroke-linecap:round;stroke-miterlimit:10;}
	.st34{fill:none;stroke:#000000;stroke-width:6.3642;stroke-linecap:round;stroke-miterlimit:10;}
</style>
<g id="hRvygQ_00000043424696284671298450000017558965579015518856_">
	<g>
		<g>
			<path class="st3" d="M13.55,87.93c0-8.16-0.08-16.32,0.03-24.47c0.07-5.56,0.52-11.09,2.21-16.44
				c4.15-13.13,13.02-21.24,26.35-24.36c3.68-0.86,7.51-1.31,11.29-1.41c11.12-0.28,22.25-0.35,33.38-0.38
				c7.14-0.01,14.28,0.1,21.41,0.35c7.6,0.27,14.98,1.7,21.6,5.71c7.85,4.77,12.94,11.68,15.5,20.49c1.54,5.3,2.04,10.75,2.08,16.23
				c0.11,14.45,0.2,28.9,0.15,43.35c-0.02,5.81-0.12,11.65-1.25,17.39c-2.82,14.25-10.88,23.9-24.88,28.31
				c-4.59,1.45-9.34,1.96-14.12,2.1c-6.32,0.18-12.65,0.42-18.97,0.4c-11.83-0.04-23.66-0.16-35.49-0.43
				c-6.56-0.15-12.98-1.31-18.94-4.26c-7.89-3.89-13.52-9.89-16.84-18.04c-2.15-5.28-3.13-10.8-3.28-16.46
				c-0.24-9.36-0.42-18.72-0.62-28.08C13.27,87.93,13.41,87.93,13.55,87.93z M135.75,86.26c-0.2-8.13-0.37-18.08-0.73-28.01
				c-0.16-4.37-1.17-8.63-3.29-12.5c-4-7.3-10.51-10.97-18.53-11.91c-5.23-0.61-10.53-0.83-15.8-0.9c-10.57-0.13-21.14-0.14-31.7,0
				c-5.97,0.08-11.98,0.21-17.89,0.93c-10.74,1.31-17.97,7.12-20.82,17.83c-1.25,4.7-1.43,9.53-1.44,14.33
				c-0.06,15.38-0.01,30.76,0.14,46.15c0.03,3.55,0.32,7.16,1.01,10.64c2.09,10.49,8.5,16.87,19.02,19.03
				c5.9,1.21,11.9,1.19,17.87,1.23c13.05,0.08,26.1-0.02,39.16-0.15c5-0.05,10.01-0.23,14.88-1.63c6.98-2.01,12.08-6.19,15-12.89
				c1.86-4.26,2.49-8.8,2.61-13.4C135.44,106.02,135.56,97.05,135.75,86.26z"/>
			<path class="st3" d="M80.6,122.46c-18.87,0.23-34.49-15.16-34.6-34.28c-0.11-19.1,15.13-34.06,33.33-34.63
				c19.36-0.61,35.3,14.56,35.64,33.83C115.33,107.1,99.39,122.53,80.6,122.46z M58.1,87.96c-0.22,11.7,9.41,22.53,22.73,22.5
				c12.05-0.03,22.05-10.22,22.08-22.47c0.03-12.04-9.63-22.27-22.11-22.41C67.54,65.43,57.94,76.27,58.1,87.96z"/>
			<path class="st3" d="M116.15,60.24c-4.53-0.09-7.98-3.65-7.92-8.19c0.06-4.37,3.77-7.98,8.13-7.92c4.51,0.07,8.08,3.77,7.98,8.3
				C124.24,56.84,120.59,60.32,116.15,60.24z"/>
		</g>
	</g>
</g>
</svg>
