<?xml version="1.0" encoding="utf-8"?>
<!-- Generator: Adobe Illustrator 27.9.0, SVG Export Plug-In . SVG Version: 6.00 Build 0)  -->
<svg version="1.1" id="Layer_1" xmlns="http://www.w3.org/2000/svg" xmlns:xlink="http://www.w3.org/1999/xlink" x="0px" y="0px"
	 viewBox="0 0 1728 724.6" style="enable-background:new 0 0 1728 724.6;" xml:space="preserve">
<style type="text/css">
	.st0{fill:#708EC2;}
	.st1{fill:#B7635E;}
	.st2{fill:#F8D36F;}
	.st3{fill:none;stroke:#F8D36F;stroke-width:10;stroke-linecap:round;stroke-miterlimit:10;}
	.st4{fill:none;stroke:#FDF1EB;stroke-width:10;stroke-miterlimit:10;}
	.st5{fill:#A7BC81;}
	.st6{fill:none;}
	.st7{fill:#FDF1EB;}
	.st8{fill:#FFD15B;stroke:#000000;stroke-miterlimit:10;}
	.st9{opacity:0.5;fill:#FDF1EB;enable-background:new    ;}
	.st10{fill:#FFD15B;stroke:#000000;stroke-width:1.0442;stroke-miterlimit:10;}
	.st11{fill:none;stroke:#FDF1EB;stroke-width:12;stroke-miterlimit:10;}
	.st12{fill:none;stroke:#FDF1EB;stroke-width:6.743;stroke-miterlimit:10;}
	.st13{fill:#FDF1EB;stroke:#FDF1EB;stroke-width:10;stroke-miterlimit:10;}
</style>
<rect x="893.5" y="-1074.5" class="st0" width="1728" height="662"/>
<circle class="st1" cx="2227.7" cy="-637.3" r="156.8"/>
<circle class="st2" cx="2025.1" cy="-908.6" r="57.1"/>
<path class="st3" d="M1679.7-525.1c0,0,41.7,43.4,64.4,10.2c15.7-22.9-11.1-85.4,36.4-88.6c29.1-2,87.5,16.7,124.8,12
	c49.8-6.2,73.1-52.8,73.1-62.4"/>
<circle class="st4" cx="1968" cy="-947.7" r="50.3"/>
<path class="st5" d="M2194.9-1074.5c-30.8,47.8-48.7,104.8-48.7,166c0,169.5,137.4,307,307,307c62.2,0,120-18.5,168.3-50.3v-422.7
	L2194.9-1074.5L2194.9-1074.5z"/>
<path class="st6" d="M2621.5-762.1c-42-34.2-94.1-52.8-149-52.8c-63.2,0-122.7,24.6-167.4,69.3c-44.7,44.8-69.4,104.2-69.4,167.5
	c0,62.4,24,121.1,67.6,165.6h318.2V-762.1L2621.5-762.1z"/>
<path class="st7" d="M2235.7-578.1c0-63.2,24.6-122.7,69.3-167.4c44.7-44.7,104.2-69.3,167.4-69.3c54.9,0,107,18.6,149,52.8v-13.2
	c-42.7-32.4-94.5-50-149-50c-66,0-128.1,25.7-174.7,72.4c-46.6,46.7-72.4,108.7-72.4,174.7c0,61.8,22.5,120.1,63.7,165.6h14.3
	C2259.7-457,2235.7-515.7,2235.7-578.1z"/>
<path class="st2" d="M1605.3-441c-31.7-23-67.2-38.9-105.5-47.2c-47.8-10.4-100.1-9-155.4,4.2c-104.3,24.9-181.4,15.1-235.6-29.8
	c-47.4-39.3-71.7-100.9-93.1-155.2c-1.9-4.8-3.8-9.5-5.6-14.2c-21.9-55-55.7-92.6-100.3-111.7c-5.4-2.3-10.8-4.3-16.2-5.9v10.5
	c4.1,1.4,8.3,2.9,12.4,4.7c42.1,18,74,53.7,94.9,106.2c1.9,4.7,3.7,9.4,5.6,14.1c21.9,55.5,46.7,118.3,96,159.3
	c56.8,47.1,136.7,57.5,244.3,31.9c53.7-12.8,104.4-14.2,150.7-4.2c36.9,8,71.2,23.2,101.7,45.3c9.3,6.8,17.8,13.7,25.3,20.7h14.6
	C1629.4-421.9,1618.2-431.7,1605.3-441z"/>
<rect x="2663.7" y="-320.9" class="st8" width="1737.6" height="685.2"/>
<circle class="st4" cx="2686" cy="300.6" r="175.9"/>
<path class="st4" d="M4037.5-237.4c0,0,16.3,142.8,190.5,131c174.2-11.8,250.5,142.2,250.5,142.2"/>
<circle class="st4" cx="4367.7" cy="-183.7" r="59.8"/>
<circle class="st4" cx="4231.8" cy="-239.2" r="26.2"/>
<circle class="st9" cx="2964.6" cy="2.9" r="121.9"/>
<circle class="st9" cx="3405.8" cy="2.9" r="121.9"/>
<circle class="st9" cx="3864.5" cy="2.9" r="121.9"/>
<rect x="2663.7" y="596.6" class="st10" width="1737.6" height="747.1"/>
<path class="st4" d="M4099.6,764.7c0,0,16.3,142.8,190.5,131c174.2-11.8,250.5,142.2,250.5,142.2"/>
<circle class="st11" cx="4183.3" cy="901.3" r="83.7"/>
<circle class="st4" cx="4274.2" cy="773.7" r="26.2"/>
<circle class="st12" cx="2847.4" cy="1087.5" r="17.7"/>
<circle class="st9" cx="2850.3" cy="866" r="101.3"/>
<circle class="st9" cx="3170.9" cy="1139.2" r="101.3"/>
<circle class="st9" cx="3583.7" cy="866" r="101.3"/>
<circle class="st9" cx="3947" cy="1139.2" r="101.3"/>
<path class="st4" d="M2894.9,1275c0,0-45.5-243.5-373.8-237"/>
<g id="JDku4t_00000029034768599303900260000013582595722926315913_">
	<g>
		<g>
			<path d="M4951.8-483.2c0.7,2.1,1.4,4,2,5.8c1.4,4.2,3.1,8.2,5.6,11.9c4.5,6.6,10.3,9.4,19.2,8c3.6-0.6,6.4-2.6,8.8-5.3
				c2.8-3.3,4.7-7.1,6.2-11c3-7.8,4.5-16,5.6-24.2c0.1-0.6,0-1.3,0-2.2c-1.4,0.6-2.6,1.2-3.8,1.7c-8.5,3.9-17.4,4.7-26.6,4
				c-6.2-0.5-12.2-1.9-17.9-4.3c-12.5-5.5-20.9-14.8-25.6-27.5c-3.3-8.8-4.2-18.1-3.8-27.5c0.4-8.7,1.8-17.2,5.3-25.2
				c7.8-18.2,21.6-29.4,40.9-33.5c12.6-2.7,25.1-2,37.4,2.3c14.1,5,24.3,14.4,31.5,27.3c6,10.9,9.2,22.6,10.6,34.8
				c1.2,10.1,1.4,20.3,0.8,30.4c-0.8,15.3-3.1,30.4-9,44.8c-4.5,11.1-10.6,21.1-19.6,29.1c-10.9,9.7-23.7,14.8-38.2,16
				c-8.5,0.7-17,0.4-25.3-1.5c-6.9-1.6-13.1-4.6-18.1-9.5c-7.6-7.3-10.9-16.3-9.4-26.7c1-6.5,4.7-11.4,10.8-14.4
				C4943.2-481.9,4947.5-482.4,4951.8-483.2z M5007.7-517.1c0.2,0.4,0.3,0.5,0.3,0.7c-0.4,10.4-1.2,20.7-3.4,31
				c-1.5,7.1-3.5,14-6.9,20.5c-2.5,4.8-5.7,9-10.3,11.9c-4.7,2.9-9.9,3.7-15.3,3.3c-6.7-0.5-12.1-3.3-16.4-8.3
				c-3.7-4.3-6.1-9.3-8.1-14.5c-0.8-2-0.9-2.1-2.9-1.4c-6.4,2-9.5,6.8-9.2,13.5c0.4,7.7,3.7,13.9,10,18.4c3.9,2.8,8.2,4.7,12.9,5.7
				c7.6,1.6,15.3,1.8,23.1,1.1c15.3-1.4,28.1-7.8,38.2-19.3c6.8-7.7,11.2-16.7,14.5-26.3c3.5-10.2,5.2-20.8,6.1-31.5
				c1.1-13.3,1-26.6-1.1-39.8c-1.7-10.9-5.1-21.1-11-30.5c-6.8-10.9-16.4-18.2-28.8-21.7c-9.7-2.8-19.6-3.1-29.4-1.1
				c-17,3.4-29.2,13.1-36.1,29.1c-2.8,6.5-4.1,13.3-4.7,20.3c-0.6,8.2-0.1,16.3,2.2,24.2c3.6,12,10.8,21.1,22.5,26.2
				c7.1,3.1,14.7,4.1,22.4,4c11.9-0.2,21.7-4.8,29.8-13.6C5006.6-516,5007.1-516.5,5007.7-517.1z"/>
			<path d="M5181.7-520.9c0.1,14.7-1.3,29.3-5.1,43.7c-2.9,10.8-7.3,20.8-14.4,29.6c-9,10.9-20.4,17.3-34.4,19.3
				c-9.6,1.4-19.1,1-28.5-1.3c-14-3.4-24.5-11.5-32.3-23.5c-5.9-9-9.2-18.9-11.4-29.4c-3.5-16.7-4.1-33.7-3.3-50.7
				c0.5-11.9,2.1-23.7,5.3-35.2c2.7-9.4,6.7-18,12.9-25.7c7.4-9.1,16.7-15.2,28.1-18c11.9-2.9,23.9-3.1,35.8-0.2
				c14,3.4,24.4,11.8,32.1,23.7c5.8,9,9.2,19,11.5,29.3C5180.8-546.6,5181.8-533.8,5181.7-520.9z M5174.1-520.9c0-2.7,0-5.3,0-8
				c-0.2-9.3-1.2-18.4-3.1-27.5c-2-9.7-5-19-10.3-27.4c-7.2-11.5-17.2-19.2-30.8-21.8c-9.2-1.7-18.4-1.6-27.5,0.3
				c-9.1,1.9-17,6.1-23.4,12.9c-6.3,6.7-10.5,14.5-13.3,23.2c-3.7,11.3-5.3,23-5.9,34.8c-0.8,16.5-0.4,32.9,2.8,49.2
				c1.9,9.4,4.6,18.4,9.6,26.6c7.2,11.8,17.2,19.6,31,22.3c7.1,1.4,14.2,1.7,21.3,0.9c12.6-1.4,23.2-6.6,31.4-16.4
				c6.3-7.6,10.3-16.2,12.9-25.6C5173-491.7,5174.2-506.3,5174.1-520.9z"/>
			<path d="M5325.2-469.3c-0.1,6.7-1.2,13.1-3.9,19.2c-2.5,5.6-6.1,10.5-12.1,12.7c-10.9,3.9-22.2,1.2-28.4-11
				c-2.2-4.4-3.3-9.1-3.8-13.9c-0.8-7.6-0.4-15.1,1.9-22.4c1.3-4.1,3.3-7.9,6.1-11.3c7.5-9,24.6-9.8,32.7,1.1
				c3.7,5,5.6,10.7,6.6,16.8C5324.8-475.3,5324.9-472.3,5325.2-469.3z M5317.2-468.9c-0.3-3.1-0.4-6.1-0.9-9.2
				c-0.7-4.6-2.2-8.9-5.2-12.5c-6.1-7.3-17.8-6.2-22.3,2.2c-1,1.8-1.8,3.8-2.4,5.7c-2,6.8-2.2,13.8-1.3,20.7c0.6,4.1,1.7,8.1,4,11.7
				c3.8,5.9,9,7.6,15.7,6.3c4.9-0.9,7.7-4.3,9.4-8.7C5316.4-457.8,5317.2-463.3,5317.2-468.9z"/>
			<path d="M5200.9-537.3c0-5.6,0.9-12.1,3.5-18.2c1.5-3.6,3.7-6.9,6.7-9.5c9.7-8.4,24.9-6,32,5c2.9,4.5,4.4,9.5,5.2,14.7
				c1.4,8.6,1,17.1-1.9,25.4c-1.5,4.4-3.7,8.3-7.1,11.6c-3.6,3.6-8,5.3-13,5.6c-10.9,0.6-17.8-4.6-22.2-14.4
				C5201.5-523.3,5200.8-529.8,5200.9-537.3z M5208.4-536.8c0.6,4,0.9,8.1,1.7,12c0.6,3.3,2.1,6.3,4,9c5.2,7.5,19.1,7.2,23.1-1.9
				c0.6-1.4,1.2-2.7,1.7-4.1c2.2-6.8,2.4-13.7,1.7-20.7c-0.5-4.7-1.7-9.1-4.2-13.2c-3.1-5.1-7.7-7.1-13.5-6.6
				c-5.4,0.5-8.9,3.5-11.1,8.4C5209.6-548.4,5208.9-542.7,5208.4-536.8z"/>
			<path d="M5217.4-441.4c0.2-0.3,0.5-1.3,1-2.1c10.2-15.5,20.4-31,30.6-46.5c16.7-25.4,33.4-50.7,50.1-76.1
				c0.9-1.4,1.7-2.9,3.7-2.9c2.6-0.1,4.3,1.8,3.8,4.3c-0.2,0.9-0.7,1.9-1.2,2.7c-12.5,19-25,37.9-37.4,56.9
				c-14.2,21.6-28.4,43.2-42.7,64.8c-0.5,0.7-0.9,1.4-1.4,2.1c-1.1,1.3-2.9,1.7-4.5,1.1C5217.9-437.6,5217.3-438.9,5217.4-441.4z"/>
			<path d="M4962.6-552.2c0.2-6.7,0.6-13.3,2.2-19.8c1-4.3,2.6-8.4,5.3-12c6.8-9.3,19.5-9.7,26.8-0.7c3.2,4,5.2,8.7,6.7,13.6
				c2.1,6.8,3.1,13.8,3.7,20.8c0.4,4.5,0.6,9.1,0.9,13.7c0.1,1.6-0.2,3.1-1.1,4.5c-3.8,6.5-8.9,11.3-16.5,13
				c-3.6,0.8-7.3,0.9-10.9,0.1c-5.7-1.3-9.7-4.8-12.5-9.8c-2.3-4.1-3.2-8.5-3.8-13.1C4962.9-545.4,4962.8-548.8,4962.6-552.2z
				 M4970.3-552.4c0,1.9-0.1,3.8,0,5.7c0.3,4.3,0.7,8.6,2.5,12.6c1.7,3.9,4.2,6.9,8.7,7.8c8.7,1.6,14.6-2.4,18.6-8.9
				c0.4-0.6,0.4-1.4,0.4-2.1c-0.1-2.3-0.2-4.6-0.4-7c-0.4-7.4-1.3-14.7-3.1-21.9c-1.1-4.7-2.8-9.2-5.6-13.2
				c-4.3-6-11.8-5.9-15.8,0.3c-1.5,2.3-2.6,5-3.4,7.7C4970.5-565.2,4970.2-558.8,4970.3-552.4z"/>
			<path d="M5138.4-521c-0.5,10.9-0.8,21.8-1.4,32.6c-0.4,7.6-1.7,15-3.8,22.3c-1,3.5-2.5,6.7-4.4,9.7c-5.6,8.6-18.9,8-24-0.6
				c-2.9-4.8-4.5-10-5.6-15.4c-1.4-6.8-2.1-13.6-2.6-20.5c-0.9-13-1.1-25.9-0.8-38.9c0.3-11.9,0.7-23.8,2.9-35.5
				c1.1-5.9,2.5-11.7,5.7-16.9c2.7-4.3,6.3-7,11.5-7.5c4.5-0.4,8.4,0.9,11.5,4.2c2.8,3,4.6,6.7,5.9,10.6c1.9,5.7,2.9,11.6,3.5,17.6
				C5137.7-546.4,5138.3-533.7,5138.4-521z M5102.9-523.1c0.3,9.8,0.5,17.5,0.8,25.1c0.3,7.9,1,15.8,2.6,23.5
				c0.9,4.6,2.2,9,4.5,13.2c2.5,4.7,9.6,5.2,12.4,0.1c1.9-3.5,3.1-7.2,3.9-11c2.5-10.7,3.1-21.6,3.4-32.4c0.5-16.8,0.4-33.6-1-50.4
				c-0.5-6-1.3-11.9-2.9-17.7c-0.9-3.1-2.1-6.1-4.1-8.8c-1.4-1.8-3.2-2.9-5.6-2.8c-3.1,0.1-5.2,1.8-6.5,4.4
				c-1.1,2.1-2.1,4.4-2.8,6.6c-2,6.5-3,13.3-3.4,20.1C5103.6-542.4,5103.3-531.7,5102.9-523.1z"/>
		</g>
	</g>
</g>
<g id="_x38_VOQfR_00000114043736212160655390000006978095940147621256_">
	<g>
		<g>
			<path d="M5085.3,344.2c2.9-0.2,5.4-0.6,7.9-0.6c6.2-0.1,12.4-0.1,18.7,0c7.7,0.2,15.1,2.1,22.4,4.6c12.9,4.5,23,12.5,29.5,24.7
				c3.7,7,5.5,14.5,6,22.5c0.4,6.6,0.2,13.1-1.1,19.6c-2.5,12-7.9,22.4-17.2,30.5c-8.9,7.7-19.3,12.2-30.7,14.6
				c-9.3,1.9-18.7,2.4-28.1,1.9c-9.9-0.5-19.6-2.3-28.5-7.2c-9.8-5.4-16.5-13.2-18.1-24.5c-1.1-7.8,0.4-15.2,6.3-20.9
				c3.6-3.5,8.2-5.6,13.1-6.1c4-0.5,8.1-0.4,12.2-0.6c1.5-0.1,2.1,0.6,2.1,2.1c0,2.7-0.1,5.3,0,8c0.3,5.4,1.9,10.4,6,14.1
				c1.6,1.4,3.6,2.6,5.6,3.1c5.4,1.4,10.9,1.1,16.1-1.2c5.1-2.3,7.9-6.6,9.4-11.7c2.6-8.7,3-17.6,1.1-26.4
				c-1.9-8.6-6-14.7-17.6-16.5c-9.2-1.4-18.3,0-27.1,2.8c-3.4,1.1-6.3,1.2-9.6-0.3c-3.7-1.7-7.6-3-11.4-4.5
				c-0.8-0.3-1.5-0.7-2.4-1.1c0.3-3.8,0.5-7.5,0.9-11.2c0.4-4.5,0.9-9.1,1.4-13.6c0.5-4.9,0.9-9.7,1.4-14.6
				c0.4-4.3,0.7-8.6,1.1-12.9c0.4-4.6,0.9-9.2,1.3-13.9c0.4-4.2,0.8-8.4,1.1-12.6c0.4-4.1,0.7-8.3,1-12.4c0.1-1.3,0.7-2,2-2
				c0.7,0,1.3,0,2,0c31.7,0,63.4,0,95.2,0c0.5,0,1,0,1.5,0c1.6-0.1,2.2,0.6,2.3,2.2c0.1,3.2,0.4,6.3,0.4,9.4
				c0.2,9,0.3,17.9,0.5,26.9c0.1,5.4,0.4,10.8,0.5,16.2c0.1,2.5-0.2,2.7-2.7,2.7c-7.2,0-14.5,0-21.7,0c-2.3,0-2.5-0.1-3-2.4
				c-0.9-3.6-1.7-7.3-2.6-10.9c-0.8-3.1-1.4-3.6-4.5-3.6c-12.8,0-25.6,0-38.5,0c-2.2,0-2.2,0.2-2.4,2.2c-0.6,6.9-1.3,13.9-1.9,20.8
				C5085.2,342.1,5085.3,343,5085.3,344.2z M5076.5,354.1c0.3-4.1,0.5-7.9,0.9-11.7c0.4-4.8,0.9-9.6,1.3-14.4
				c0.4-4.7,0.7-9.4,1.1-14.1c0.3-3.2,0.5-3.3,3.7-3.3c15.2,0,30.3,0,45.5,0c6.4,0,9.4,2.3,11.1,8.6c0.5,1.9,0.9,3.9,1.3,5.8
				c0.6,2.5,0.7,2.5,3.2,2.6c2.4,0,4.8,0,7.2,0c2.7,0,2.9-0.1,2.8-2.8c-0.1-5.6-0.3-11.3-0.5-16.9c-0.2-6.6-0.4-13.1-0.5-19.7
				c-0.1-2.9-0.1-2.9-3-2.9c-0.6,0-1.2,0-1.7,0c-26.1,0-52.3,0-78.4,0c-0.8,0-1.7,0-2.5,0c-2,0.1-2.5,0.5-2.7,2.5
				c-0.4,4.4-0.7,8.8-1.1,13.1c-0.4,4.3-0.7,8.6-1.2,12.9c-0.4,4.3-0.9,8.6-1.3,12.9c-0.4,4.5-0.7,9.1-1.1,13.6
				c-0.7,7.8-1.6,15.7-2.4,23.5c-0.1,1.4,0.3,2.3,1.8,2.8c2.4,0.8,4.6,1.9,7,2.7c0.9,0.3,2,0.4,2.9,0.2c5.2-1,10.4-2.4,15.6-3.1
				c6-0.8,12.1-0.9,18.1,0.3c12,2.4,19.6,10.3,22,22.3c1,5.1,1.1,10.2,1,15.4c-0.1,5.8-0.9,11.4-3,16.8c-3.3,8.4-9.1,14.2-18.2,16.2
				c-4.2,1-8.5,1.2-12.9,0.5c-8.6-1.3-14.6-5.9-17.9-13.7c-1.5-3.6-2.1-7.7-2.9-11.5c-0.5-2.2-0.4-2.3-2.7-2.2
				c-3.6,0.2-6.8,1.2-9.8,3.3c-2.3,1.5-4,3.5-4.7,6.2c-2.4,8.1-0.4,15.3,5.1,21.5c4.4,5,10.3,7.8,16.6,9.8
				c7.4,2.3,15.2,2.9,22.9,3.1c4.5,0.1,9.1-0.3,13.6-1c9-1.3,17.8-3.6,25.7-8.3c8.4-4.9,14.9-11.7,18.9-20.6
				c5.1-11.4,6-23.2,3.8-35.4c-2-11.1-7.7-20.1-16.7-26.9c-5.6-4.2-12-6.8-18.7-8.5c-8.9-2.3-17.9-3-27.1-2.6
				c-5.8,0.3-11.6,1-17.3,2.1C5079.8,353.4,5078.3,353.7,5076.5,354.1z"/>
			<path d="M4978.8,402.2c0-1.3,0-2.2,0-3.1c0-16.9,0-33.8,0-50.7c0-3.3,0-3.2-3-4.5c-6.8-2.8-13.7-5.2-19.8-9.4
				c-8.6-6-12.9-14.2-13.2-24.7c-0.1-5.4,0.7-10.6,3.2-15.5c3.9-7.6,10.1-12.5,17.8-15.5c3.9-1.5,8.1-2.3,12.3-3.2
				c2.3-0.5,2.7-0.7,2.7-3.3c0-4.4,0-8.8,0-13.2c0-3.3,1.1-4.5,4-4.5c2.6,0,4,1.6,4,4.6c0.1,4.4,0,8.8,0,13.2c0,2.3,0,2.4,2.3,2.7
				c7.6,1,14.9,2.8,21.6,6.4c4.6,2.5,8.4,6,11.3,10.3c1,1.4,1.4,3,0.2,4.6c-1.1,1.5-2.6,2.4-4.5,2c-1-0.2-2-0.9-2.6-1.6
				c-3.6-4.2-7.9-7.7-12.9-10c-4.2-1.9-8.6-3-13.2-3.6c-1.8-0.2-2.2,0.2-2.2,2.3c0,5.2,0,10.3,0,15.5c0,11.5,0,23,0,34.4
				c0,3,0,2.9,2.7,3.9c6.9,2.7,13.9,5.2,20,9.5c7.9,5.4,12.9,12.7,14.1,22.3c1.8,15-3.5,25.9-17.1,33.7c-5.4,3.1-11.3,4.7-17.6,5.2
				c-1.9,0.1-2.1,0.3-2.1,2.5c0,6.7,0,13.5,0,20.2c0,1.1-0.2,2.3-0.6,3.4c-0.7,1.9-2.4,2.6-4.2,2.2c-1.8-0.4-3.1-1.7-3.1-3.7
				c-0.1-5.5,0-11,0-16.5c0-1.8,0-3.7,0-5.5c-0.1-2.2-0.5-2.4-2.7-2.7c-4.3-0.7-8.7-1.3-12.9-2.5c-7.4-2.3-13.8-6.6-19.7-11.5
				c-1.8-1.5-3.6-3.2-5.3-4.9c-1.5-1.4-1.8-3.5-0.9-5.3c1.4-3.1,4.7-3.5,7.3-0.8c1.9,1.9,3.8,4,5.8,5.8
				C4958.4,397.6,4967.8,401.2,4978.8,402.2z M4987,348.3c0,18.1,0,35.8,0,53.9c2.1-0.3,4-0.4,5.8-0.8c5.5-1,10.4-3.4,14.7-7
				c6-5,8.3-11.6,7.7-19.3c-0.4-5.1-2.2-9.6-5.6-13.5c-4.7-5.3-10.8-8.2-17-11C4990.8,349.8,4989,349.1,4987,348.3z M4978.6,283.5
				c-5.6,0.3-10.4,1.8-14.9,4.4c-8.3,4.7-13.1,11.6-12.4,21.6c0.4,5.3,2.1,10.1,6.1,13.8c3.9,3.6,8.4,6.5,13.3,8.7
				c2.5,1.1,5.1,2.1,7.9,3.3C4978.6,317.9,4978.6,300.9,4978.6,283.5z"/>
			<path d="M5305.8,368c0-15.9,1.4-31.6,5.7-46.9c3.5-12.5,9.4-23.6,19.2-32.4c7.8-7,17-10.9,27.3-12.6c5.5-0.9,11.1-1.3,16.7-1
				c12,0.6,23.2,3.5,32.8,11c8.3,6.4,14.2,14.6,18.5,24.1c4.4,9.9,6.8,20.3,8.4,31c0.6,4.3,1,8.6,1.1,12.9
				c0.3,7.1,0.6,14.1,0.5,21.2c-0.4,15.7-2.5,31.2-7.8,46c-4,11.1-10.2,20.8-19.2,28.4c-6.8,5.8-14.7,9.4-23.5,11
				c-13.6,2.4-27,2-40-3.2c-7.6-3.1-14-7.9-19.4-14.1c-9.6-11.1-14.4-24.4-16.9-38.6c-1.1-6-1.9-12.1-2.5-18.3
				C5306.1,380.4,5306,374.2,5305.8,368z M5371,282.8c-4.5,0.5-9.1,0.7-13.6,1.5c-10.1,1.8-18.7,6.5-25.4,14.2
				c-6.7,7.7-10.9,16.8-13.5,26.7c-3.5,13.3-4.4,26.8-4.9,40.5c-0.2,4.9,0.2,9.8,0.4,14.7c0.1,3,0.2,6,0.6,8.9
				c1,6.6,1.9,13.2,3.4,19.6c2.9,13,8.3,24.7,18.4,33.8c4,3.6,8.5,6.4,13.6,8.2c10.5,3.7,21.3,4.3,32.2,2.5
				c8.5-1.4,16.1-4.8,22.5-10.5c8.7-7.8,14-17.7,17.4-28.6c4.5-14.2,5.6-29,6.1-43.8c0.2-6.2-0.5-12.4-0.9-18.6
				c-0.5-9-2-17.9-4.6-26.5c-1.6-5.4-3.7-10.7-6.1-15.8c-2.7-5.7-6.7-10.4-11.4-14.7c-4-3.7-8.5-6.6-13.7-8.5
				C5385,283.9,5378.1,282.8,5371,282.8z"/>
			<path d="M5305,367.7c0.3,15.5-1.2,30.1-5,44.5c-2.8,10.7-7.1,20.8-14.2,29.4c-7.9,9.7-17.8,16.4-30.3,18.8
				c-14.4,2.8-28.5,2.2-42.1-3.5c-8.7-3.7-15.6-9.7-21.2-17.3c-5.4-7.3-9-15.3-11.4-24c-2.5-8.7-3.9-17.7-4.8-26.7
				c-1-9.9-1.2-19.8-0.8-29.6c0.6-14.1,2.1-28.2,6.6-41.7c3.6-11,9.2-20.8,17.9-28.7c6.5-5.9,14.1-9.6,22.6-11.7
				c7.3-1.8,14.8-2.4,22.3-2c12,0.7,23.3,3.8,32.9,11.5c8.9,7.2,15,16.4,19.1,26.9c3.7,9.4,5.9,19.2,7.1,29.2
				C5304.7,351.4,5305.3,359.9,5305,367.7z M5240.4,282.9c-3.6,0.2-7.1,0.3-10.7,0.8c-10.2,1.3-19.2,5.3-26.5,12.7
				c-7.5,7.6-12.3,16.9-15,27.2c-4.3,15.8-5.4,32-5.1,48.3c0.2,8.9,0.7,17.7,2.1,26.5c1.8,11.5,4.6,22.7,10.9,32.7
				c4.8,7.6,10.8,13.9,19,17.9c6,2.9,12.5,4.3,19.2,4.9c7.3,0.7,14.4,0.1,21.5-1.6c6.5-1.7,12.5-4.5,17.6-9
				c8.2-7.2,13.6-16.2,17.2-26.5c5-14.3,6.4-29.2,7-44.1c0.2-4.7-0.3-9.5-0.4-14.2c-0.1-8.8-1.2-17.4-3.1-25.9
				c-2.8-12.6-7-24.6-16-34.4c-4.6-5-9.8-8.9-16.1-11.5C5255,283.9,5247.8,282.8,5240.4,282.9z"/>
			<path d="M5349.3,370.9c0.3-10.4,0.2-18.4,0.8-26.4c0.7-11.2,1.4-22.4,5.3-33.1c1.6-4.5,3.8-8.7,8-11.5c6.1-4.1,14.8-2.6,19.3,3.2
				c4,5.3,6,11.5,6.9,18c0.9,6.6,1.5,13.2,2.1,19.8c1.2,12.7,1.3,25.4,0.9,38.1c-0.4,12.8-0.6,25.6-3.4,38.1
				c-1.3,5.8-2.7,11.5-6.3,16.4c-5.6,7.9-18,7.9-23.5-0.1c-3.4-4.9-5-10.5-6.2-16.2c-1.5-7-2.3-14.1-2.6-21.2
				C5350.1,386.9,5349.6,377.7,5349.3,370.9z M5357.5,368c-0.1,0-0.2,0-0.2,0c0.2,7.6,0.6,15.3,0.7,22.9c0.1,7.3,0.9,14.6,2.1,21.8
				c1,5.7,2.2,11.3,5.6,16.1c2.7,4,8.1,3.9,10.9-0.1c2.3-3.2,3.3-6.9,4.2-10.6c2.7-10.9,3.4-22.2,3.6-33.3
				c0.2-15.8,0.8-31.6-0.9-47.3c-0.6-5.8-1.2-11.7-2.2-17.5c-0.7-4.1-2.3-7.9-4.5-11.5c-2.5-4.2-9.5-3.8-11.8,0.8
				c-1.3,2.7-2.6,5.6-3.5,8.5c-3,10.9-3.4,22.1-3.9,33.3C5357.3,356.7,5357.5,362.4,5357.5,368z"/>
			<path d="M5261.6,368c0,2.9,0.1,5.8,0,8.7c-0.4,8.8-0.9,17.6-1.4,26.3c-0.5,7.9-1.8,15.7-4.4,23.2c-1.2,3.5-2.9,6.9-5.7,9.5
				c-5.9,5.7-17,4.7-21.6-2.2c-2.9-4.3-4.7-9.2-5.8-14.2c-1.8-8-2.9-16-3.1-24.2c-0.3-11-0.9-22.1-0.9-33.1c0-9.1,0.6-18.2,1.4-27.3
				c0.6-6.4,1.7-12.8,3-19.2c1.1-5.2,3.2-10.1,7.2-14c6.1-6,16.2-5.2,21.3,1.5c3.4,4.5,5.2,9.6,6.4,15c1.5,7,2.4,14.1,2.6,21.2
				c0.2,4.8,0.7,9.6,0.9,14.4C5261.7,358.5,5261.6,363.3,5261.6,368C5261.6,368,5261.6,368,5261.6,368z M5253.5,368.7
				c0.1,0,0.2,0,0.3,0c-0.2-8.1-0.5-16.1-0.7-24.2c-0.1-7.3-0.8-14.6-2.1-21.8c-0.9-4.9-2.4-9.6-4.9-14c-2.8-4.7-9.4-3.6-11.5-0.1
				c-2.1,3.5-3.5,7.2-4.4,11.1c-2.6,10.6-3.2,21.5-3.4,32.4c-0.3,15.4-0.7,30.8,0.9,46.1c0.6,5.6,1.2,11.2,2.1,16.8
				c0.8,4.8,2.2,9.6,4.9,13.8c2.6,4,8.4,4.1,10.9,0.1c1.5-2.4,2.7-5,3.5-7.6c3.4-11.3,3.9-23,4.4-34.7
				C5253.7,380.6,5253.5,374.6,5253.5,368.7z"/>
		</g>
	</g>
</g>
<g id="_x32_DjyCk_00000127038887626987825330000000034584710182254230_">
	<g>
		<g>
			<path d="M4931.5-1394c4.8-1,9.2-2.1,13.7-2.7c12.1-1.6,24-0.9,35.2,4.4c14.8,7,24,18.7,27.4,34.7c3.4,16.1,2.3,32-4.5,47.1
				c-7.7,17.3-21.3,27.5-39.8,31.2c-10.9,2.2-21.8,2.1-32.7-0.7c-17.9-4.6-30.2-15.8-38.2-32.2c-5.7-11.7-8.3-24.2-9.4-37
				c-1.5-18.3-0.7-36.6,3.9-54.5c3.7-14.6,9.7-28.2,20-39.4c14.8-16.2,33.5-22.4,55.1-21.2c9.4,0.5,18.5,2.2,26.9,6.7
				c8.9,4.8,14.4,12.1,16.1,22.2c1.9,11.1-4.4,22.1-14.9,26.4c-8.8,3.6-18,3.4-27.5,3.4c-0.1-1.2-0.1-2.3-0.2-3.3
				c-0.5-6.2-1-12.4-1.6-18.6c-0.1-1.1-0.5-2.1-0.9-3.1c-2-5.2-4.6-6.4-9.9-4.5c-4.3,1.6-7.1,4.8-9.4,8.6
				c-5.1,8.3-7.1,17.7-8.7,27.1C4931.9-1397.6,4931.7-1395.8,4931.5-1394z M4970.5-1413.1c6.9-0.1,13.9-0.3,20-4.4
				c5-3.4,7.9-8.3,7.6-14.6c-0.6-9.9-6.2-16.2-14.8-20.1c-6-2.8-12.3-3.9-18.8-4.5c-17.8-1.5-33.9,2.2-47.5,14.4
				c-9.1,8.2-15,18.5-19.2,29.9c-6.1,16.4-7.8,33.4-7.5,50.8c0.2,14.1,1.7,27.9,7,41.1c6.4,16.1,17,28.1,34.2,33
				c9.7,2.8,19.6,2.9,29.4,1.2c16.8-2.9,29.1-11.9,36-27.6c5.8-13.2,6.8-27.1,4.1-41.1c-3.2-16-12.6-27.3-28.2-32.4
				c-14-4.6-28.1-3.5-41.8,2c-2.6,1-5.1,2.4-7.7,3.7c0-1.2-0.1-2.1,0-3c1.1-8.5,2-17,3.6-25.4c1.5-8,4.4-15.7,9.2-22.5
				c3.6-5,8.1-8.8,14.3-10.2c7.7-1.7,13,0.8,16.2,8c1,2.3,1.7,4.7,2.1,7.1C4969.4-1422.9,4969.9-1418.1,4970.5-1413.1z"/>
			<path d="M5090.6-1421.8c-1.3,0-2.2,0-3.1,0c-12.2,0-24.5,0-36.7,0c-0.7,0-1.5,0-2.2,0.1c-3.5,0.3-4.6,1.3-5,4.7
				c-0.7,5.4-1.4,10.9-2,16.3c-0.2,2-0.8,2.7-2.9,2.6c-7.7-0.1-15.3,0-23,0c-0.7,0-1.5-0.1-2.6-0.1c0.5-21.2,1-42.2,1.5-63.5
				c42,0,83.9,0,126,0c0.1,0.5,0.2,1.2,0.2,1.8c0,2.1-0.2,4.2,0,6.2c0.8,8.2-1.4,15.6-4.6,23.1c-20.7,49.2-41,98.5-61.4,147.8
				c-0.8,2-1.7,2.7-4,2.7c-13.2-0.1-26.5-0.1-39.7-0.1c-0.8,0-1.6,0-2.9,0C5049.1-1327.5,5069.7-1374.4,5090.6-1421.8z
				 M5101.9-1429.1c-20.9,47.4-41.5,94.3-62.2,141.5c1.3,0,2.2,0,3,0c7.8,0,15.6-0.1,23.5,0.1c2.1,0,3-0.7,3.8-2.5
				c20.8-50.2,41.6-100.4,62.5-150.6c1.9-4.5,0.6-9.1,1-13.9c-1.2,0-2.1,0-2.9,0c-35.3,0-70.6,0-105.9,0c-2.3,0-3,0.6-3,2.9
				c-0.3,14.5-0.7,28.9-1,43.4c0,0.8,0,1.6,0,2.5c4.8,0,9.3,0,14,0c0.5-3.9,0.9-7.6,1.4-11.3c0.5-4.1,1.6-8.1,5.5-10.1
				c2.5-1.3,5.5-1.9,8.3-1.9c16.3-0.2,32.6-0.1,48.9-0.1C5099.6-1429.1,5100.4-1429.1,5101.9-1429.1z"/>
			<path d="M5223.7-1313.3c0.2-8.1,1.5-15.7,5.3-22.7c7.9-14.7,29.6-15.4,37.8-0.3c4.6,8.4,5.8,17.4,5.2,26.8
				c-0.5,6.8-2.2,13.2-5.7,19.2c-8.2,13.9-29.8,14-37.7-1.4C5225-1298.7,5224-1305.9,5223.7-1313.3z M5231.8-1313.7
				c0,1.2-0.1,2.5,0,3.7c0.5,6,1.6,11.9,5.3,16.9c6.3,8.2,19.3,7,23.4-2.4c1.7-4,2.8-8.4,3.3-12.7c0.9-8.1,0.3-16.1-3.5-23.6
				c-2.9-5.7-7.6-8.4-14-7.9c-5.9,0.5-9.5,3.9-11.6,9.1C5232.5-1325.1,5231.7-1319.5,5231.8-1313.7z"/>
			<path d="M5196.2-1380.7c-0.1,6.7-1.1,13.2-3.8,19.4c-5.4,12.6-19.3,17.9-30.8,11.7c-5-2.7-8.4-7.1-10.3-12.4
				c-4.8-13.4-4.9-26.8,1.2-39.8c3.8-8.2,10.6-12.6,19.9-12.5c9.3,0.1,15.6,4.9,19.6,13C5195-1394.8,5196.1-1387.9,5196.2-1380.7z
				 M5155.9-1381.1c0,6.6,0.8,13.1,4.1,19c2.9,5.1,7.3,7.6,13.2,7.3c6-0.3,10.2-3.3,12-8.9c1.4-4.3,2.5-8.8,2.9-13.3
				c0.7-7.9-0.2-15.6-4.2-22.7c-2.8-4.8-7-7.2-12.6-7c-5.7,0.1-9.6,2.8-12,7.9C5156.7-1393.2,5155.9-1387.2,5155.9-1381.1z"/>
			<path d="M5253.8-1409c-0.3,0.6-0.7,1.7-1.3,2.8c-18.8,28.6-37.6,57.1-56.4,85.7c-7.9,12-15.8,24-23.7,36.1
				c-0.5,0.8-1,1.5-1.6,2.2c-1.4,1.5-3.1,1.5-4.8,0.6c-1.6-0.9-1.9-2.5-1.4-4.1c0.2-0.8,0.7-1.5,1.1-2.2
				c26.9-40.9,53.8-81.8,80.7-122.8c1.1-1.7,2.5-3,4.7-2.3C5252.9-1412.7,5253.8-1411.5,5253.8-1409z"/>
			<path d="M4968.2-1339.5c-0.1,9.4-0.5,17.9-3.6,25.9c-0.8,2.2-1.9,4.3-3.2,6.2c-5.5,8-16.6,9.1-23.7,2.4
				c-3.8-3.6-6.3-7.9-8.1-12.7c-5.2-14.8-6.7-30.1-6.6-45.7c0-0.9,0.5-2,1.2-2.6c6.1-5.8,13.3-9.4,21.8-9.8
				c8.2-0.4,14.7,4.1,18.1,11.9C4967.7-1355.8,4968.2-1347.2,4968.2-1339.5z M4960.9-1338.7c0-0.8,0-1.7,0-2.5
				c-0.3-7.2-0.7-14.5-4.2-21.1c-1.9-3.5-4.7-5.9-8.8-6.1c-6.4-0.4-11.8,2.3-16.7,6.1c-0.5,0.4-0.7,1.3-0.7,2
				c0,12.5,1.2,24.9,5.1,36.9c1.4,4.2,3.6,8.2,6.1,11.9c2.9,4.4,10.8,5.6,14.3-0.9c0.8-1.5,1.6-3.1,2.1-4.8
				C4960.5-1324.2,4960.7-1331.5,4960.9-1338.7z"/>
		</g>
	</g>
</g>
<rect x="-19.8" y="-24.2" class="st13" width="1747.8" height="769.3"/>
</svg>
