<?xml version="1.0" encoding="utf-8"?>
<!-- Generator: Adobe Illustrator 27.9.0, SVG Export Plug-In . SVG Version: 6.00 Build 0)  -->
<svg version="1.1" id="Layer_1" xmlns="http://www.w3.org/2000/svg" xmlns:xlink="http://www.w3.org/1999/xlink" x="0px" y="0px"
	 viewBox="0 0 173.58 186.27" style="enable-background:new 0 0 173.58 186.27;" xml:space="preserve">
<style type="text/css">
	.st0{fill:#D35656;}
	.st1{fill:#5C90CC;}
	.st2{fill:#FFD25B;}
	.st3{fill:#FFF1EC;}
	.st4{fill:#9BBD72;}
	.st5{fill:none;stroke:#000000;stroke-width:8.7206;stroke-linecap:round;stroke-miterlimit:10;}
	.st6{fill:#F9C2D3;}
	.st7{fill:none;stroke:#000000;stroke-width:3;stroke-linecap:round;stroke-miterlimit:10;}
	.st8{fill:#FFD25B;stroke:#FFD25B;stroke-miterlimit:10;}
	.st9{fill:#EF7834;}
	.st10{fill:#23324D;}
	.st11{fill:none;stroke:#000000;stroke-width:3.5;stroke-linecap:round;stroke-miterlimit:10;}
	.st12{fill:none;}
	.st13{fill:none;stroke:#000000;stroke-width:3.1817;stroke-linecap:round;stroke-miterlimit:10;}
	.st14{fill:none;stroke:#000000;stroke-width:4;stroke-linecap:round;stroke-miterlimit:10;}
	.st15{fill:none;stroke:#000000;stroke-width:9;stroke-miterlimit:10;}
	.st16{fill:none;stroke:#000000;stroke-width:5;stroke-linecap:round;stroke-miterlimit:10;}
	.st17{fill:none;stroke:#000000;stroke-width:5.9898;stroke-miterlimit:10;}
	.st18{fill:none;stroke:#000000;stroke-width:5.9898;stroke-linecap:round;stroke-miterlimit:10;}
	.st19{fill:#F7941D;}
	.st20{fill:none;stroke:#000000;stroke-width:3;stroke-miterlimit:10;}
	.st21{fill:none;stroke:#000000;stroke-width:3.0176;stroke-linecap:round;stroke-miterlimit:10;}
	.st22{fill:none;stroke:#000000;stroke-width:2.2105;stroke-linecap:round;stroke-miterlimit:10;}
	.st23{fill:none;stroke:#000000;stroke-width:3.5;stroke-miterlimit:10;}
	.st24{fill:none;stroke:#000000;stroke-width:4;stroke-miterlimit:10;}
	.st25{fill:none;stroke:#000000;stroke-width:4.3732;stroke-linecap:round;stroke-miterlimit:10;}
	.st26{fill:none;stroke:#000000;stroke-width:0.5467;stroke-linecap:round;stroke-miterlimit:10;}
	.st27{fill:none;stroke:#000000;stroke-width:2.9155;stroke-linecap:round;stroke-miterlimit:10;}
	.st28{fill:none;stroke:#000000;stroke-width:3.6444;stroke-linecap:round;stroke-miterlimit:10;}
	.st29{fill:none;stroke:#000000;stroke-width:0.1822;stroke-linecap:round;stroke-miterlimit:10;}
	.st30{fill:none;stroke:#000000;stroke-linecap:round;stroke-miterlimit:10;}
	.st31{fill:none;stroke:#000000;stroke-width:8.6374;stroke-linecap:round;stroke-miterlimit:10;}
	.st32{fill:none;stroke:#000000;stroke-width:8.6374;stroke-miterlimit:10;}
	.st33{fill:none;stroke:#000000;stroke-width:8.6879;stroke-linecap:round;stroke-miterlimit:10;}
	.st34{fill:none;stroke:#000000;stroke-width:6.3642;stroke-linecap:round;stroke-miterlimit:10;}
</style>
<g id="_x38_Qvnr0_00000100375909664315303200000003528866331630604727_">
	<g>
		<g>
			<path class="st3" d="M91.2,170.38c-3.54,0-7.08,0-10.63,0c-0.42-0.1-0.84-0.23-1.27-0.29c-2.53-0.34-5.09-0.53-7.58-1.03
				c-18.52-3.68-33.75-12.88-45.35-27.76c-13.1-16.79-18.1-35.94-15.32-57.01c1.93-14.63,7.77-27.68,17.58-38.72
				c18.06-20.33,40.8-28.87,67.75-25.59c14.54,1.77,27.41,7.77,38.52,17.33c13.67,11.77,22.2,26.54,25.39,44.34
				c0.47,2.6,0.78,5.23,1.16,7.84c0,3.54,0,7.08,0,10.63c-0.32,2.37-0.57,4.76-0.99,7.12c-2.95,16.86-10.61,31.21-23.13,42.88
				c-10.82,10.1-23.56,16.48-38.16,19.07C96.53,169.68,93.86,169.99,91.2,170.38z M92.45,133.42c0-0.69,0-1.28,0-1.86
				c0-9.59,0.02-19.18-0.01-28.77c-0.01-2.94,0.59-5.66,2.57-7.94c2.66-3.07,6.02-4.12,9.95-3.25c3.59,0.79,5.44,3.34,6.27,6.71
				c0.35,1.42,0.58,2.9,0.59,4.36c0.06,9.69,0.04,19.38,0.05,29.07c0,0.56,0,1.13,0,1.68c6.22,0,12.21,0,18.34,0
				c0-0.65,0-1.23,0-1.8c0-8.75,0.03-17.51-0.02-26.26c-0.02-3.09,0.02-6.21-0.37-9.27c-1.19-9.46-6.45-18.15-18.73-19.14
				c-7.2-0.58-13.28,1.59-17.62,7.67c-0.24,0.33-0.51,0.63-1.04,1.27c0-2.79,0-5.17,0-7.6c-6.18,0-12.19,0-18.25,0
				c0,18.44,0,36.75,0,55.14C80.25,133.42,86.24,133.42,92.45,133.42z M63.79,133.42c0-18.44,0-36.75,0-55.17
				c-0.56-0.03-1.04-0.08-1.52-0.08c-5.02-0.01-10.03,0.04-15.05-0.03c-1.34-0.02-1.73,0.34-1.73,1.71
				c0.05,17.36,0.03,34.71,0.03,52.07c0,0.48,0.04,0.96,0.07,1.5C51.68,133.42,57.66,133.42,63.79,133.42z M44.51,60.96
				c-0.01,5.58,4.13,9.52,10.08,9.59c6.06,0.07,10.55-3.99,10.51-9.52c-0.03-5.61-4.32-9.62-10.28-9.6
				C48.78,51.44,44.52,55.38,44.51,60.96z"/>
		</g>
	</g>
</g>
</svg>
