<?xml version="1.0" encoding="utf-8"?>
<!-- Generator: Adobe Illustrator 27.9.0, SVG Export Plug-In . SVG Version: 6.00 Build 0)  -->
<svg version="1.1" id="Layer_1" xmlns="http://www.w3.org/2000/svg" xmlns:xlink="http://www.w3.org/1999/xlink" x="0px" y="0px"
	 viewBox="0 0 339.29 177.82" style="enable-background:new 0 0 339.29 177.82;" xml:space="preserve">
<style type="text/css">
	.st0{fill:#D35656;}
	.st1{fill:#5C90CC;}
	.st2{fill:#FFD25B;}
	.st3{fill:#FFF1EC;}
	.st4{fill:#9BBD72;}
	.st5{fill:none;stroke:#000000;stroke-width:8.7206;stroke-linecap:round;stroke-miterlimit:10;}
	.st6{fill:#F9C2D3;}
	.st7{fill:none;stroke:#000000;stroke-width:3;stroke-linecap:round;stroke-miterlimit:10;}
	.st8{fill:#FFD25B;stroke:#FFD25B;stroke-miterlimit:10;}
	.st9{fill:#EF7834;}
	.st10{fill:#23324D;}
	.st11{fill:none;stroke:#000000;stroke-width:3.5;stroke-linecap:round;stroke-miterlimit:10;}
	.st12{fill:none;}
	.st13{fill:none;stroke:#000000;stroke-width:3.1817;stroke-linecap:round;stroke-miterlimit:10;}
	.st14{fill:none;stroke:#000000;stroke-width:4;stroke-linecap:round;stroke-miterlimit:10;}
	.st15{fill:none;stroke:#000000;stroke-width:9;stroke-miterlimit:10;}
	.st16{fill:none;stroke:#000000;stroke-width:5;stroke-linecap:round;stroke-miterlimit:10;}
	.st17{fill:none;stroke:#000000;stroke-width:5.9898;stroke-miterlimit:10;}
	.st18{fill:none;stroke:#000000;stroke-width:5.9898;stroke-linecap:round;stroke-miterlimit:10;}
	.st19{fill:#F7941D;}
	.st20{fill:none;stroke:#000000;stroke-width:3;stroke-miterlimit:10;}
	.st21{fill:none;stroke:#000000;stroke-width:3.0176;stroke-linecap:round;stroke-miterlimit:10;}
	.st22{fill:none;stroke:#000000;stroke-width:2.2105;stroke-linecap:round;stroke-miterlimit:10;}
	.st23{fill:none;stroke:#000000;stroke-width:3.5;stroke-miterlimit:10;}
	.st24{fill:none;stroke:#000000;stroke-width:4;stroke-miterlimit:10;}
	.st25{fill:none;stroke:#000000;stroke-width:4.3732;stroke-linecap:round;stroke-miterlimit:10;}
	.st26{fill:none;stroke:#000000;stroke-width:0.5467;stroke-linecap:round;stroke-miterlimit:10;}
	.st27{fill:none;stroke:#000000;stroke-width:2.9155;stroke-linecap:round;stroke-miterlimit:10;}
	.st28{fill:none;stroke:#000000;stroke-width:3.6444;stroke-linecap:round;stroke-miterlimit:10;}
	.st29{fill:none;stroke:#000000;stroke-width:0.1822;stroke-linecap:round;stroke-miterlimit:10;}
	.st30{fill:none;stroke:#000000;stroke-linecap:round;stroke-miterlimit:10;}
	.st31{fill:none;stroke:#000000;stroke-width:8.6374;stroke-linecap:round;stroke-miterlimit:10;}
	.st32{fill:none;stroke:#000000;stroke-width:8.6374;stroke-miterlimit:10;}
	.st33{fill:none;stroke:#000000;stroke-width:8.6879;stroke-linecap:round;stroke-miterlimit:10;}
	.st34{fill:none;stroke:#000000;stroke-width:6.3642;stroke-linecap:round;stroke-miterlimit:10;}
</style>
<path class="st3" d="M84.18,107.23c0,4.98-1.28,9.45-3.84,13.42c-2.56,3.97-6.32,7.07-11.26,9.32c-4.94,2.25-10.8,3.37-17.57,3.37
	c-8.12,0-14.82-1.53-20.1-4.6c-3.74-2.21-6.78-5.15-9.12-8.84c-2.34-3.69-3.51-7.27-3.51-10.75c0-2.02,0.7-3.75,2.1-5.19
	c1.4-1.44,3.19-2.16,5.36-2.16c1.76,0,3.25,0.56,4.46,1.69c1.22,1.12,2.25,2.79,3.12,5c1.05,2.62,2.18,4.81,3.4,6.57
	c1.22,1.76,2.93,3.21,5.14,4.35c2.21,1.14,5.11,1.71,8.7,1.71c4.94,0,8.95-1.15,12.04-3.45c3.09-2.3,4.63-5.17,4.63-8.62
	c0-2.73-0.83-4.95-2.5-6.65c-1.67-1.7-3.82-3-6.46-3.9c-2.64-0.9-6.17-1.85-10.58-2.86c-5.91-1.38-10.86-3-14.85-4.86
	c-3.99-1.85-7.15-4.38-9.49-7.58c-2.34-3.2-3.51-7.18-3.51-11.93c0-4.53,1.24-8.55,3.71-12.07c2.47-3.52,6.04-6.22,10.72-8.11
	c4.68-1.89,10.18-2.83,16.5-2.83c5.05,0,9.42,0.63,13.11,1.88c3.69,1.25,6.75,2.92,9.18,5c2.43,2.08,4.21,4.26,5.33,6.54
	c1.12,2.28,1.68,4.51,1.68,6.68c0,1.98-0.7,3.77-2.1,5.36c-1.4,1.59-3.15,2.39-5.25,2.39c-1.91,0-3.36-0.48-4.35-1.43
	c-0.99-0.95-2.07-2.52-3.23-4.69c-1.5-3.1-3.29-5.53-5.39-7.27c-2.1-1.74-5.46-2.61-10.1-2.61c-4.3,0-7.78,0.94-10.41,2.83
	c-2.64,1.89-3.96,4.16-3.96,6.82c0,1.65,0.45,3.07,1.35,4.27c0.9,1.2,2.13,2.23,3.71,3.09c1.57,0.86,3.16,1.54,4.77,2.02
	c1.61,0.49,4.27,1.2,7.97,2.13c4.64,1.09,8.84,2.28,12.6,3.59c3.76,1.31,6.96,2.9,9.6,4.77c2.64,1.87,4.7,4.24,6.18,7.1
	C83.44,99.56,84.18,103.07,84.18,107.23z"/>
<path class="st3" d="M135.36,64.31h-18.19v59.79c0,3.44-0.77,6-2.3,7.66c-1.53,1.67-3.52,2.5-5.95,2.5c-2.47,0-4.48-0.84-6.03-2.53
	c-1.55-1.68-2.33-4.23-2.33-7.63V64.31H82.36c-2.84,0-4.96-0.63-6.34-1.88c-1.38-1.25-2.08-2.91-2.08-4.97
	c0-2.13,0.72-3.82,2.16-5.05c1.44-1.24,3.53-1.85,6.26-1.85h53c2.88,0,5.02,0.64,6.43,1.91c1.4,1.27,2.11,2.94,2.11,5
	c0,2.06-0.71,3.71-2.13,4.97C140.34,63.68,138.2,64.31,135.36,64.31z"/>
<path class="st3" d="M218,96.03h-5.84v26.44c0,3.48-0.77,6.04-2.3,7.69c-1.53,1.65-3.54,2.47-6.01,2.47c-2.66,0-4.72-0.86-6.17-2.58
	c-1.46-1.72-2.19-4.25-2.19-7.58V59.14c0-3.59,0.8-6.19,2.41-7.8c1.61-1.61,4.21-2.41,7.8-2.41h27.11c3.74,0,6.94,0.16,9.6,0.48
	c2.66,0.32,5.05,0.96,7.19,1.94c2.58,1.09,4.86,2.64,6.85,4.66c1.98,2.02,3.49,4.37,4.52,7.05c1.03,2.68,1.54,5.51,1.54,8.51
	c0,6.14-1.73,11.04-5.19,14.71c-3.46,3.67-8.71,6.27-15.75,7.8c2.96,1.57,5.78,3.89,8.48,6.96s5.1,6.33,7.21,9.8
	c2.11,3.46,3.76,6.59,4.94,9.38c1.18,2.79,1.77,4.71,1.77,5.75c0,1.09-0.35,2.16-1.04,3.23c-0.69,1.07-1.64,1.91-2.83,2.53
	c-1.2,0.62-2.58,0.93-4.15,0.93c-1.87,0-3.44-0.44-4.71-1.32c-1.27-0.88-2.37-1.99-3.29-3.34s-2.16-3.33-3.73-5.95l-6.68-11.12
	c-2.4-4.08-4.54-7.19-6.43-9.32c-1.89-2.13-3.81-3.59-5.76-4.38C223.41,96.42,220.96,96.03,218,96.03z M227.55,61.44h-15.38v22.62
	h14.93c4,0,7.37-0.35,10.1-1.04c2.73-0.69,4.82-1.87,6.26-3.54c1.44-1.66,2.16-3.96,2.16-6.88c0-2.28-0.58-4.29-1.74-6.03
	s-2.77-3.04-4.83-3.9C237.11,61.86,233.27,61.44,227.55,61.44z"/>
<path class="st3" d="M322.66,108.86c0,4.98-1.28,9.45-3.85,13.42c-2.56,3.97-6.31,7.07-11.26,9.32c-4.94,2.25-10.8,3.37-17.57,3.37
	c-8.12,0-14.82-1.53-20.1-4.6c-3.74-2.21-6.78-5.15-9.12-8.84c-2.34-3.69-3.51-7.27-3.51-10.75c0-2.02,0.7-3.75,2.1-5.19
	c1.4-1.44,3.19-2.16,5.36-2.16c1.76,0,3.25,0.56,4.46,1.69c1.22,1.12,2.25,2.79,3.12,5c1.05,2.62,2.18,4.81,3.4,6.57
	c1.22,1.76,2.93,3.21,5.14,4.35c2.21,1.14,5.11,1.71,8.7,1.71c4.94,0,8.95-1.15,12.04-3.45c3.09-2.3,4.63-5.17,4.63-8.62
	c0-2.73-0.83-4.95-2.5-6.65c-1.67-1.7-3.82-3-6.46-3.9c-2.64-0.9-6.17-1.85-10.58-2.86c-5.91-1.38-10.86-3-14.85-4.86
	c-3.99-1.85-7.15-4.38-9.49-7.58c-2.34-3.2-3.51-7.18-3.51-11.93c0-4.53,1.24-8.55,3.71-12.07c2.47-3.52,6.04-6.22,10.72-8.11
	c4.68-1.89,10.18-2.83,16.5-2.83c5.05,0,9.42,0.63,13.11,1.88c3.69,1.25,6.75,2.92,9.18,5s4.21,4.26,5.33,6.54
	c1.12,2.28,1.68,4.51,1.68,6.68c0,1.98-0.7,3.77-2.11,5.36c-1.4,1.59-3.15,2.39-5.25,2.39c-1.91,0-3.36-0.48-4.35-1.43
	c-0.99-0.95-2.07-2.52-3.23-4.69c-1.5-3.1-3.29-5.53-5.39-7.27c-2.1-1.74-5.46-2.61-10.1-2.61c-4.3,0-7.77,0.94-10.41,2.83
	c-2.64,1.89-3.96,4.16-3.96,6.82c0,1.65,0.45,3.07,1.35,4.27c0.9,1.2,2.13,2.23,3.71,3.09c1.57,0.86,3.16,1.54,4.77,2.02
	c1.61,0.49,4.27,1.2,7.97,2.13c4.64,1.09,8.84,2.28,12.6,3.59c3.76,1.31,6.96,2.9,9.6,4.77c2.64,1.87,4.7,4.24,6.17,7.1
	C321.92,101.19,322.66,104.7,322.66,108.86z"/>
<g>
	<path class="st2" d="M141.95,138.32c-2.11,0.34-4.31,0.05-6.34-0.92c-3.71-1.77-6.04-5.42-6.09-9.53l-0.27-21.77l-18.09-12.12
		c-3.41-2.29-5.2-6.24-4.66-10.31c0.54-4.07,3.29-7.42,7.18-8.74l20.62-6.99L140.25,47c1.12-3.95,4.32-6.87,8.36-7.61
		c4.01-0.8,8.07,0.84,10.53,4.13l13.02,17.46l21.76-0.83c4.1-0.16,7.87,1.99,9.83,5.6c1.96,3.61,1.7,7.94-0.68,11.29l-12.58,17.77
		l7.51,20.44c1.42,3.86,0.54,8.1-2.29,11.08c-2.83,2.98-7.03,4.07-10.95,2.85l-20.79-6.47l-17.12,13.46
		C145.39,137.31,143.7,138.04,141.95,138.32z M120.8,85.57l16.05,10.75c2.93,1.96,4.7,5.24,4.75,8.77l0.24,19.31l15.18-11.94
		c2.78-2.18,6.44-2.86,9.81-1.81l18.44,5.74l-6.66-18.13c-1.22-3.31-0.73-7,1.31-9.88l11.16-15.77l-19.3,0.73
		c-3.52,0.13-6.88-1.47-8.99-4.3l-11.55-15.49l-5.27,18.58c-0.96,3.39-3.53,6.1-6.87,7.23L120.8,85.57z"/>
</g>
</svg>
