<?xml version="1.0" encoding="utf-8"?>
<!-- Generator: Adobe Illustrator 27.9.0, SVG Export Plug-In . SVG Version: 6.00 Build 0)  -->
<svg version="1.1" id="Layer_1" xmlns="http://www.w3.org/2000/svg" xmlns:xlink="http://www.w3.org/1999/xlink" x="0px" y="0px"
	 viewBox="0 0 551.07 177.82" style="enable-background:new 0 0 551.07 177.82;" xml:space="preserve">
<style type="text/css">
	.st0{fill:#D35656;}
	.st1{fill:#5C90CC;}
	.st2{fill:#FFD25B;}
	.st3{fill:#FFF1EC;}
	.st4{fill:#9BBD72;}
	.st5{fill:none;stroke:#000000;stroke-width:8.7206;stroke-linecap:round;stroke-miterlimit:10;}
	.st6{fill:#F9C2D3;}
	.st7{fill:none;stroke:#000000;stroke-width:3;stroke-linecap:round;stroke-miterlimit:10;}
	.st8{fill:#FFD25B;stroke:#FFD25B;stroke-miterlimit:10;}
	.st9{fill:#EF7834;}
	.st10{fill:#23324D;}
	.st11{fill:none;stroke:#000000;stroke-width:3.5;stroke-linecap:round;stroke-miterlimit:10;}
	.st12{fill:none;}
	.st13{fill:none;stroke:#000000;stroke-width:3.1817;stroke-linecap:round;stroke-miterlimit:10;}
	.st14{fill:none;stroke:#000000;stroke-width:4;stroke-linecap:round;stroke-miterlimit:10;}
	.st15{fill:none;stroke:#000000;stroke-width:9;stroke-miterlimit:10;}
	.st16{fill:none;stroke:#000000;stroke-width:5;stroke-linecap:round;stroke-miterlimit:10;}
	.st17{fill:none;stroke:#000000;stroke-width:5.9898;stroke-miterlimit:10;}
	.st18{fill:none;stroke:#000000;stroke-width:5.9898;stroke-linecap:round;stroke-miterlimit:10;}
	.st19{fill:#F7941D;}
	.st20{fill:none;stroke:#000000;stroke-width:3;stroke-miterlimit:10;}
	.st21{fill:none;stroke:#000000;stroke-width:3.0176;stroke-linecap:round;stroke-miterlimit:10;}
	.st22{fill:none;stroke:#000000;stroke-width:2.2105;stroke-linecap:round;stroke-miterlimit:10;}
	.st23{fill:none;stroke:#000000;stroke-width:3.5;stroke-miterlimit:10;}
	.st24{fill:none;stroke:#000000;stroke-width:4;stroke-miterlimit:10;}
	.st25{fill:none;stroke:#000000;stroke-width:4.3732;stroke-linecap:round;stroke-miterlimit:10;}
	.st26{fill:none;stroke:#000000;stroke-width:0.5467;stroke-linecap:round;stroke-miterlimit:10;}
	.st27{fill:none;stroke:#000000;stroke-width:2.9155;stroke-linecap:round;stroke-miterlimit:10;}
	.st28{fill:none;stroke:#000000;stroke-width:3.6444;stroke-linecap:round;stroke-miterlimit:10;}
	.st29{fill:none;stroke:#000000;stroke-width:0.1822;stroke-linecap:round;stroke-miterlimit:10;}
	.st30{fill:none;stroke:#000000;stroke-linecap:round;stroke-miterlimit:10;}
	.st31{fill:none;stroke:#000000;stroke-width:8.6374;stroke-linecap:round;stroke-miterlimit:10;}
	.st32{fill:none;stroke:#000000;stroke-width:8.6374;stroke-miterlimit:10;}
	.st33{fill:none;stroke:#000000;stroke-width:8.6879;stroke-linecap:round;stroke-miterlimit:10;}
	.st34{fill:none;stroke:#000000;stroke-width:6.3642;stroke-linecap:round;stroke-miterlimit:10;}
</style>
<path class="st3" d="M84.18,77.91c0,4.98-1.28,9.45-3.84,13.42c-2.56,3.97-6.32,7.07-11.26,9.32c-4.94,2.25-10.8,3.37-17.57,3.37
	c-8.12,0-14.82-1.53-20.1-4.6c-3.74-2.21-6.78-5.15-9.12-8.84c-2.34-3.69-3.51-7.27-3.51-10.75c0-2.02,0.7-3.75,2.1-5.19
	c1.4-1.44,3.19-2.16,5.36-2.16c1.76,0,3.25,0.56,4.46,1.69c1.22,1.12,2.25,2.79,3.12,5c1.05,2.62,2.18,4.81,3.4,6.57
	c1.22,1.76,2.93,3.21,5.14,4.35c2.21,1.14,5.11,1.71,8.7,1.71c4.94,0,8.95-1.15,12.04-3.45c3.09-2.3,4.63-5.17,4.63-8.62
	c0-2.73-0.83-4.95-2.5-6.65c-1.67-1.7-3.82-3-6.46-3.9c-2.64-0.9-6.17-1.85-10.58-2.86c-5.91-1.38-10.86-3-14.85-4.86
	c-3.99-1.85-7.15-4.38-9.49-7.58c-2.34-3.2-3.51-7.18-3.51-11.93c0-4.53,1.24-8.55,3.71-12.07c2.47-3.52,6.04-6.22,10.72-8.11
	c4.68-1.89,10.18-2.83,16.5-2.83c5.05,0,9.42,0.63,13.11,1.88c3.69,1.25,6.75,2.92,9.18,5c2.43,2.08,4.21,4.26,5.33,6.54
	c1.12,2.28,1.68,4.51,1.68,6.68c0,1.98-0.7,3.77-2.1,5.36c-1.4,1.59-3.15,2.39-5.25,2.39c-1.91,0-3.36-0.48-4.35-1.43
	c-0.99-0.95-2.07-2.52-3.23-4.69c-1.5-3.1-3.29-5.53-5.39-7.27c-2.1-1.74-5.46-2.61-10.1-2.61c-4.3,0-7.78,0.94-10.41,2.83
	c-2.64,1.89-3.96,4.16-3.96,6.82c0,1.65,0.45,3.07,1.35,4.27c0.9,1.2,2.13,2.23,3.71,3.09c1.57,0.86,3.16,1.54,4.77,2.02
	c1.61,0.49,4.27,1.2,7.97,2.13c4.64,1.09,8.84,2.28,12.6,3.59c3.76,1.31,6.96,2.9,9.6,4.77c2.64,1.87,4.7,4.24,6.18,7.1
	C83.44,70.25,84.18,73.76,84.18,77.91z"/>
<path class="st3" d="M135.36,35h-18.19v59.79c0,3.44-0.77,6-2.3,7.66c-1.53,1.67-3.52,2.5-5.95,2.5c-2.47,0-4.48-0.84-6.03-2.53
	c-1.55-1.68-2.33-4.23-2.33-7.63V35H82.36c-2.84,0-4.96-0.63-6.34-1.88c-1.38-1.25-2.08-2.91-2.08-4.97c0-2.13,0.72-3.82,2.16-5.05
	c1.44-1.24,3.53-1.85,6.26-1.85h53c2.88,0,5.02,0.64,6.43,1.91s2.11,2.94,2.11,5s-0.71,3.71-2.13,4.97
	C140.34,34.37,138.2,35,135.36,35z"/>
<path class="st3" d="M218,66.71h-5.84v26.44c0,3.48-0.77,6.04-2.3,7.69c-1.53,1.65-3.54,2.47-6.01,2.47c-2.66,0-4.72-0.86-6.17-2.58
	c-1.46-1.72-2.19-4.25-2.19-7.58V29.83c0-3.59,0.8-6.19,2.41-7.8c1.61-1.61,4.21-2.41,7.8-2.41h27.11c3.74,0,6.94,0.16,9.6,0.48
	c2.66,0.32,5.05,0.96,7.19,1.94c2.58,1.09,4.86,2.64,6.85,4.66c1.98,2.02,3.49,4.37,4.52,7.05c1.03,2.68,1.54,5.51,1.54,8.51
	c0,6.14-1.73,11.04-5.19,14.71c-3.46,3.67-8.71,6.27-15.75,7.8c2.96,1.57,5.78,3.89,8.48,6.96s5.1,6.33,7.21,9.8
	s3.76,6.59,4.94,9.38c1.18,2.79,1.77,4.71,1.77,5.75c0,1.09-0.35,2.16-1.04,3.23c-0.69,1.07-1.64,1.91-2.83,2.53
	c-1.2,0.62-2.58,0.93-4.15,0.93c-1.87,0-3.44-0.44-4.71-1.32c-1.27-0.88-2.37-1.99-3.29-3.34s-2.16-3.33-3.73-5.95l-6.68-11.12
	c-2.4-4.08-4.54-7.19-6.43-9.32c-1.89-2.13-3.81-3.59-5.76-4.38C223.41,67.11,220.96,66.71,218,66.71z M227.55,32.13h-15.38v22.62
	h14.93c4,0,7.37-0.35,10.1-1.04c2.73-0.69,4.82-1.87,6.26-3.54c1.44-1.66,2.16-3.96,2.16-6.88c0-2.28-0.58-4.29-1.74-6.03
	s-2.77-3.04-4.83-3.9C237.11,32.54,233.27,32.13,227.55,32.13z"/>
<path class="st3" d="M322.66,79.55c0,4.98-1.28,9.45-3.85,13.42c-2.56,3.97-6.31,7.07-11.26,9.32c-4.94,2.25-10.8,3.37-17.57,3.37
	c-8.12,0-14.82-1.53-20.1-4.6c-3.74-2.21-6.78-5.15-9.12-8.84c-2.34-3.69-3.51-7.27-3.51-10.75c0-2.02,0.7-3.75,2.1-5.19
	c1.4-1.44,3.19-2.16,5.36-2.16c1.76,0,3.25,0.56,4.46,1.69c1.22,1.12,2.25,2.79,3.12,5c1.05,2.62,2.18,4.81,3.4,6.57
	c1.22,1.76,2.93,3.21,5.14,4.35c2.21,1.14,5.11,1.71,8.7,1.71c4.94,0,8.95-1.15,12.04-3.45c3.09-2.3,4.63-5.17,4.63-8.62
	c0-2.73-0.83-4.95-2.5-6.65c-1.67-1.7-3.82-3-6.46-3.9c-2.64-0.9-6.17-1.85-10.58-2.86c-5.91-1.38-10.86-3-14.85-4.86
	c-3.99-1.85-7.15-4.38-9.49-7.58c-2.34-3.2-3.51-7.18-3.51-11.93c0-4.53,1.24-8.55,3.71-12.07c2.47-3.52,6.04-6.22,10.72-8.11
	c4.68-1.89,10.18-2.83,16.5-2.83c5.05,0,9.42,0.63,13.11,1.88c3.69,1.25,6.75,2.92,9.18,5s4.21,4.26,5.33,6.54
	c1.12,2.28,1.68,4.51,1.68,6.68c0,1.98-0.7,3.77-2.11,5.36c-1.4,1.59-3.15,2.39-5.25,2.39c-1.91,0-3.36-0.48-4.35-1.43
	c-0.99-0.95-2.07-2.52-3.23-4.69c-1.5-3.1-3.29-5.53-5.39-7.27c-2.1-1.74-5.46-2.61-10.1-2.61c-4.3,0-7.77,0.94-10.41,2.83
	c-2.64,1.89-3.96,4.16-3.96,6.82c0,1.65,0.45,3.07,1.35,4.27c0.9,1.2,2.13,2.23,3.71,3.09c1.57,0.86,3.16,1.54,4.77,2.02
	c1.61,0.49,4.27,1.2,7.97,2.13c4.64,1.09,8.84,2.28,12.6,3.59c3.76,1.31,6.96,2.9,9.6,4.77c2.64,1.87,4.7,4.24,6.17,7.1
	C321.92,71.88,322.66,75.39,322.66,79.55z"/>
<path class="st3" d="M23.55,133.56c0-0.93,0.75-1.5,1.54-1.5c0.71,0,0.99,0.42,1.4,0.89c0.53,0.61,1.28,1.19,3.32,1.19
	c1.84,0,3.24-0.53,3.24-1.72c0-0.95-1.38-1.13-3.04-1.26c-2.61-0.24-6.03-0.32-6.03-3.89c0-2.83,2.39-4.33,5.89-4.33
	c3.32,0,5.87,1.17,5.87,3.08c0,0.91-0.73,1.48-1.46,1.48c-0.43,0-0.71-0.1-1.23-0.55c-0.49-0.43-1.26-1.09-3.18-1.09
	c-1.72,0-2.96,0.49-2.96,1.4c0,0.95,0.99,1.25,2.91,1.4c2.71,0.24,6.21,0.24,6.21,3.75c0,3.34-2.92,4.62-6.25,4.62
	C25.75,137.04,23.55,135.32,23.55,133.56z"/>
<path class="st3" d="M38.89,133.44v-4.27l-0.61,0.04c-0.79,0.06-1.42-0.67-1.42-1.4c0-0.85,0.67-1.42,1.42-1.4l0.69,0.02l-0.02-1.25
	c-0.02-0.75,0.71-1.32,1.38-1.32c0.83,0,1.42,0.65,1.4,1.44l-0.04,1.13l1.88-0.04c0.81-0.02,1.42,0.59,1.42,1.38
	s-0.61,1.48-1.42,1.46l-1.84-0.06v3.52c0,0.89,0.46,1.25,1.05,1.25c0.51,0,0.85-0.12,1.19-0.3c0.24-0.12,0.42-0.18,0.61-0.18
	c0.53,0,0.93,0.53,0.93,1.23c0,1.54-1.7,2.35-3.36,2.35C40.43,137.04,38.89,136.21,38.89,133.44z"/>
<path class="st3" d="M46.95,133.29v-5.83c0-0.75,0.67-1.36,1.42-1.36c0.77,0,1.42,0.61,1.42,1.36v5.02c0,1.01,0.65,1.64,1.96,1.64
	c1.44,0,2.67-0.79,2.67-1.68v-4.98c0-0.75,0.67-1.36,1.44-1.36s1.4,0.61,1.4,1.36v6.15l0.24,2.11c0.08,0.71-0.55,1.32-1.36,1.32
	c-0.63,0-1.26-0.46-1.32-1.17l-0.14-1.68h-0.16c-0.43,2.02-2.13,2.85-3.83,2.85C48.45,137.04,46.95,135.8,46.95,133.29z"/>
<path class="st3" d="M59.6,131.59c0-3.91,2.33-5.51,4.7-5.51c1.86,0,3.26,0.99,3.6,3.12h0.22c-0.02-0.95-0.02-1.92-0.02-2.87v-2.02
	c0-0.77,0.65-1.38,1.42-1.38c0.75,0,1.42,0.61,1.42,1.38v9.54l0.22,1.76c0.1,0.77-0.69,1.42-1.38,1.42c-0.61,0-1.36-0.42-1.44-1.3
	l-0.16-1.9h-0.16c-0.51,2.29-2.21,3.2-4.19,3.18C61.52,136.98,59.6,135.5,59.6,131.59z M68.18,131.61c0-1.5-0.89-2.37-3-2.37
	c-1.74,0-2.79,0.63-2.79,2.39c0,1.84,1.09,2.39,2.83,2.39C67.39,134.02,68.18,133.29,68.18,131.61z"/>
<path class="st3" d="M84.11,134.33c0,1.78-2.73,2.71-5.12,2.71c-3.5,0-5.85-1.92-5.85-5.41c0-3.44,2.39-5.53,5.77-5.53
	c3.62,0,5.55,1.96,5.55,4.43c0,1.36-0.73,1.9-2.15,1.9h-6.28c0.26,1.25,1.72,1.76,3.12,1.76c1.21,0,1.92-0.38,2.53-0.69
	c0.55-0.3,0.77-0.4,1.21-0.4C83.48,133.09,84.11,133.52,84.11,134.33z M76.01,130.56l5.65-0.1c0-0.87-1.03-1.78-2.73-1.78
	C77.57,128.68,76.22,129.29,76.01,130.56z"/>
<path class="st3" d="M86.62,135.68v-5.91l-0.18-2.33c-0.06-0.73,0.57-1.34,1.34-1.34c0.69,0,1.32,0.51,1.36,1.19l0.08,1.58h0.14
	c0.44-2.02,2.17-2.83,3.85-2.83c2.23,0,3.73,1.23,3.73,3.74v5.91c0,0.75-0.69,1.36-1.44,1.36s-1.42-0.61-1.42-1.36v-5.1
	c0-1.01-0.65-1.64-1.96-1.64c-1.44,0-2.67,0.79-2.67,1.68v5.06c0,0.75-0.67,1.36-1.44,1.36C87.27,137.04,86.62,136.43,86.62,135.68z
	"/>
<path class="st3" d="M100.16,133.44v-4.27l-0.61,0.04c-0.79,0.06-1.42-0.67-1.42-1.4c0-0.85,0.67-1.42,1.42-1.4l0.69,0.02
	l-0.02-1.25c-0.02-0.75,0.71-1.32,1.38-1.32c0.83,0,1.42,0.65,1.4,1.44l-0.04,1.13l1.88-0.04c0.81-0.02,1.42,0.59,1.42,1.38
	s-0.61,1.48-1.42,1.46l-1.84-0.06v3.52c0,0.89,0.46,1.25,1.05,1.25c0.51,0,0.85-0.12,1.19-0.3c0.24-0.12,0.42-0.18,0.61-0.18
	c0.53,0,0.93,0.53,0.93,1.23c0,1.54-1.7,2.35-3.36,2.35C101.7,137.04,100.16,136.21,100.16,133.44z"/>
<path class="st3" d="M112.82,133.74c0-1.94,1.46-3.14,4.19-3.14c1.82,0,2.88,0.79,3.4,1.62h0.08v-1.58c0-1.17-1.11-1.68-2.49-1.68
	c-1.23,0-1.76,0.3-2.08,0.65c-0.38,0.42-0.69,0.75-1.36,0.75c-0.87,0-1.36-0.57-1.36-1.34c0-2,2.59-2.91,5.04-2.91
	c3.04,0,5.12,1.07,5.12,4.27v3.7l0.22,1.44c0.12,0.81-0.57,1.52-1.38,1.52c-0.75,0-1.3-0.55-1.4-1.21l-0.18-1.17h-0.14
	c-0.49,1.42-1.74,2.33-3.87,2.33C114.42,137,112.82,135.95,112.82,133.74z M120.61,133.62c0-0.59-1.29-0.87-2.53-0.87
	c-1.38,0-2.47,0.22-2.47,0.87c0,0.65,1.09,0.87,2.45,0.87C119.31,134.49,120.61,134.21,120.61,133.62z"/>
<path class="st3" d="M126.05,135.68v-5.91l-0.18-2.33c-0.06-0.73,0.57-1.34,1.34-1.34c0.69,0,1.32,0.51,1.36,1.19l0.08,1.58h0.14
	c0.44-2.02,2.17-2.83,3.85-2.83c2.23,0,3.73,1.23,3.73,3.74v5.91c0,0.75-0.69,1.36-1.44,1.36s-1.42-0.61-1.42-1.36v-5.1
	c0-1.01-0.65-1.64-1.96-1.64c-1.44,0-2.67,0.79-2.67,1.68v5.06c0,0.75-0.67,1.36-1.44,1.36
	C126.7,137.04,126.05,136.43,126.05,135.68z"/>
<path class="st3" d="M138.46,131.59c0-3.91,2.33-5.51,4.7-5.51c1.86,0,3.26,0.99,3.6,3.12h0.22c-0.02-0.95-0.02-1.92-0.02-2.87
	v-2.02c0-0.77,0.65-1.38,1.42-1.38c0.75,0,1.42,0.61,1.42,1.38v9.54l0.22,1.76c0.1,0.77-0.69,1.42-1.38,1.42
	c-0.61,0-1.36-0.42-1.44-1.3l-0.16-1.9h-0.16c-0.51,2.29-2.21,3.2-4.19,3.18C140.37,136.98,138.46,135.5,138.46,131.59z
	 M147.03,131.61c0-1.5-0.89-2.37-3-2.37c-1.74,0-2.79,0.63-2.79,2.39c0,1.84,1.09,2.39,2.83,2.39
	C146.24,134.02,147.03,133.29,147.03,131.61z"/>
<path class="st3" d="M160.67,135.68v-9.45h-2.41c-0.85,0-1.6-0.69-1.6-1.52c0-0.85,0.75-1.54,1.6-1.54h7.73
	c0.85,0,1.58,0.69,1.58,1.54c0,0.83-0.73,1.52-1.58,1.52h-2.43v9.45c0,0.75-0.65,1.36-1.44,1.36
	C161.32,137.04,160.67,136.43,160.67,135.68z"/>
<path class="st3" d="M177.92,134.33c0,1.78-2.73,2.71-5.12,2.71c-3.5,0-5.85-1.92-5.85-5.41c0-3.44,2.39-5.53,5.77-5.53
	c3.62,0,5.55,1.96,5.55,4.43c0,1.36-0.73,1.9-2.15,1.9h-6.28c0.26,1.25,1.72,1.76,3.12,1.76c1.21,0,1.92-0.38,2.53-0.69
	c0.55-0.3,0.77-0.4,1.21-0.4C177.29,133.09,177.92,133.52,177.92,134.33z M169.82,130.56l5.65-0.1c0-0.87-1.03-1.78-2.73-1.78
	C171.38,128.68,170.04,129.29,169.82,130.56z"/>
<path class="st3" d="M179.68,133.74c0-1.94,1.46-3.14,4.19-3.14c1.82,0,2.88,0.79,3.4,1.62h0.08v-1.58c0-1.17-1.11-1.68-2.49-1.68
	c-1.23,0-1.76,0.3-2.08,0.65c-0.38,0.42-0.69,0.75-1.36,0.75c-0.87,0-1.36-0.57-1.36-1.34c0-2,2.59-2.91,5.04-2.91
	c3.04,0,5.12,1.07,5.12,4.27v3.7l0.22,1.44c0.12,0.81-0.57,1.52-1.38,1.52c-0.75,0-1.3-0.55-1.4-1.21l-0.18-1.17h-0.14
	c-0.49,1.42-1.74,2.33-3.87,2.33C181.28,137,179.68,135.95,179.68,133.74z M187.47,133.62c0-0.59-1.29-0.87-2.53-0.87
	c-1.38,0-2.47,0.22-2.47,0.87c0,0.65,1.09,0.87,2.45,0.87C186.16,134.49,187.47,134.21,187.47,133.62z"/>
<path class="st3" d="M192.25,131.41c0-3.26,2.21-5.32,5.75-5.32c2.27,0,4.72,1.01,4.72,2.57c0,0.67-0.63,1.34-1.3,1.34
	c-0.49,0-0.77-0.28-1.19-0.51c-0.69-0.42-1.32-0.61-2.15-0.61c-1.54,0-3.04,0.51-3.04,2.65c0,2,1.58,2.65,3.2,2.65
	c0.99,0,1.62-0.32,2.11-0.61c0.51-0.3,0.81-0.44,1.26-0.44c0.77,0,1.25,0.73,1.25,1.34c0,1.29-2.09,2.57-4.74,2.57
	C194.54,137.04,192.25,135.14,192.25,131.41z"/>
<path class="st3" d="M204.86,135.68V124.3c0-0.77,0.67-1.36,1.42-1.36c0.77,0,1.42,0.59,1.42,1.36v1.68c0,0.77-0.14,2.19-0.24,2.88
	h0.14c0.44-2.02,2.17-2.83,3.85-2.83c2.23,0,3.73,1.23,3.73,3.74v5.91c0,0.75-0.69,1.36-1.44,1.36s-1.42-0.61-1.42-1.36v-5.1
	c0-1.01-0.65-1.64-1.96-1.64c-1.44,0-2.67,0.79-2.67,1.68v5.06c0,0.75-0.65,1.36-1.42,1.36
	C205.53,137.04,204.86,136.43,204.86,135.68z"/>
<path class="st3" d="M228.16,134.33c0,1.78-2.73,2.71-5.12,2.71c-3.5,0-5.85-1.92-5.85-5.41c0-3.44,2.39-5.53,5.77-5.53
	c3.62,0,5.55,1.96,5.55,4.43c0,1.36-0.73,1.9-2.15,1.9h-6.28c0.26,1.25,1.72,1.76,3.12,1.76c1.21,0,1.92-0.38,2.53-0.69
	c0.55-0.3,0.77-0.4,1.21-0.4C227.53,133.09,228.16,133.52,228.16,134.33z M220.06,130.56l5.65-0.1c0-0.87-1.03-1.78-2.73-1.78
	C221.62,128.68,220.28,129.29,220.06,130.56z"/>
<path class="st3" d="M230.67,135.68v-5.91l-0.18-2.33c-0.06-0.73,0.61-1.34,1.34-1.34c0.69,0,1.3,0.51,1.34,1.19l0.12,1.96h0.2
	c0.38-2.43,1.76-3.14,2.85-3.14c0.91,0,1.42,0.75,1.42,1.56c0,0.93-0.63,1.92-1.84,1.92c-1.21,0-2.41,0.43-2.41,1.64v4.47
	c0,0.75-0.65,1.36-1.42,1.36S230.67,136.43,230.67,135.68z"/>
<path class="st3" d="M256.26,135.06c0.32,0.81-0.1,1.98-1.42,1.98c-0.71,0-1.29-0.43-1.58-1.46l-0.49-1.72h-5.63l-0.57,2
	c-0.18,0.69-0.75,1.19-1.58,1.19c-1.13,0-1.7-0.91-1.25-2.17l3.5-9.43c0.51-1.38,1.34-2.51,2.79-2.51c1.52,0,2.27,1.17,2.71,2.51
	L256.26,135.06z M249.68,126.21l-1.72,4.74h3.95l-1.68-4.74H249.68z"/>
<path class="st3" d="M257.67,131.41c0-3.26,2.21-5.32,5.75-5.32c2.27,0,4.72,1.01,4.72,2.57c0,0.67-0.63,1.34-1.3,1.34
	c-0.49,0-0.77-0.28-1.19-0.51c-0.69-0.42-1.32-0.61-2.15-0.61c-1.54,0-3.04,0.51-3.04,2.65c0,2,1.58,2.65,3.2,2.65
	c0.99,0,1.62-0.32,2.11-0.61c0.51-0.3,0.81-0.44,1.26-0.44c0.77,0,1.25,0.73,1.25,1.34c0,1.29-2.09,2.57-4.74,2.57
	C259.96,137.04,257.67,135.14,257.67,131.41z"/>
<path class="st3" d="M269.98,133.74c0-1.94,1.46-3.14,4.19-3.14c1.82,0,2.88,0.79,3.4,1.62h0.08v-1.58c0-1.17-1.11-1.68-2.49-1.68
	c-1.23,0-1.76,0.3-2.08,0.65c-0.38,0.42-0.69,0.75-1.36,0.75c-0.87,0-1.36-0.57-1.36-1.34c0-2,2.59-2.91,5.04-2.91
	c3.04,0,5.12,1.07,5.12,4.27v3.7l0.22,1.44c0.12,0.81-0.57,1.52-1.38,1.52c-0.75,0-1.3-0.55-1.4-1.21l-0.18-1.17h-0.14
	c-0.49,1.42-1.74,2.33-3.87,2.33C271.58,137,269.98,135.95,269.98,133.74z M277.77,133.62c0-0.59-1.29-0.87-2.53-0.87
	c-1.38,0-2.47,0.22-2.47,0.87c0,0.65,1.09,0.87,2.45,0.87C276.46,134.49,277.77,134.21,277.77,133.62z"/>
<path class="st3" d="M282.63,131.59c0-3.91,2.33-5.51,4.7-5.51c1.86,0,3.26,0.99,3.6,3.12h0.22c-0.02-0.95-0.02-1.92-0.02-2.87
	v-2.02c0-0.77,0.65-1.38,1.42-1.38c0.75,0,1.42,0.61,1.42,1.38v9.54l0.22,1.76c0.1,0.77-0.69,1.42-1.38,1.42
	c-0.61,0-1.36-0.42-1.44-1.3l-0.16-1.9h-0.16c-0.51,2.29-2.21,3.2-4.19,3.18C284.55,136.98,282.63,135.5,282.63,131.59z
	 M291.21,131.61c0-1.5-0.89-2.37-3-2.37c-1.74,0-2.79,0.63-2.79,2.39c0,1.84,1.09,2.39,2.83,2.39
	C290.41,134.02,291.21,133.29,291.21,131.61z"/>
<path class="st3" d="M307.13,134.33c0,1.78-2.73,2.71-5.12,2.71c-3.5,0-5.85-1.92-5.85-5.41c0-3.44,2.39-5.53,5.77-5.53
	c3.62,0,5.55,1.96,5.55,4.43c0,1.36-0.73,1.9-2.15,1.9h-6.28c0.26,1.25,1.72,1.76,3.12,1.76c1.21,0,1.92-0.38,2.53-0.69
	c0.55-0.3,0.77-0.4,1.21-0.4C306.5,133.09,307.13,133.52,307.13,134.33z M299.03,130.56l5.65-0.1c0-0.87-1.03-1.78-2.73-1.78
	C300.59,128.68,299.25,129.29,299.03,130.56z"/>
<path class="st3" d="M309.67,135.68v-5.81l-0.2-2.43c-0.06-0.73,0.61-1.34,1.34-1.34c0.71,0,1.32,0.53,1.36,1.19l0.1,1.6h0.14
	c0.42-1.94,2-2.83,3.67-2.83c1.96,0,3.06,1.21,3.28,3.18h0.12c0.42-2.25,1.8-3.2,3.62-3.2c2.33,0,3.38,1.34,3.38,3.71v5.93
	c0,0.75-0.67,1.36-1.42,1.36s-1.42-0.61-1.42-1.36v-5.12c0-0.85-0.53-1.58-1.72-1.58c-1.42,0-2.39,0.73-2.39,1.74v4.96
	c0,0.75-0.63,1.36-1.42,1.36c-0.79,0-1.42-0.61-1.42-1.36v-5.12c0-0.85-0.59-1.58-1.8-1.58c-1.4,0-2.37,0.73-2.37,1.76v4.94
	c0,0.75-0.65,1.36-1.42,1.36C310.34,137.04,309.67,136.43,309.67,135.68z"/>
<path class="st3" d="M329.57,135.68v-6.34h-0.16c-0.89,0-1.56-0.67-1.56-1.52s0.63-1.5,1.48-1.5h2.09c0.53,0,0.99,0.39,0.99,0.91
	v8.46c0,0.75-0.65,1.36-1.42,1.36C330.24,137.04,329.57,136.43,329.57,135.68z M329.05,123.76c0-0.97,0.59-1.64,1.78-1.64
	c1.17,0,1.8,0.69,1.8,1.64c0,0.93-0.63,1.6-1.8,1.6S329.05,124.69,329.05,123.76z"/>
<path class="st3" d="M334.63,131.41c0-3.26,2.21-5.32,5.75-5.32c2.27,0,4.72,1.01,4.72,2.57c0,0.67-0.63,1.34-1.3,1.34
	c-0.49,0-0.77-0.28-1.19-0.51c-0.69-0.42-1.32-0.61-2.15-0.61c-1.54,0-3.04,0.51-3.04,2.65c0,2,1.58,2.65,3.2,2.65
	c0.99,0,1.62-0.32,2.11-0.61c0.51-0.3,0.81-0.44,1.26-0.44c0.77,0,1.25,0.73,1.25,1.34c0,1.29-2.09,2.57-4.74,2.57
	C336.92,137.04,334.63,135.14,334.63,131.41z"/>
<path class="st3" d="M25.16,157.02v-10.87c0-0.99,0.71-1.5,1.42-1.5h4.35c3.46,0,5.43,1.44,5.43,4.03c0,1.4-0.75,3.08-2.71,3.77
	c0.93,0.34,1.34,1.09,1.7,1.92l0.81,1.94c0.53,1.26-0.28,2.21-1.29,2.21c-0.57,0-1.15-0.32-1.44-1.09l-1.01-2.61
	c-0.34-0.85-0.85-1.17-1.94-1.26l-2.47-0.22v3.68c0,0.99-0.71,1.5-1.42,1.5C25.88,158.52,25.16,158.02,25.16,157.02z M28.03,150.81
	h3.16c1.54,0,2.29-0.59,2.29-1.7s-0.89-1.54-2.31-1.54h-3.14V150.81z"/>
<path class="st3" d="M48.74,155.81c0,1.78-2.73,2.71-5.12,2.71c-3.5,0-5.85-1.92-5.85-5.41c0-3.44,2.39-5.53,5.77-5.53
	c3.62,0,5.55,1.96,5.55,4.43c0,1.36-0.73,1.9-2.15,1.9h-6.28c0.26,1.25,1.72,1.76,3.12,1.76c1.21,0,1.92-0.38,2.53-0.69
	c0.55-0.3,0.77-0.4,1.21-0.4C48.11,154.57,48.74,155,48.74,155.81z M40.64,152.04l5.65-0.1c0-0.87-1.03-1.78-2.73-1.78
	C42.2,150.16,40.86,150.77,40.64,152.04z"/>
<path class="st3" d="M50.42,156.07c0-0.83,0.67-1.5,1.36-1.5c0.65,0,0.83,0.3,1.25,0.63c0.43,0.36,1.22,0.55,2.55,0.55
	c1.6,0,2.59-0.08,2.59-0.93c0-0.71-1.7-0.75-3.06-0.85c-2.49-0.18-4.39-0.57-4.39-3.08c0-2.17,1.94-3.38,5.04-3.38
	c2.79,0,4.86,0.83,4.86,2.29c0,0.85-0.65,1.5-1.36,1.5c-0.4,0-0.65-0.14-0.91-0.39c-0.47-0.49-1.34-0.65-2.63-0.65
	c-1.34,0-2.37,0.26-2.37,0.83c0,0.65,0.91,0.75,2.65,0.87c2.23,0.16,4.8,0.36,4.8,2.83c0,2.55-2.29,3.73-5.22,3.73
	C52.32,158.52,50.42,157.73,50.42,156.07z"/>
<path class="st3" d="M62.32,152.99c0-3.22,1.94-5.47,5.73-5.47c3.85,0,5.79,2.25,5.79,5.47s-1.94,5.53-5.79,5.53
	C64.26,158.52,62.32,156.21,62.32,152.99z M71.13,152.97c0-1.8-1.13-2.59-3.06-2.59s-3.06,0.79-3.06,2.59
	c0,1.86,1.13,2.69,3.04,2.69C70.01,155.65,71.13,154.82,71.13,152.97z"/>
<path class="st3" d="M75.84,154.76v-5.83c0-0.75,0.67-1.36,1.42-1.36c0.77,0,1.42,0.61,1.42,1.36v5.02c0,1.01,0.65,1.64,1.96,1.64
	c1.44,0,2.67-0.79,2.67-1.68v-4.98c0-0.75,0.67-1.36,1.44-1.36s1.4,0.61,1.4,1.36v6.15l0.24,2.11c0.08,0.71-0.55,1.32-1.36,1.32
	c-0.63,0-1.26-0.46-1.32-1.17l-0.14-1.68h-0.16c-0.43,2.02-2.13,2.85-3.83,2.85C77.34,158.52,75.84,157.27,75.84,154.76z"/>
<path class="st3" d="M89.06,157.16v-5.91l-0.18-2.33c-0.06-0.73,0.61-1.34,1.34-1.34c0.69,0,1.3,0.51,1.34,1.19l0.12,1.96h0.2
	c0.38-2.43,1.76-3.14,2.85-3.14c0.91,0,1.42,0.75,1.42,1.56c0,0.93-0.63,1.92-1.84,1.92c-1.21,0-2.41,0.43-2.41,1.64v4.47
	c0,0.75-0.65,1.36-1.42,1.36S89.06,157.91,89.06,157.16z"/>
<path class="st3" d="M96.85,152.89c0-3.26,2.21-5.32,5.75-5.32c2.27,0,4.72,1.01,4.72,2.57c0,0.67-0.63,1.34-1.3,1.34
	c-0.49,0-0.77-0.28-1.19-0.51c-0.69-0.42-1.32-0.61-2.15-0.61c-1.54,0-3.04,0.51-3.04,2.65c0,2,1.58,2.65,3.2,2.65
	c0.99,0,1.62-0.32,2.11-0.61c0.51-0.3,0.81-0.44,1.26-0.44c0.77,0,1.25,0.73,1.25,1.34c0,1.29-2.09,2.57-4.74,2.57
	C99.14,158.52,96.85,156.62,96.85,152.89z"/>
<path class="st3" d="M119.77,155.81c0,1.78-2.73,2.71-5.12,2.71c-3.5,0-5.85-1.92-5.85-5.41c0-3.44,2.39-5.53,5.77-5.53
	c3.62,0,5.55,1.96,5.55,4.43c0,1.36-0.73,1.9-2.15,1.9h-6.28c0.26,1.25,1.72,1.76,3.12,1.76c1.21,0,1.92-0.38,2.53-0.69
	c0.55-0.3,0.77-0.4,1.21-0.4C119.14,154.57,119.77,155,119.77,155.81z M111.67,152.04l5.65-0.1c0-0.87-1.03-1.78-2.73-1.78
	C113.23,150.16,111.89,150.77,111.67,152.04z"/>
<path class="st3" d="M126.63,155.04c0-0.93,0.75-1.5,1.54-1.5c0.71,0,0.99,0.42,1.4,0.89c0.53,0.61,1.28,1.19,3.32,1.19
	c1.84,0,3.24-0.53,3.24-1.72c0-0.95-1.38-1.13-3.04-1.26c-2.61-0.24-6.03-0.32-6.03-3.89c0-2.83,2.39-4.33,5.89-4.33
	c3.32,0,5.87,1.17,5.87,3.08c0,0.91-0.73,1.48-1.46,1.48c-0.43,0-0.71-0.1-1.23-0.55c-0.49-0.43-1.26-1.09-3.18-1.09
	c-1.72,0-2.96,0.49-2.96,1.4c0,0.95,0.99,1.25,2.91,1.4c2.71,0.24,6.21,0.24,6.21,3.75c0,3.34-2.92,4.62-6.25,4.62
	C128.82,158.52,126.63,156.8,126.63,155.04z"/>
<path class="st3" d="M141.14,154.76v-5.83c0-0.75,0.67-1.36,1.42-1.36c0.77,0,1.42,0.61,1.42,1.36v5.02c0,1.01,0.65,1.64,1.96,1.64
	c1.44,0,2.67-0.79,2.67-1.68v-4.98c0-0.75,0.67-1.36,1.44-1.36s1.4,0.61,1.4,1.36v6.15l0.24,2.11c0.08,0.71-0.55,1.32-1.36,1.32
	c-0.63,0-1.26-0.46-1.32-1.17l-0.14-1.68h-0.16c-0.43,2.02-2.13,2.85-3.83,2.85C142.64,158.52,141.14,157.27,141.14,154.76z"/>
<path class="st3" d="M154.4,160.97v-9.72l-0.18-2.33c-0.06-0.73,0.57-1.34,1.36-1.34c0.71,0,1.29,0.4,1.32,1.19l0.12,2.02h0.16
	c0.51-2.51,2.35-3.24,4.29-3.22c2.47,0.04,4.29,1.52,4.29,5.35c0,3.99-2.33,5.53-4.7,5.53c-1.82,0-3.28-0.97-3.62-3.1h-0.22
	c0.02,0.99,0.02,1.96,0.02,2.94v2.69c0,0.75-0.65,1.36-1.42,1.36C155.07,162.33,154.4,161.72,154.4,160.97z M162.97,152.95
	c0-1.84-1.09-2.39-2.83-2.39c-2.15,0-2.94,0.73-2.94,2.41c0,1.5,0.87,2.37,2.98,2.37C161.9,155.34,162.97,154.7,162.97,152.95z"/>
<path class="st3" d="M167.84,160.97v-9.72l-0.18-2.33c-0.06-0.73,0.57-1.34,1.36-1.34c0.71,0,1.29,0.4,1.32,1.19l0.12,2.02h0.16
	c0.51-2.51,2.35-3.24,4.29-3.22c2.47,0.04,4.29,1.52,4.29,5.35c0,3.99-2.33,5.53-4.7,5.53c-1.82,0-3.28-0.97-3.62-3.1h-0.22
	c0.02,0.99,0.02,1.96,0.02,2.94v2.69c0,0.75-0.65,1.36-1.42,1.36C168.51,162.33,167.84,161.72,167.84,160.97z M176.41,152.95
	c0-1.84-1.09-2.39-2.83-2.39c-2.15,0-2.94,0.73-2.94,2.41c0,1.5,0.87,2.37,2.98,2.37C175.34,155.34,176.41,154.7,176.41,152.95z"/>
<path class="st3" d="M180.78,152.99c0-3.22,1.94-5.47,5.73-5.47c3.85,0,5.79,2.25,5.79,5.47s-1.94,5.53-5.79,5.53
	C182.72,158.52,180.78,156.21,180.78,152.99z M189.59,152.97c0-1.8-1.13-2.59-3.06-2.59s-3.06,0.79-3.06,2.59
	c0,1.86,1.13,2.69,3.04,2.69C188.47,155.65,189.59,154.82,189.59,152.97z"/>
<path class="st3" d="M194.5,157.16v-5.91l-0.18-2.33c-0.06-0.73,0.61-1.34,1.34-1.34c0.69,0,1.3,0.51,1.34,1.19l0.12,1.96h0.2
	c0.38-2.43,1.76-3.14,2.85-3.14c0.91,0,1.42,0.75,1.42,1.56c0,0.93-0.63,1.92-1.84,1.92c-1.21,0-2.41,0.43-2.41,1.64v4.47
	c0,0.75-0.65,1.36-1.42,1.36S194.5,157.91,194.5,157.16z"/>
<path class="st3" d="M204.44,154.92v-4.27l-0.61,0.04c-0.79,0.06-1.42-0.67-1.42-1.4c0-0.85,0.67-1.42,1.42-1.4l0.69,0.02
	l-0.02-1.25c-0.02-0.75,0.71-1.32,1.38-1.32c0.83,0,1.42,0.65,1.4,1.44l-0.04,1.13l1.88-0.04c0.81-0.02,1.42,0.59,1.42,1.38
	s-0.61,1.48-1.42,1.46l-1.84-0.06v3.52c0,0.89,0.46,1.25,1.05,1.25c0.51,0,0.85-0.12,1.19-0.3c0.24-0.12,0.42-0.18,0.61-0.18
	c0.53,0,0.93,0.53,0.93,1.23c0,1.54-1.7,2.35-3.36,2.35C205.98,158.52,204.44,157.69,204.44,154.92z"/>
<g>
	<path class="st2" d="M141.95,109.01c-2.11,0.34-4.31,0.05-6.34-0.92c-3.71-1.77-6.04-5.42-6.09-9.53l-0.27-21.77l-18.09-12.12
		c-3.41-2.29-5.2-6.24-4.66-10.31c0.54-4.07,3.29-7.42,7.18-8.74l20.62-6.99l5.94-20.95c1.12-3.95,4.32-6.87,8.36-7.61
		c4.01-0.8,8.07,0.84,10.53,4.13l13.02,17.46l21.76-0.83c4.1-0.16,7.87,1.99,9.83,5.6s1.7,7.94-0.68,11.29L190.49,65.5L198,85.94
		c1.42,3.86,0.54,8.1-2.29,11.08c-2.83,2.98-7.03,4.07-10.95,2.85l-20.79-6.47l-17.12,13.46C145.39,108,143.7,108.73,141.95,109.01z
		 M120.8,56.25L136.85,67c2.93,1.96,4.7,5.24,4.75,8.77l0.24,19.31l15.18-11.94c2.78-2.18,6.44-2.86,9.81-1.81l18.44,5.74
		l-6.66-18.13c-1.22-3.31-0.73-7,1.31-9.88l11.16-15.77l-19.3,0.73c-3.52,0.13-6.88-1.47-8.99-4.3l-11.55-15.49l-5.27,18.58
		c-0.96,3.39-3.53,6.1-6.87,7.23L120.8,56.25z"/>
</g>
</svg>
