<?xml version="1.0" encoding="utf-8"?>
<!-- Generator: Adobe Illustrator 27.9.0, SVG Export Plug-In . SVG Version: 6.00 Build 0)  -->
<svg version="1.1" id="Layer_1" xmlns="http://www.w3.org/2000/svg" xmlns:xlink="http://www.w3.org/1999/xlink" x="0px" y="0px"
	 viewBox="0 0 356.57 199.77" style="enable-background:new 0 0 356.57 199.77;" xml:space="preserve">
<style type="text/css">
	.st0{fill:#D35656;}
	.st1{fill:#5C90CC;}
	.st2{fill:#FFD25B;}
	.st3{fill:#FFF1EC;}
	.st4{fill:#9BBD72;}
	.st5{fill:none;stroke:#000000;stroke-width:8.7206;stroke-linecap:round;stroke-miterlimit:10;}
	.st6{fill:#F9C2D3;}
	.st7{fill:none;stroke:#000000;stroke-width:3;stroke-linecap:round;stroke-miterlimit:10;}
	.st8{fill:#FFD25B;stroke:#FFD25B;stroke-miterlimit:10;}
	.st9{fill:#EF7834;}
	.st10{fill:#23324D;}
	.st11{fill:none;stroke:#000000;stroke-width:3.5;stroke-linecap:round;stroke-miterlimit:10;}
	.st12{fill:none;}
	.st13{fill:none;stroke:#000000;stroke-width:3.1817;stroke-linecap:round;stroke-miterlimit:10;}
	.st14{fill:none;stroke:#000000;stroke-width:4;stroke-linecap:round;stroke-miterlimit:10;}
	.st15{fill:none;stroke:#000000;stroke-width:9;stroke-miterlimit:10;}
	.st16{fill:none;stroke:#000000;stroke-width:5;stroke-linecap:round;stroke-miterlimit:10;}
	.st17{fill:none;stroke:#000000;stroke-width:5.9898;stroke-miterlimit:10;}
	.st18{fill:none;stroke:#000000;stroke-width:5.9898;stroke-linecap:round;stroke-miterlimit:10;}
	.st19{fill:#F7941D;}
	.st20{fill:none;stroke:#000000;stroke-width:3;stroke-miterlimit:10;}
	.st21{fill:none;stroke:#000000;stroke-width:3.0176;stroke-linecap:round;stroke-miterlimit:10;}
	.st22{fill:none;stroke:#000000;stroke-width:2.2105;stroke-linecap:round;stroke-miterlimit:10;}
	.st23{fill:none;stroke:#000000;stroke-width:3.5;stroke-miterlimit:10;}
	.st24{fill:none;stroke:#000000;stroke-width:4;stroke-miterlimit:10;}
	.st25{fill:none;stroke:#000000;stroke-width:4.3732;stroke-linecap:round;stroke-miterlimit:10;}
	.st26{fill:none;stroke:#000000;stroke-width:0.5467;stroke-linecap:round;stroke-miterlimit:10;}
	.st27{fill:none;stroke:#000000;stroke-width:2.9155;stroke-linecap:round;stroke-miterlimit:10;}
	.st28{fill:none;stroke:#000000;stroke-width:3.6444;stroke-linecap:round;stroke-miterlimit:10;}
	.st29{fill:none;stroke:#000000;stroke-width:0.1822;stroke-linecap:round;stroke-miterlimit:10;}
	.st30{fill:none;stroke:#000000;stroke-linecap:round;stroke-miterlimit:10;}
	.st31{fill:none;stroke:#000000;stroke-width:8.6374;stroke-linecap:round;stroke-miterlimit:10;}
	.st32{fill:none;stroke:#000000;stroke-width:8.6374;stroke-miterlimit:10;}
	.st33{fill:none;stroke:#000000;stroke-width:8.6879;stroke-linecap:round;stroke-miterlimit:10;}
	.st34{fill:none;stroke:#000000;stroke-width:6.3642;stroke-linecap:round;stroke-miterlimit:10;}
</style>
<path class="st3" d="M81.68,93.71c0,4.98-1.28,9.45-3.84,13.42c-2.56,3.97-6.32,7.07-11.26,9.32c-4.94,2.25-10.8,3.37-17.57,3.37
	c-8.12,0-14.82-1.53-20.1-4.6c-3.74-2.21-6.78-5.15-9.12-8.84c-2.34-3.69-3.51-7.27-3.51-10.75c0-2.02,0.7-3.75,2.1-5.19
	c1.4-1.44,3.19-2.16,5.36-2.16c1.76,0,3.25,0.56,4.46,1.69c1.22,1.12,2.25,2.79,3.12,5c1.05,2.62,2.18,4.81,3.4,6.57
	c1.22,1.76,2.93,3.21,5.14,4.35c2.21,1.14,5.11,1.71,8.7,1.71c4.94,0,8.95-1.15,12.04-3.45c3.09-2.3,4.63-5.17,4.63-8.62
	c0-2.73-0.83-4.95-2.5-6.65c-1.67-1.7-3.82-3-6.46-3.9c-2.64-0.9-6.17-1.85-10.58-2.86c-5.91-1.38-10.86-3-14.85-4.86
	c-3.99-1.85-7.15-4.38-9.49-7.58c-2.34-3.2-3.51-7.18-3.51-11.93c0-4.53,1.24-8.55,3.71-12.07c2.47-3.52,6.04-6.22,10.72-8.11
	c4.68-1.89,10.18-2.83,16.5-2.83c5.05,0,9.42,0.63,13.11,1.88c3.69,1.25,6.75,2.92,9.18,5c2.43,2.08,4.21,4.26,5.33,6.54
	c1.12,2.28,1.68,4.51,1.68,6.68c0,1.98-0.7,3.77-2.1,5.36c-1.4,1.59-3.15,2.39-5.25,2.39c-1.91,0-3.36-0.48-4.35-1.43
	c-0.99-0.95-2.07-2.52-3.23-4.69c-1.5-3.1-3.29-5.53-5.39-7.27c-2.1-1.74-5.46-2.61-10.1-2.61c-4.3,0-7.78,0.94-10.41,2.83
	c-2.64,1.89-3.96,4.16-3.96,6.82c0,1.65,0.45,3.07,1.35,4.27c0.9,1.2,2.13,2.23,3.71,3.09c1.57,0.86,3.16,1.54,4.77,2.02
	c1.61,0.49,4.27,1.2,7.97,2.13c4.64,1.09,8.84,2.28,12.6,3.59c3.76,1.31,6.96,2.9,9.6,4.77c2.64,1.87,4.7,4.24,6.18,7.1
	C80.95,86.05,81.68,89.56,81.68,93.71z"/>
<path class="st3" d="M132.86,50.8h-18.19v59.79c0,3.44-0.77,6-2.3,7.66c-1.53,1.67-3.52,2.5-5.95,2.5c-2.47,0-4.48-0.84-6.03-2.53
	c-1.55-1.68-2.33-4.23-2.33-7.63V50.8H79.87c-2.84,0-4.96-0.63-6.34-1.88c-1.38-1.25-2.08-2.91-2.08-4.97
	c0-2.13,0.72-3.82,2.16-5.05c1.44-1.24,3.53-1.85,6.26-1.85h53c2.88,0,5.02,0.64,6.43,1.91s2.11,2.94,2.11,5
	c0,2.06-0.71,3.71-2.13,4.97C137.84,50.17,135.71,50.8,132.86,50.8z"/>
<path class="st3" d="M215.51,82.52h-5.84v26.44c0,3.48-0.77,6.04-2.3,7.69c-1.53,1.65-3.54,2.47-6.01,2.47
	c-2.66,0-4.72-0.86-6.17-2.58c-1.46-1.72-2.19-4.25-2.19-7.58V45.63c0-3.59,0.8-6.19,2.41-7.8c1.61-1.61,4.21-2.41,7.8-2.41h27.11
	c3.74,0,6.94,0.16,9.6,0.48c2.66,0.32,5.05,0.96,7.19,1.94c2.58,1.09,4.86,2.64,6.85,4.66c1.98,2.02,3.49,4.37,4.52,7.05
	c1.03,2.68,1.54,5.51,1.54,8.51c0,6.14-1.73,11.04-5.19,14.71c-3.46,3.67-8.71,6.27-15.75,7.8c2.96,1.57,5.78,3.89,8.48,6.96
	c2.69,3.07,5.1,6.33,7.21,9.8c2.11,3.46,3.76,6.59,4.94,9.38c1.18,2.79,1.77,4.71,1.77,5.75c0,1.09-0.35,2.16-1.04,3.23
	c-0.69,1.07-1.64,1.91-2.83,2.53c-1.2,0.62-2.58,0.93-4.15,0.93c-1.87,0-3.44-0.44-4.71-1.32c-1.27-0.88-2.37-1.99-3.29-3.34
	s-2.16-3.33-3.73-5.95l-6.68-11.12c-2.4-4.08-4.54-7.19-6.43-9.32c-1.89-2.13-3.81-3.59-5.76-4.38
	C220.92,82.91,218.46,82.52,215.51,82.52z M225.05,47.93h-15.38v22.62h14.93c4,0,7.37-0.35,10.1-1.04c2.73-0.69,4.82-1.87,6.26-3.54
	c1.44-1.66,2.16-3.96,2.16-6.88c0-2.28-0.58-4.29-1.74-6.03c-1.16-1.74-2.77-3.04-4.83-3.9C234.61,48.35,230.78,47.93,225.05,47.93z
	"/>
<path class="st3" d="M320.17,95.35c0,4.98-1.28,9.45-3.85,13.42c-2.56,3.97-6.31,7.07-11.26,9.32c-4.94,2.25-10.8,3.37-17.57,3.37
	c-8.12,0-14.82-1.53-20.1-4.6c-3.74-2.21-6.78-5.15-9.12-8.84c-2.34-3.69-3.51-7.27-3.51-10.75c0-2.02,0.7-3.75,2.1-5.19
	c1.4-1.44,3.19-2.16,5.36-2.16c1.76,0,3.25,0.56,4.46,1.69c1.22,1.12,2.25,2.79,3.12,5c1.05,2.62,2.18,4.81,3.4,6.57
	c1.22,1.76,2.93,3.21,5.14,4.35c2.21,1.14,5.11,1.71,8.7,1.71c4.94,0,8.95-1.15,12.04-3.45c3.09-2.3,4.63-5.17,4.63-8.62
	c0-2.73-0.83-4.95-2.5-6.65c-1.67-1.7-3.82-3-6.46-3.9c-2.64-0.9-6.17-1.85-10.58-2.86c-5.91-1.38-10.86-3-14.85-4.86
	c-3.99-1.85-7.15-4.38-9.49-7.58c-2.34-3.2-3.51-7.18-3.51-11.93c0-4.53,1.24-8.55,3.71-12.07c2.47-3.52,6.04-6.22,10.72-8.11
	c4.68-1.89,10.18-2.83,16.5-2.83c5.05,0,9.42,0.63,13.11,1.88c3.69,1.25,6.75,2.92,9.18,5c2.43,2.08,4.21,4.26,5.33,6.54
	c1.12,2.28,1.68,4.51,1.68,6.68c0,1.98-0.7,3.77-2.11,5.36c-1.4,1.59-3.15,2.39-5.25,2.39c-1.91,0-3.36-0.48-4.35-1.43
	c-0.99-0.95-2.07-2.52-3.23-4.69c-1.5-3.1-3.29-5.53-5.39-7.27c-2.1-1.74-5.46-2.61-10.1-2.61c-4.3,0-7.77,0.94-10.41,2.83
	c-2.64,1.89-3.96,4.16-3.96,6.82c0,1.65,0.45,3.07,1.35,4.27c0.9,1.2,2.13,2.23,3.71,3.09c1.57,0.86,3.16,1.54,4.77,2.02
	c1.61,0.49,4.27,1.2,7.97,2.13c4.64,1.09,8.84,2.28,12.6,3.59c3.76,1.31,6.96,2.9,9.6,4.77c2.64,1.87,4.7,4.24,6.17,7.1
	C319.43,87.68,320.17,91.19,320.17,95.35z"/>
<g>
	<path class="st3" d="M23.32,151.2c0-0.93,0.75-1.5,1.54-1.5c0.71,0,0.99,0.42,1.4,0.89c0.53,0.61,1.28,1.19,3.32,1.19
		c1.84,0,3.24-0.53,3.24-1.72c0-0.95-1.38-1.13-3.04-1.26c-2.61-0.24-6.03-0.32-6.03-3.89c0-2.83,2.39-4.33,5.89-4.33
		c3.32,0,5.87,1.17,5.87,3.08c0,0.91-0.73,1.48-1.46,1.48c-0.43,0-0.71-0.1-1.23-0.55c-0.49-0.43-1.26-1.09-3.18-1.09
		c-1.72,0-2.96,0.49-2.96,1.4c0,0.95,0.99,1.25,2.91,1.4c2.71,0.24,6.21,0.24,6.21,3.75c0,3.34-2.92,4.62-6.25,4.62
		C25.51,154.67,23.32,152.96,23.32,151.2z"/>
	<path class="st3" d="M38.66,151.08v-4.27l-0.61,0.04c-0.79,0.06-1.42-0.67-1.42-1.4c0-0.85,0.67-1.42,1.42-1.4l0.69,0.02
		l-0.02-1.25c-0.02-0.75,0.71-1.32,1.38-1.32c0.83,0,1.42,0.65,1.4,1.44l-0.04,1.13l1.88-0.04c0.81-0.02,1.42,0.59,1.42,1.38
		s-0.61,1.48-1.42,1.46l-1.84-0.06v3.52c0,0.89,0.46,1.25,1.05,1.25c0.51,0,0.85-0.12,1.19-0.3c0.24-0.12,0.42-0.18,0.61-0.18
		c0.53,0,0.93,0.53,0.93,1.23c0,1.54-1.7,2.35-3.36,2.35C40.2,154.67,38.66,153.84,38.66,151.08z"/>
	<path class="st3" d="M46.72,150.92v-5.83c0-0.75,0.67-1.36,1.42-1.36c0.77,0,1.42,0.61,1.42,1.36v5.02c0,1.01,0.65,1.64,1.96,1.64
		c1.44,0,2.67-0.79,2.67-1.68v-4.98c0-0.75,0.67-1.36,1.44-1.36s1.4,0.61,1.4,1.36v6.15l0.24,2.11c0.08,0.71-0.55,1.32-1.36,1.32
		c-0.63,0-1.26-0.46-1.32-1.17l-0.14-1.68h-0.16c-0.43,2.02-2.13,2.85-3.83,2.85C48.22,154.67,46.72,153.43,46.72,150.92z"/>
	<path class="st3" d="M59.37,149.22c0-3.91,2.33-5.51,4.7-5.51c1.86,0,3.26,0.99,3.6,3.12h0.22c-0.02-0.95-0.02-1.92-0.02-2.87
		v-2.02c0-0.77,0.65-1.38,1.42-1.38c0.75,0,1.42,0.61,1.42,1.38v9.54l0.22,1.76c0.1,0.77-0.69,1.42-1.38,1.42
		c-0.61,0-1.36-0.42-1.44-1.3l-0.16-1.9h-0.16c-0.51,2.29-2.21,3.2-4.19,3.18C61.28,154.62,59.37,153.13,59.37,149.22z
		 M67.94,149.24c0-1.5-0.89-2.37-3-2.37c-1.74,0-2.79,0.63-2.79,2.39c0,1.84,1.09,2.39,2.83,2.39
		C67.15,151.65,67.94,150.92,67.94,149.24z"/>
	<path class="st3" d="M83.87,151.97c0,1.78-2.73,2.71-5.12,2.71c-3.5,0-5.85-1.92-5.85-5.41c0-3.44,2.39-5.53,5.77-5.53
		c3.62,0,5.55,1.96,5.55,4.43c0,1.36-0.73,1.9-2.15,1.9h-6.28c0.26,1.25,1.72,1.76,3.12,1.76c1.21,0,1.92-0.38,2.53-0.69
		c0.55-0.3,0.77-0.4,1.21-0.4C83.24,150.72,83.87,151.16,83.87,151.97z M75.77,148.19l5.65-0.1c0-0.87-1.03-1.78-2.73-1.78
		C77.33,146.32,75.99,146.93,75.77,148.19z"/>
	<path class="st3" d="M86.38,153.31v-5.91l-0.18-2.33c-0.06-0.73,0.57-1.34,1.34-1.34c0.69,0,1.32,0.51,1.36,1.19l0.08,1.58h0.14
		c0.44-2.02,2.17-2.83,3.85-2.83c2.23,0,3.73,1.23,3.73,3.74v5.91c0,0.75-0.69,1.36-1.44,1.36s-1.42-0.61-1.42-1.36v-5.1
		c0-1.01-0.65-1.64-1.96-1.64c-1.44,0-2.67,0.79-2.67,1.68v5.06c0,0.75-0.67,1.36-1.44,1.36C87.04,154.67,86.38,154.06,86.38,153.31
		z"/>
	<path class="st3" d="M99.92,151.08v-4.27l-0.61,0.04c-0.79,0.06-1.42-0.67-1.42-1.4c0-0.85,0.67-1.42,1.42-1.4l0.69,0.02
		l-0.02-1.25c-0.02-0.75,0.71-1.32,1.38-1.32c0.83,0,1.42,0.65,1.4,1.44l-0.04,1.13l1.88-0.04c0.81-0.02,1.42,0.59,1.42,1.38
		s-0.61,1.48-1.42,1.46l-1.84-0.06v3.52c0,0.89,0.46,1.25,1.05,1.25c0.51,0,0.85-0.12,1.19-0.3c0.24-0.12,0.42-0.18,0.61-0.18
		c0.53,0,0.93,0.53,0.93,1.23c0,1.54-1.7,2.35-3.36,2.35C101.46,154.67,99.92,153.84,99.92,151.08z"/>
	<path class="st3" d="M112.59,151.38c0-1.94,1.46-3.14,4.19-3.14c1.82,0,2.88,0.79,3.4,1.62h0.08v-1.58c0-1.17-1.11-1.68-2.49-1.68
		c-1.23,0-1.76,0.3-2.08,0.65c-0.38,0.42-0.69,0.75-1.36,0.75c-0.87,0-1.36-0.57-1.36-1.34c0-2,2.59-2.91,5.04-2.91
		c3.04,0,5.12,1.07,5.12,4.27v3.7l0.22,1.44c0.12,0.81-0.57,1.52-1.38,1.52c-0.75,0-1.3-0.55-1.4-1.21l-0.18-1.17h-0.14
		c-0.49,1.42-1.74,2.33-3.87,2.33C114.19,154.63,112.59,153.59,112.59,151.38z M120.37,151.26c0-0.59-1.29-0.87-2.53-0.87
		c-1.38,0-2.47,0.22-2.47,0.87c0,0.65,1.09,0.87,2.45,0.87C119.07,152.13,120.37,151.85,120.37,151.26z"/>
	<path class="st3" d="M125.81,153.31v-5.91l-0.18-2.33c-0.06-0.73,0.57-1.34,1.34-1.34c0.69,0,1.32,0.51,1.36,1.19l0.08,1.58h0.14
		c0.44-2.02,2.17-2.83,3.85-2.83c2.23,0,3.73,1.23,3.73,3.74v5.91c0,0.75-0.69,1.36-1.44,1.36s-1.42-0.61-1.42-1.36v-5.1
		c0-1.01-0.65-1.64-1.96-1.64c-1.44,0-2.67,0.79-2.67,1.68v5.06c0,0.75-0.67,1.36-1.44,1.36
		C126.46,154.67,125.81,154.06,125.81,153.31z"/>
	<path class="st3" d="M138.22,149.22c0-3.91,2.33-5.51,4.7-5.51c1.86,0,3.26,0.99,3.6,3.12h0.22c-0.02-0.95-0.02-1.92-0.02-2.87
		v-2.02c0-0.77,0.65-1.38,1.42-1.38c0.75,0,1.42,0.61,1.42,1.38v9.54l0.22,1.76c0.1,0.77-0.69,1.42-1.38,1.42
		c-0.61,0-1.36-0.42-1.44-1.3l-0.16-1.9h-0.16c-0.51,2.29-2.21,3.2-4.19,3.18C140.14,154.62,138.22,153.13,138.22,149.22z
		 M146.8,149.24c0-1.5-0.89-2.37-3-2.37c-1.74,0-2.79,0.63-2.79,2.39c0,1.84,1.09,2.39,2.83,2.39
		C146.01,151.65,146.8,150.92,146.8,149.24z"/>
	<path class="st3" d="M160.44,153.31v-9.45h-2.41c-0.85,0-1.6-0.69-1.6-1.52c0-0.85,0.75-1.54,1.6-1.54h7.73
		c0.85,0,1.58,0.69,1.58,1.54c0,0.83-0.73,1.52-1.58,1.52h-2.43v9.45c0,0.75-0.65,1.36-1.44,1.36
		C161.09,154.67,160.44,154.06,160.44,153.31z"/>
	<path class="st3" d="M177.69,151.97c0,1.78-2.73,2.71-5.12,2.71c-3.5,0-5.85-1.92-5.85-5.41c0-3.44,2.39-5.53,5.77-5.53
		c3.62,0,5.55,1.96,5.55,4.43c0,1.36-0.73,1.9-2.15,1.9h-6.28c0.26,1.25,1.72,1.76,3.12,1.76c1.21,0,1.92-0.38,2.53-0.69
		c0.55-0.3,0.77-0.4,1.21-0.4C177.06,150.72,177.69,151.16,177.69,151.97z M169.59,148.19l5.65-0.1c0-0.87-1.03-1.78-2.73-1.78
		C171.15,146.32,169.8,146.93,169.59,148.19z"/>
	<path class="st3" d="M179.45,151.38c0-1.94,1.46-3.14,4.19-3.14c1.82,0,2.88,0.79,3.4,1.62h0.08v-1.58c0-1.17-1.11-1.68-2.49-1.68
		c-1.23,0-1.76,0.3-2.08,0.65c-0.38,0.42-0.69,0.75-1.36,0.75c-0.87,0-1.36-0.57-1.36-1.34c0-2,2.59-2.91,5.04-2.91
		c3.04,0,5.12,1.07,5.12,4.27v3.7l0.22,1.44c0.12,0.81-0.57,1.52-1.38,1.52c-0.75,0-1.3-0.55-1.4-1.21l-0.18-1.17h-0.14
		c-0.49,1.42-1.74,2.33-3.87,2.33C181.05,154.63,179.45,153.59,179.45,151.38z M187.23,151.26c0-0.59-1.29-0.87-2.53-0.87
		c-1.38,0-2.47,0.22-2.47,0.87c0,0.65,1.09,0.87,2.45,0.87C185.93,152.13,187.23,151.85,187.23,151.26z"/>
	<path class="st3" d="M192.02,149.04c0-3.26,2.21-5.32,5.75-5.32c2.27,0,4.72,1.01,4.72,2.57c0,0.67-0.63,1.34-1.3,1.34
		c-0.49,0-0.77-0.28-1.19-0.51c-0.69-0.42-1.32-0.61-2.15-0.61c-1.54,0-3.04,0.51-3.04,2.65c0,2,1.58,2.65,3.2,2.65
		c0.99,0,1.62-0.32,2.11-0.61c0.51-0.3,0.81-0.44,1.26-0.44c0.77,0,1.25,0.73,1.25,1.34c0,1.29-2.09,2.57-4.74,2.57
		C194.31,154.67,192.02,152.78,192.02,149.04z"/>
	<path class="st3" d="M204.63,153.31v-11.38c0-0.77,0.67-1.36,1.42-1.36c0.77,0,1.42,0.59,1.42,1.36v1.68
		c0,0.77-0.14,2.19-0.24,2.88h0.14c0.44-2.02,2.17-2.83,3.85-2.83c2.23,0,3.73,1.23,3.73,3.74v5.91c0,0.75-0.69,1.36-1.44,1.36
		s-1.42-0.61-1.42-1.36v-5.1c0-1.01-0.65-1.64-1.96-1.64c-1.44,0-2.67,0.79-2.67,1.68v5.06c0,0.75-0.65,1.36-1.42,1.36
		C205.3,154.67,204.63,154.06,204.63,153.31z"/>
	<path class="st3" d="M227.93,151.97c0,1.78-2.73,2.71-5.12,2.71c-3.5,0-5.85-1.92-5.85-5.41c0-3.44,2.39-5.53,5.77-5.53
		c3.62,0,5.55,1.96,5.55,4.43c0,1.36-0.73,1.9-2.15,1.9h-6.28c0.26,1.25,1.72,1.76,3.12,1.76c1.21,0,1.92-0.38,2.53-0.69
		c0.55-0.3,0.77-0.4,1.21-0.4C227.29,150.72,227.93,151.16,227.93,151.97z M219.82,148.19l5.65-0.1c0-0.87-1.03-1.78-2.73-1.78
		C221.39,146.32,220.04,146.93,219.82,148.19z"/>
	<path class="st3" d="M230.44,153.31v-5.91l-0.18-2.33c-0.06-0.73,0.61-1.34,1.34-1.34c0.69,0,1.3,0.51,1.34,1.19l0.12,1.96h0.2
		c0.38-2.43,1.76-3.14,2.85-3.14c0.91,0,1.42,0.75,1.42,1.56c0,0.93-0.63,1.92-1.84,1.92c-1.21,0-2.41,0.43-2.41,1.64v4.47
		c0,0.75-0.65,1.36-1.42,1.36S230.44,154.06,230.44,153.31z"/>
	<path class="st3" d="M256.03,152.7c0.32,0.81-0.1,1.98-1.42,1.98c-0.71,0-1.29-0.43-1.58-1.46l-0.49-1.72h-5.63l-0.57,2
		c-0.18,0.69-0.75,1.19-1.58,1.19c-1.13,0-1.7-0.91-1.25-2.17l3.5-9.43c0.51-1.38,1.34-2.51,2.79-2.51c1.52,0,2.27,1.17,2.71,2.51
		L256.03,152.7z M249.45,143.85l-1.72,4.74h3.95l-1.68-4.74H249.45z"/>
	<path class="st3" d="M257.43,149.04c0-3.26,2.21-5.32,5.75-5.32c2.27,0,4.72,1.01,4.72,2.57c0,0.67-0.63,1.34-1.3,1.34
		c-0.49,0-0.77-0.28-1.19-0.51c-0.69-0.42-1.32-0.61-2.15-0.61c-1.54,0-3.04,0.51-3.04,2.65c0,2,1.58,2.65,3.2,2.65
		c0.99,0,1.62-0.32,2.11-0.61c0.51-0.3,0.81-0.44,1.26-0.44c0.77,0,1.25,0.73,1.25,1.34c0,1.29-2.09,2.57-4.74,2.57
		C259.73,154.67,257.43,152.78,257.43,149.04z"/>
	<path class="st3" d="M269.75,151.38c0-1.94,1.46-3.14,4.19-3.14c1.82,0,2.88,0.79,3.4,1.62h0.08v-1.58c0-1.17-1.11-1.68-2.49-1.68
		c-1.23,0-1.76,0.3-2.08,0.65c-0.38,0.42-0.69,0.75-1.36,0.75c-0.87,0-1.36-0.57-1.36-1.34c0-2,2.59-2.91,5.04-2.91
		c3.04,0,5.12,1.07,5.12,4.27v3.7l0.22,1.44c0.12,0.81-0.57,1.52-1.38,1.52c-0.75,0-1.3-0.55-1.4-1.21l-0.18-1.17h-0.14
		c-0.49,1.42-1.74,2.33-3.87,2.33C271.35,154.63,269.75,153.59,269.75,151.38z M277.53,151.26c0-0.59-1.29-0.87-2.53-0.87
		c-1.38,0-2.47,0.22-2.47,0.87c0,0.65,1.09,0.87,2.45,0.87C276.23,152.13,277.53,151.85,277.53,151.26z"/>
	<path class="st3" d="M282.39,149.22c0-3.91,2.33-5.51,4.7-5.51c1.86,0,3.26,0.99,3.6,3.12h0.22c-0.02-0.95-0.02-1.92-0.02-2.87
		v-2.02c0-0.77,0.65-1.38,1.42-1.38c0.75,0,1.42,0.61,1.42,1.38v9.54l0.22,1.76c0.1,0.77-0.69,1.42-1.38,1.42
		c-0.61,0-1.36-0.42-1.44-1.3l-0.16-1.9h-0.16c-0.51,2.29-2.21,3.2-4.19,3.18C284.31,154.62,282.39,153.13,282.39,149.22z
		 M290.97,149.24c0-1.5-0.89-2.37-3-2.37c-1.74,0-2.79,0.63-2.79,2.39c0,1.84,1.09,2.39,2.83,2.39
		C290.18,151.65,290.97,150.92,290.97,149.24z"/>
	<path class="st3" d="M306.9,151.97c0,1.78-2.73,2.71-5.12,2.71c-3.5,0-5.85-1.92-5.85-5.41c0-3.44,2.39-5.53,5.77-5.53
		c3.62,0,5.55,1.96,5.55,4.43c0,1.36-0.73,1.9-2.15,1.9h-6.28c0.26,1.25,1.72,1.76,3.12,1.76c1.21,0,1.92-0.38,2.53-0.69
		c0.55-0.3,0.77-0.4,1.21-0.4C306.27,150.72,306.9,151.16,306.9,151.97z M298.8,148.19l5.65-0.1c0-0.87-1.03-1.78-2.73-1.78
		C300.36,146.32,299.02,146.93,298.8,148.19z"/>
	<path class="st3" d="M309.43,153.31v-5.81l-0.2-2.43c-0.06-0.73,0.61-1.34,1.34-1.34c0.71,0,1.32,0.53,1.36,1.19l0.1,1.6h0.14
		c0.42-1.94,2-2.83,3.67-2.83c1.96,0,3.06,1.21,3.28,3.18h0.12c0.42-2.25,1.8-3.2,3.62-3.2c2.33,0,3.38,1.34,3.38,3.71v5.93
		c0,0.75-0.67,1.36-1.42,1.36s-1.42-0.61-1.42-1.36v-5.12c0-0.85-0.53-1.58-1.72-1.58c-1.42,0-2.39,0.73-2.39,1.74v4.96
		c0,0.75-0.63,1.36-1.42,1.36c-0.79,0-1.42-0.61-1.42-1.36v-5.12c0-0.85-0.59-1.58-1.8-1.58c-1.4,0-2.37,0.73-2.37,1.76v4.94
		c0,0.75-0.65,1.36-1.42,1.36C310.1,154.67,309.43,154.06,309.43,153.31z"/>
	<path class="st3" d="M329.33,153.31v-6.34h-0.16c-0.89,0-1.56-0.67-1.56-1.52s0.63-1.5,1.48-1.5h2.09c0.53,0,0.99,0.39,0.99,0.91
		v8.46c0,0.75-0.65,1.36-1.42,1.36C330,154.67,329.33,154.06,329.33,153.31z M328.82,141.4c0-0.97,0.59-1.64,1.78-1.64
		c1.17,0,1.8,0.69,1.8,1.64c0,0.93-0.63,1.6-1.8,1.6S328.82,142.32,328.82,141.4z"/>
	<path class="st3" d="M334.39,149.04c0-3.26,2.21-5.32,5.75-5.32c2.27,0,4.72,1.01,4.72,2.57c0,0.67-0.63,1.34-1.3,1.34
		c-0.49,0-0.77-0.28-1.19-0.51c-0.69-0.42-1.32-0.61-2.15-0.61c-1.54,0-3.04,0.51-3.04,2.65c0,2,1.58,2.65,3.2,2.65
		c0.99,0,1.62-0.32,2.11-0.61c0.51-0.3,0.81-0.44,1.26-0.44c0.77,0,1.25,0.73,1.25,1.34c0,1.29-2.09,2.57-4.74,2.57
		C336.68,154.67,334.39,152.78,334.39,149.04z"/>
	<path class="st3" d="M24.93,174.65v-10.87c0-0.99,0.71-1.5,1.42-1.5h4.35c3.46,0,5.43,1.44,5.43,4.03c0,1.4-0.75,3.08-2.71,3.77
		c0.93,0.34,1.34,1.09,1.7,1.92l0.81,1.94c0.53,1.26-0.28,2.21-1.29,2.21c-0.57,0-1.15-0.32-1.44-1.09l-1.01-2.61
		c-0.34-0.85-0.85-1.17-1.94-1.26l-2.47-0.22v3.68c0,0.99-0.71,1.5-1.42,1.5C25.64,176.15,24.93,175.66,24.93,174.65z M27.79,168.45
		h3.16c1.54,0,2.29-0.59,2.29-1.7s-0.89-1.54-2.31-1.54h-3.14V168.45z"/>
	<path class="st3" d="M48.51,173.45c0,1.78-2.73,2.71-5.12,2.71c-3.5,0-5.85-1.92-5.85-5.41c0-3.44,2.39-5.53,5.77-5.53
		c3.62,0,5.55,1.96,5.55,4.43c0,1.36-0.73,1.9-2.15,1.9h-6.28c0.26,1.25,1.72,1.76,3.12,1.76c1.21,0,1.92-0.38,2.53-0.69
		c0.55-0.3,0.77-0.4,1.21-0.4C47.87,172.2,48.51,172.64,48.51,173.45z M40.4,169.67l5.65-0.1c0-0.87-1.03-1.78-2.73-1.78
		C41.97,167.79,40.62,168.41,40.4,169.67z"/>
	<path class="st3" d="M50.19,173.7c0-0.83,0.67-1.5,1.36-1.5c0.65,0,0.83,0.3,1.25,0.63c0.43,0.36,1.22,0.55,2.55,0.55
		c1.6,0,2.59-0.08,2.59-0.93c0-0.71-1.7-0.75-3.06-0.85c-2.49-0.18-4.39-0.57-4.39-3.08c0-2.17,1.94-3.38,5.04-3.38
		c2.79,0,4.86,0.83,4.86,2.29c0,0.85-0.65,1.5-1.36,1.5c-0.4,0-0.65-0.14-0.91-0.39c-0.47-0.49-1.34-0.65-2.63-0.65
		c-1.34,0-2.37,0.26-2.37,0.83c0,0.65,0.91,0.75,2.65,0.87c2.23,0.16,4.8,0.36,4.8,2.83c0,2.55-2.29,3.73-5.22,3.73
		C52.08,176.15,50.19,175.36,50.19,173.7z"/>
	<path class="st3" d="M62.08,170.62c0-3.22,1.94-5.47,5.73-5.47c3.85,0,5.79,2.25,5.79,5.47s-1.94,5.53-5.79,5.53
		C64.02,176.15,62.08,173.84,62.08,170.62z M70.9,170.6c0-1.8-1.13-2.59-3.06-2.59s-3.06,0.79-3.06,2.59c0,1.86,1.13,2.69,3.04,2.69
		C69.77,173.29,70.9,172.46,70.9,170.6z"/>
	<path class="st3" d="M75.6,172.4v-5.83c0-0.75,0.67-1.36,1.42-1.36c0.77,0,1.42,0.61,1.42,1.36v5.02c0,1.01,0.65,1.64,1.96,1.64
		c1.44,0,2.67-0.79,2.67-1.68v-4.98c0-0.75,0.67-1.36,1.44-1.36s1.4,0.61,1.4,1.36v6.15l0.24,2.11c0.08,0.71-0.55,1.32-1.36,1.32
		c-0.63,0-1.26-0.46-1.32-1.17l-0.14-1.68h-0.16c-0.43,2.02-2.13,2.85-3.83,2.85C77.1,176.15,75.6,174.91,75.6,172.4z"/>
	<path class="st3" d="M88.82,174.79v-5.91l-0.18-2.33c-0.06-0.73,0.61-1.34,1.34-1.34c0.69,0,1.3,0.51,1.34,1.19l0.12,1.96h0.2
		c0.38-2.43,1.76-3.14,2.85-3.14c0.91,0,1.42,0.75,1.42,1.56c0,0.93-0.63,1.92-1.84,1.92c-1.21,0-2.41,0.43-2.41,1.64v4.47
		c0,0.75-0.65,1.36-1.42,1.36S88.82,175.54,88.82,174.79z"/>
	<path class="st3" d="M96.61,170.52c0-3.26,2.21-5.32,5.75-5.32c2.27,0,4.72,1.01,4.72,2.57c0,0.67-0.63,1.34-1.3,1.34
		c-0.49,0-0.77-0.28-1.19-0.51c-0.69-0.42-1.32-0.61-2.15-0.61c-1.54,0-3.04,0.51-3.04,2.65c0,2,1.58,2.65,3.2,2.65
		c0.99,0,1.62-0.32,2.11-0.61c0.51-0.3,0.81-0.44,1.26-0.44c0.77,0,1.25,0.73,1.25,1.34c0,1.29-2.09,2.57-4.74,2.57
		C98.9,176.15,96.61,174.26,96.61,170.52z"/>
	<path class="st3" d="M119.53,173.45c0,1.78-2.73,2.71-5.12,2.71c-3.5,0-5.85-1.92-5.85-5.41c0-3.44,2.39-5.53,5.77-5.53
		c3.62,0,5.55,1.96,5.55,4.43c0,1.36-0.73,1.9-2.15,1.9h-6.28c0.26,1.25,1.72,1.76,3.12,1.76c1.21,0,1.92-0.38,2.53-0.69
		c0.55-0.3,0.77-0.4,1.21-0.4C118.9,172.2,119.53,172.64,119.53,173.45z M111.43,169.67l5.65-0.1c0-0.87-1.03-1.78-2.73-1.78
		C112.99,167.79,111.65,168.41,111.43,169.67z"/>
	<path class="st3" d="M126.39,172.68c0-0.93,0.75-1.5,1.54-1.5c0.71,0,0.99,0.42,1.4,0.89c0.53,0.61,1.28,1.19,3.32,1.19
		c1.84,0,3.24-0.53,3.24-1.72c0-0.95-1.38-1.13-3.04-1.26c-2.61-0.24-6.03-0.32-6.03-3.89c0-2.83,2.39-4.33,5.89-4.33
		c3.32,0,5.87,1.17,5.87,3.08c0,0.91-0.73,1.48-1.46,1.48c-0.43,0-0.71-0.1-1.23-0.55c-0.49-0.43-1.26-1.09-3.18-1.09
		c-1.72,0-2.96,0.49-2.96,1.4c0,0.95,0.99,1.25,2.91,1.4c2.71,0.24,6.21,0.24,6.21,3.75c0,3.34-2.92,4.62-6.25,4.62
		C128.59,176.15,126.39,174.43,126.39,172.68z"/>
	<path class="st3" d="M140.9,172.4v-5.83c0-0.75,0.67-1.36,1.42-1.36c0.77,0,1.42,0.61,1.42,1.36v5.02c0,1.01,0.65,1.64,1.96,1.64
		c1.44,0,2.67-0.79,2.67-1.68v-4.98c0-0.75,0.67-1.36,1.44-1.36s1.4,0.61,1.4,1.36v6.15l0.24,2.11c0.08,0.71-0.55,1.32-1.36,1.32
		c-0.63,0-1.26-0.46-1.32-1.17l-0.14-1.68h-0.16c-0.43,2.02-2.13,2.85-3.83,2.85C142.4,176.15,140.9,174.91,140.9,172.4z"/>
	<path class="st3" d="M154.16,178.6v-9.72l-0.18-2.33c-0.06-0.73,0.57-1.34,1.36-1.34c0.71,0,1.29,0.4,1.32,1.19l0.12,2.02h0.16
		c0.51-2.51,2.35-3.24,4.29-3.22c2.47,0.04,4.29,1.52,4.29,5.35c0,3.99-2.33,5.53-4.7,5.53c-1.82,0-3.28-0.97-3.62-3.1h-0.22
		c0.02,0.99,0.02,1.96,0.02,2.94v2.69c0,0.75-0.65,1.36-1.42,1.36C154.83,179.97,154.16,179.35,154.16,178.6z M162.74,170.58
		c0-1.84-1.09-2.39-2.83-2.39c-2.15,0-2.94,0.73-2.94,2.41c0,1.5,0.87,2.37,2.98,2.37C161.67,172.97,162.74,172.34,162.74,170.58z"
		/>
	<path class="st3" d="M167.6,178.6v-9.72l-0.18-2.33c-0.06-0.73,0.57-1.34,1.36-1.34c0.71,0,1.29,0.4,1.32,1.19l0.12,2.02h0.16
		c0.51-2.51,2.35-3.24,4.29-3.22c2.47,0.04,4.29,1.52,4.29,5.35c0,3.99-2.33,5.53-4.7,5.53c-1.82,0-3.28-0.97-3.62-3.1h-0.22
		c0.02,0.99,0.02,1.96,0.02,2.94v2.69c0,0.75-0.65,1.36-1.42,1.36C168.27,179.97,167.6,179.35,167.6,178.6z M176.18,170.58
		c0-1.84-1.09-2.39-2.83-2.39c-2.15,0-2.94,0.73-2.94,2.41c0,1.5,0.87,2.37,2.98,2.37C175.11,172.97,176.18,172.34,176.18,170.58z"
		/>
	<path class="st3" d="M180.54,170.62c0-3.22,1.94-5.47,5.73-5.47c3.85,0,5.79,2.25,5.79,5.47s-1.94,5.53-5.79,5.53
		C182.48,176.15,180.54,173.84,180.54,170.62z M189.36,170.6c0-1.8-1.13-2.59-3.06-2.59s-3.06,0.79-3.06,2.59
		c0,1.86,1.13,2.69,3.04,2.69C188.23,173.29,189.36,172.46,189.36,170.6z"/>
	<path class="st3" d="M194.26,174.79v-5.91l-0.18-2.33c-0.06-0.73,0.61-1.34,1.34-1.34c0.69,0,1.3,0.51,1.34,1.19l0.12,1.96h0.2
		c0.38-2.43,1.76-3.14,2.85-3.14c0.91,0,1.42,0.75,1.42,1.56c0,0.93-0.63,1.92-1.84,1.92c-1.21,0-2.41,0.43-2.41,1.64v4.47
		c0,0.75-0.65,1.36-1.42,1.36S194.26,175.54,194.26,174.79z"/>
	<path class="st3" d="M204.2,172.56v-4.27l-0.61,0.04c-0.79,0.06-1.42-0.67-1.42-1.4c0-0.85,0.67-1.42,1.42-1.4l0.69,0.02
		l-0.02-1.25c-0.02-0.75,0.71-1.32,1.38-1.32c0.83,0,1.42,0.65,1.4,1.44l-0.04,1.13l1.88-0.04c0.81-0.02,1.42,0.59,1.42,1.38
		s-0.61,1.48-1.42,1.46l-1.84-0.06v3.52c0,0.89,0.46,1.25,1.05,1.25c0.51,0,0.85-0.12,1.19-0.3c0.24-0.12,0.42-0.18,0.61-0.18
		c0.53,0,0.93,0.53,0.93,1.23c0,1.54-1.7,2.35-3.36,2.35C205.74,176.15,204.2,175.32,204.2,172.56z"/>
</g>
<g>
	<path class="st2" d="M139.45,124.81c-2.11,0.34-4.31,0.05-6.34-0.92c-3.71-1.77-6.04-5.42-6.09-9.53l-0.27-21.77l-18.09-12.12
		c-3.41-2.29-5.2-6.24-4.66-10.31s3.29-7.42,7.18-8.74l20.62-6.99l5.94-20.95c1.12-3.95,4.32-6.87,8.36-7.61
		c4.01-0.8,8.07,0.84,10.53,4.13l13.02,17.46l21.76-0.83c4.1-0.16,7.87,1.99,9.83,5.6c1.96,3.61,1.7,7.94-0.68,11.29L188,81.3
		l7.51,20.44c1.42,3.86,0.54,8.1-2.29,11.08c-2.83,2.98-7.03,4.07-10.95,2.85l-20.79-6.47l-17.12,13.46
		C142.9,123.8,141.21,124.53,139.45,124.81z M118.31,72.05l16.05,10.75c2.93,1.96,4.7,5.24,4.75,8.77l0.24,19.31l15.18-11.94
		c2.78-2.18,6.44-2.86,9.81-1.81l18.44,5.74l-6.66-18.13c-1.22-3.31-0.73-7,1.31-9.88l11.16-15.77l-19.3,0.73
		c-3.52,0.13-6.88-1.47-8.99-4.3l-11.55-15.49l-5.27,18.58c-0.96,3.39-3.53,6.1-6.87,7.23L118.31,72.05z"/>
</g>
</svg>
