<?xml version="1.0" encoding="utf-8"?>
<!-- Generator: Adobe Illustrator 27.9.0, SVG Export Plug-In . SVG Version: 6.00 Build 0)  -->
<svg version="1.1" id="Layer_1" xmlns="http://www.w3.org/2000/svg" xmlns:xlink="http://www.w3.org/1999/xlink" x="0px" y="0px"
	 viewBox="0 0 1728 925.2" style="enable-background:new 0 0 1728 925.2;" xml:space="preserve">
<style type="text/css">
	.st0{fill:#708EC2;}
	.st1{fill:#B7635E;}
	.st2{fill:#F8D36F;}
	.st3{fill:none;stroke:#F8D36F;stroke-width:10;stroke-linecap:round;stroke-miterlimit:10;}
	.st4{fill:none;stroke:#FDF1EB;stroke-width:10;stroke-miterlimit:10;}
	.st5{fill:#A7BC81;}
	.st6{fill:none;}
	.st7{fill:#FDF1EB;}
	.st8{fill:#FFD15B;stroke:#000000;stroke-miterlimit:10;}
	.st9{opacity:0.5;fill:#FDF1EB;enable-background:new    ;}
	.st10{fill:#FFD15B;stroke:#000000;stroke-width:1.0442;stroke-miterlimit:10;}
	.st11{fill:none;stroke:#FDF1EB;stroke-width:12;stroke-miterlimit:10;}
	.st12{fill:none;stroke:#FDF1EB;stroke-width:6.743;stroke-miterlimit:10;}
	.st13{fill:#FDF1EB;stroke:#FDF1EB;stroke-width:11.1493;stroke-miterlimit:10;}
	.st14{fill:#FDF1EB;stroke:#FDF1EB;stroke-width:10;stroke-miterlimit:10;}
	.st15{fill:#FBF1EC;}
	.st16{fill:#C45E5B;}
	.st17{fill:none;stroke:#221F20;stroke-width:9;stroke-miterlimit:10;}
	.st18{fill:#FFD15B;}
	.st19{fill:none;stroke:#FFD15B;stroke-width:12;stroke-miterlimit:10;}
	.st20{fill:none;stroke:#C45E5B;stroke-width:12;stroke-miterlimit:10;}
	.st21{fill:#A1BB7A;}
	.st22{fill:#688EC6;}
	.st23{fill:none;stroke:#221F20;stroke-width:5.9898;stroke-miterlimit:10;}
	.st24{fill:none;stroke:#221F20;stroke-width:5.9898;stroke-linecap:round;stroke-miterlimit:10;}
	.st25{fill:#221F20;}
	.st26{fill:#E07F45;}
	.st27{fill:#E9973E;}
	.st28{fill:none;stroke:#708EC2;stroke-width:12;stroke-miterlimit:10;}
	.st29{fill:none;stroke:#221F20;stroke-width:7.1818;stroke-linecap:round;stroke-miterlimit:10;}
</style>
<rect x="-9.9" y="-8.6" class="st13" width="1747.8" height="956.4"/>
<circle class="st0" cx="135.2" cy="418.8" r="234.7"/>
<circle class="st18" cx="268.3" cy="653.5" r="155"/>
<circle class="st20" cx="68.2" cy="653.5" r="200.1"/>
<circle class="st20" cx="217.3" cy="801.2" r="43.8"/>
<g>
	<g id="XMLID_00000049915980642658232960000018215269019369669810_">
		<g>
			<path d="M583.1,453c0.1,22.2,0.1,44.5,0,66.7c0,18-7.7,32.3-21.6,43.3c-2.5,2-4,4-4.8,6.9c-4.9,17.6-16.7,28-34.2,32.2
				c-3.2,0.7-6.7,0.7-10,0.7c-26,0.1-52,0-78,0c-26.2,0-52.5-0.4-78.7,0.1c-19.9,0.4-39-14.4-43.4-32.5c-0.8-3.4-2.7-5.7-5.5-7.9
				c-13.6-11-21-25.2-21-43c0-22.2-0.1-44.5,0-66.7c0.1-15.9,7.1-28.2,20.7-36.3c3.5-2,4.4-4.3,4.3-8c-0.1-13.8,0.1-27.7-0.1-41.5
				c-0.2-13.8,2.3-27.1,7.2-39.9c1.4-3.8,2.1-7.6,2.1-11.6c-0.1-20.5-0.1-41.1,0-61.7c0-9.8,4.7-16.4,13.3-19.1
				c1.6-0.5,3.3-0.8,4.9-0.8c5.9-0.1,11.8-0.2,17.6,0c10.2,0.4,17.6,8,17.9,18.2c0.1,3.1-0.1,6.3,0,9.4c0.1,2.5,0.5,2.7,3.1,1.7
				c4.7-1.8,9.3-3.7,14.1-5.3c2.4-0.8,3.3-2.2,3.2-4.6c-0.1-1.3,0.1-2.5,0-3.8c-1-11.6,10.7-24.9,24.2-24.4
				c10.9,0.4,21.8,0,32.7,0.1c12.6,0.1,23.1,10.6,23.6,23.2c0.1,2.7-0.5,6,0.8,7.9c1.4,1.8,4.8,2.1,7.3,3.2c3.3,1.4,6.5,2.8,9.8,4.1
				c2.6,1,3.3,0.6,3.4-2.3c0.1-3.3,0.3-6.7,0-10c-0.7-8.2,8.3-17.2,16.7-17.3c6.5-0.1,13-0.3,19.5,0c8.8,0.4,15.9,7.9,16.6,16.8
				c0.1,1.5,0,2.9,0,4.4c0,20.4,0.1,40.7,0,61c0,3.4,0.4,6.6,1.6,9.8c5.4,13.6,7.9,27.7,7.6,42.3c-0.3,13.6,0.1,27.3-0.1,40.9
				c-0.1,3.3,1,5.2,3.9,7C575.9,424.5,583.1,436.8,583.1,453z M571.6,466.6c0.1-4.8,0.4-9.6,0-14.4c-0.7-8.1-3.3-15.5-9.5-21.1
				c-0.8-0.7-2.1-1-3.1-1.5c-0.3,1.1-0.8,2.3-0.8,3.4c-0.1,5.4,0,10.8,0,16.3c0,0.8,0,1.7,0,2.5c0,3.3,0,6.7,0,10
				c0.1,9.4-1.5,8.9,9.3,8.7C571,470.5,571.5,470,571.6,466.6z M571.7,490.4c0.1-9.5,0.1-8.3-8.6-8.4c-4.7,0-4.9,0.3-5,5.1
				c-0.1,9.4,0,18.9,0,28.3c0,8.8,0,17.6,0,26.4c0,1.7,0,3.3,0.1,5c0,0.5,0.4,1.3,0.8,1.5c0.4,0.2,1.2,0,1.6-0.4
				c0.8-0.7,1.5-1.5,2.1-2.3c5.8-8,8.9-17,9-26.9C571.7,509.3,571.6,499.8,571.7,490.4z M546.7,369.3c0-10.8-1.5-21.3-4.6-31.5
				c-6.2-20.5-17.6-37.3-34.3-50.7c-13-10.5-27.5-17.4-43.8-20.7c-16.8-3.4-33.7-2.9-50.6-1.2c-21.4,2.1-39.9,11-55.7,25
				c-18.7,16.6-30,36.9-33.6,60.4c-0.9,5.4-1.3,11-1.3,16.7c-0.4,63.3-0.1,126.7-0.1,190c0,17.5,12.2,33.8,33.6,33.9
				c52,0.1,104,0.1,156.1-0.1c4.5,0,9.3-0.8,13.5-2.4c13.1-5,21-16.6,21-31.3c0-32.1,0-64.2,0-96.3c0-14.1,0-28.1,0-42.1
				C546.7,402.5,546.7,385.9,546.7,369.3z M536.8,274.7c0-6.9,0-13.8,0-20.7c0-6.3-2.3-8.6-8.7-8.7c-4-0.1-7.9-0.1-11.9,0
				c-5.8,0.2-8.4,2.7-8.5,8.5c-0.1,4.2,0.2,8.4-0.1,12.5c-0.3,4,1.1,6.5,4.3,8.9c5.1,3.9,10,8.2,14.6,12.7c3,2.9,5.4,6.4,8,9.6
				c0.4,0.4,0.9,0.8,1.4,1.1c0.3-0.7,0.8-1.4,0.8-2C536.8,289.3,536.8,282,536.8,274.7z M459.7,253.6c2.8,0.3,3.7-0.5,3.6-3.4
				c-0.3-7.9-5.4-13-13.7-13.4c-5-0.3-10-0.1-15.1-0.1c0,0,0,0,0-0.1c-4.8,0-9.6-0.3-14.4,0.1c-10.4,0.8-13.1,5.4-14.2,13.6
				c-0.4,2.8,0.7,3.5,3.6,3.2C426.3,252.2,443,252,459.7,253.6z M359.3,273.7c1.9-1.4,2.6-3,2.6-5.3c-0.1-5,0.1-10,0-15.1
				c-0.1-5.4-2.2-7.7-7.5-7.9c-4.8-0.2-9.6-0.2-14.4,0c-5,0.2-7.5,2.9-7.6,8c-0.1,7.1,0,14.2,0,21.3c0,0,0.1,0,0.1,0
				c0,7.5,0,15.1,0,22.6c0,0.5,0.5,0.9,0.7,1.5c0.3-0.3,0.7-0.4,0.9-0.8C341.2,288.6,349.7,280.6,359.3,273.7z M311,544.6
				c0.1-9.4,0.1-18.9,0.1-28.3c0-8.8,0-17.6,0-26.4c0.1-8.6,0.2-7.9-7.8-7.9c-5.6,0-5.7,0.1-5.8,5.5c-0.1,9.7,0.1,19.3-0.1,28.9
				c-0.1,5.8,0.7,11.4,2.6,16.6c1.6,4.4,4.3,8.5,6.7,12.7c0.7,1.1,2.1,1.8,3.2,2.7C310.3,547.2,311,545.9,311,544.6z M307.8,470.5
				c2.3-0.3,3.3-1.2,3.2-3.6c-0.1-5.8,0-11.7,0-17.5h0c0-6.1,0-12.1,0-18.2c0-0.6-0.4-1.6-0.6-1.6c-0.7-0.1-1.7,0.1-2.2,0.5
				c-4,3.3-6.7,7.4-8.5,12.2c-2.3,6.2-2.3,12.7-2.2,19.1C297.6,471.2,298.1,471.6,307.8,470.5z"/>
			<path class="st22" d="M571.6,452.2c0.4,4.8,0.1,9.6,0,14.4c-0.1,3.4-0.6,3.9-4.2,3.9c-10.8,0.1-9.2,0.7-9.3-8.7c0-3.3,0-6.7,0-10
				c0-0.8,0-1.7,0-2.5c0-5.4-0.1-10.8,0-16.3c0-1.2,0.5-2.3,0.8-3.4c1,0.5,2.3,0.8,3.1,1.5C568.3,436.7,570.9,444.1,571.6,452.2z"/>
			<path class="st21" d="M563.1,482c8.7,0.1,8.6-1.2,8.6,8.4c-0.1,9.4,0.1,18.9-0.1,28.3c-0.1,9.9-3.1,18.9-9,26.9
				c-0.6,0.8-1.3,1.7-2.1,2.3c-0.4,0.4-1.2,0.6-1.6,0.4c-0.4-0.2-0.7-1-0.8-1.5c-0.1-1.7-0.1-3.3-0.1-5c0-8.8,0-17.6,0-26.4
				c0-9.4-0.1-18.9,0-28.3C558.2,482.3,558.5,482,563.1,482z"/>
			<path class="st21" d="M542.1,337.8c3.1,10.3,4.7,20.8,4.6,31.5c0,16.6,0,33.2,0,49.8h-6.3c0-4.1-0.1-8.3-0.2-12.4
				c-0.1-1.6-1.2-4.1-2.5-4.6c-3.6-1.4-3.6-4-3.6-7.1c0.1-10.3,0.2-20.6-0.1-30.9c-0.2-5.4-0.9-10.8-2-16.2
				c-3.1-14.8-9.5-28-19.2-39.7c-17.1-20.5-38.8-32.2-65.5-34c-10.4-0.7-21-0.3-31.5,0c-5,0.2-10,1.1-14.8,2.3
				c-18.9,4.6-34.7,14.3-47.5,28.8c-11.9,13.5-19.5,28.7-22.3,45.9l-7.2-0.9c3.6-23.5,14.9-43.8,33.6-60.4
				c15.9-14.1,34.4-22.9,55.7-25c16.9-1.7,33.9-2.2,50.6,1.2c16.3,3.3,30.9,10.2,43.8,20.7C524.5,300.5,535.9,317.4,542.1,337.8z"/>
			<path class="st21" d="M546.7,461.2c0,32.1,0,64.2,0,96.3c0,14.7-7.9,26.3-21,31.3c-4.2,1.6-9,2.4-13.5,2.4
				c-52,0.2-104,0.2-156.1,0.1c-21.4-0.1-33.6-16.3-33.6-33.9c0.1-63.3-0.2-126.7,0.1-190c0-5.8,0.5-11.3,1.3-16.7l7.2,0.9
				c-0.6,3.9-1,8-1.1,12.2c-0.2,8.2,0,16.4,0,24.5c0,0-0.1,0-0.1,0c0,6.1,0,12.2,0,18.2c0,4.6-0.1,9.2,0.1,13.8
				c0.2,3.3,2.6,5.2,5.9,5.1c3-0.1,5.1-1.9,5.4-5c0.1-1.5,0.1-2.9,0.1-4.4c0-15.1-0.1-30.2,0-45.3c0.1-4.8,0.3-9.6,1-14.3
				c5.5-33.8,24.8-56.1,57-66.9c16.6-5.5,33.9-4.8,51-2.8c24.5,2.9,43.6,15,57.6,35.2c9.6,13.8,14.1,29.3,14.3,46
				c0.2,14.9,0,29.8,0,44.7c0,2.1-0.1,4.2,0.3,6.3c0.2,1.3,1.1,3.3,2,3.5c3.9,0.9,3.8,3.8,3.9,6.7c0,0.6,0,1.2,0.1,1.9
				c0.5,3.9,2.7,5.9,6.1,5.7c3-0.2,5.2-2.3,5.3-5.9c0.1-3.9,0.1-7.7,0.1-11.5h6.3C546.7,433.2,546.7,447.2,546.7,461.2z M530,537.4
				c0.4-27.7,0.3-55.4,0-83.1c-0.1-12.1-6.2-21.1-16.6-27c-4.8-2.8-10.2-3.9-15.7-3.2c-3.2,0.4-5,2.3-5.1,5.3
				c-0.1,3.1,1.4,5.2,4.5,5.9c1,0.2,2.1,0.1,3.1,0.2c11.1,1.4,17.8,8.6,17.8,19.8c0.1,27.1,0.1,54.1,0,81.2c0,3.3-0.5,6.7-1.6,9.8
				c-3.9,10.8-15.1,18-26.4,17.8c-18.9-0.3-37.7-0.1-56.6-0.1v0c-19.1,0-38.2-0.2-57.2,0.1c-13.1,0.2-28.1-10.1-28.3-28.3
				c-0.1-5,0-10.1,0-15.1c0-21.6-0.1-43.2,0-64.8c0.1-10.5,6.2-17.8,16.5-19.9c1.4-0.3,2.9-0.3,4.3-0.6c3.9-1,5.5-5,3.6-8.4
				c-1.2-2.3-3.3-2.8-5.8-2.8c-14.3-0.6-30.2,12.6-30.1,30c0.1,27.7,0,55.4,0.1,83.1c0.1,14.1,6.5,24.8,18.1,32.6
				c7,4.7,14.9,6.5,23.2,6.5c36.5,0.1,73,0.1,109.5,0c3.5,0,7.1-0.4,10.6-0.9C515.6,572.1,529.8,556.6,530,537.4z M507.6,462.7
				c0.1-2.9-1.7-5.3-4.7-5.8c-1.6-0.3-3.3-0.1-5-0.1c-21.6,0-43.2,0-64.7,0c-21.6,0-43.2,0-64.7,0c-1.7,0-3.4-0.1-5,0.1
				c-2.7,0.4-5,3.1-5,5.7c0.1,2.5,2.3,5.2,5.1,5.5c1.6,0.2,3.3,0.1,5,0.1c35.6,0,71.3,0,106.9,0c1.5,0,2.9,0.1,4.4,0
				c2.7-0.1,3.8,1.2,3.8,3.8c0,4.8-0.1,9.7,0.1,14.5c0.1,3.6,2.1,5.5,5.4,5.7c3.6,0.2,5.8-1.7,6-5.7c0.2-3.5,0.1-7.1,0.1-10.7
				c0-6.8,0-6.8,6.9-7.6c0.2,0,0.4,0,0.6-0.1C505.8,467.6,507.6,465.7,507.6,462.7z M473.6,430.1c0.1-2.8-1.3-5.2-3.8-5.8
				c-1.6-0.4-3.3-0.3-5-0.3c-10.9,0-21.8,0-32.7,0c0,0,0,0,0,0c-11.1,0-22.2,0-33.3,0c-1.5,0-3-0.1-4.4,0.2
				c-2.5,0.6-3.9,2.2-4.1,4.9c-0.3,4.2,2,6.4,7.1,6.4c22.9,0,45.7,0,68.5,0c1.2,0,2.5,0.1,3.7-0.3
				C472.3,434.5,473.5,432.7,473.6,430.1z"/>
			<path d="M540.3,419.1c0,3.9-0.1,7.7-0.1,11.5c-0.1,3.6-2.3,5.8-5.3,5.9c-3.4,0.2-5.6-1.8-6.1-5.7c-0.1-0.6-0.1-1.2-0.1-1.9
				c-0.1-2.9,0-5.8-3.9-6.7c-0.9-0.2-1.8-2.2-2-3.5c-0.4-2-0.3-4.2-0.3-6.3c0-14.9,0.2-29.8,0-44.7c-0.3-16.7-4.7-32.2-14.3-46
				c-14-20.2-33.1-32.3-57.6-35.2c-17.1-2-34.4-2.7-51,2.8c-32.2,10.8-51.5,33.1-57,66.9c-0.8,4.7-1,9.6-1,14.3
				c-0.1,15.1,0,30.2,0,45.3c0,1.5,0.1,2.9-0.1,4.4c-0.4,3.1-2.4,4.9-5.4,5c-3.3,0.1-5.8-1.8-5.9-5.1c-0.2-4.6-0.1-9.2-0.1-13.8
				c0-6.1,0-12.2,0-18.2c0,0,0,0,0.1,0c0-8.2-0.2-16.4,0-24.5c0.1-4.2,0.5-8.2,1.1-12.2c2.8-17.2,10.3-32.4,22.3-45.9
				c12.9-14.5,28.7-24.2,47.5-28.8c4.9-1.2,9.8-2.1,14.8-2.3c10.5-0.4,21-0.7,31.5,0c26.6,1.7,48.3,13.5,65.5,34
				c9.7,11.6,16.1,24.9,19.2,39.7c1.1,5.3,1.8,10.8,2,16.2c0.3,10.3,0.1,20.6,0.1,30.9c0,3.1,0,5.6,3.6,7.1c1.3,0.5,2.5,3,2.5,4.6
				C540.3,410.8,540.3,415,540.3,419.1z"/>
			<path class="st21" d="M536.8,254c0.1,6.9,0,13.8,0,20.7c0,7.3,0,14.6-0.1,21.9c0,0.7-0.5,1.4-0.8,2c-0.5-0.4-1-0.7-1.4-1.1
				c-2.7-3.2-5.1-6.7-8-9.6c-4.7-4.5-9.5-8.8-14.6-12.7c-3.2-2.4-4.6-4.9-4.3-8.9c0.4-4.1,0-8.4,0.1-12.5c0.1-5.8,2.7-8.3,8.5-8.5
				c4-0.1,7.9-0.1,11.9,0C534.4,245.4,536.8,247.7,536.8,254z"/>
			<path d="M530.1,454.3c0.2,27.7,0.3,55.4,0,83.1c-0.2,19.2-14.5,34.7-32.4,37.8c-3.5,0.6-7.1,0.9-10.6,0.9
				c-36.5,0.1-73,0.1-109.5,0c-8.3,0-16.2-1.8-23.2-6.5c-11.6-7.8-18-18.5-18.1-32.6c-0.1-27.7,0.1-55.4-0.1-83.1
				c-0.1-17.4,15.8-30.5,30.1-30c2.5,0.1,4.6,0.5,5.8,2.8c1.9,3.5,0.2,7.4-3.6,8.4c-1.4,0.4-2.9,0.3-4.3,0.6
				c-10.3,2.2-16.4,9.4-16.5,19.9c-0.1,21.6,0,43.2,0,64.8c0,5-0.1,10.1,0,15.1c0.2,18.2,15.3,28.6,28.3,28.3
				c19.1-0.3,38.2-0.1,57.2-0.1v0c18.9,0,37.8-0.2,56.6,0.1c11.3,0.2,22.5-7,26.4-17.8c1.1-3.1,1.6-6.5,1.6-9.8
				c0.1-27.1,0.1-54.1,0-81.2c0-11.2-6.6-18.4-17.8-19.8c-1-0.1-2.1,0-3.1-0.2c-3.1-0.7-4.6-2.8-4.5-5.9c0.1-3,1.9-4.9,5.1-5.3
				c5.6-0.7,10.9,0.5,15.7,3.2C523.9,433.3,530,442.2,530.1,454.3z"/>
			<path d="M503,456.9c3,0.5,4.7,2.8,4.7,5.8c-0.1,3-1.9,4.9-5,5.5c-0.2,0-0.4,0-0.6,0.1c-6.9,0.8-6.9,0.8-6.9,7.6
				c0,3.6,0.1,7.1-0.1,10.7c-0.2,4-2.4,5.8-6,5.7c-3.3-0.1-5.2-2.1-5.4-5.7c-0.1-4.8-0.1-9.6-0.1-14.5c0-2.6-1.1-3.9-3.8-3.8
				c-1.5,0.1-2.9,0-4.4,0c-35.6,0-71.3,0-106.9,0c-1.7,0-3.4,0.1-5-0.1c-2.8-0.4-5.1-3-5.1-5.5c0-2.5,2.3-5.3,5-5.7
				c1.7-0.2,3.3-0.1,5-0.1c21.6,0,43.2,0,64.7,0c21.6,0,43.2,0,64.7,0C499.6,456.8,501.3,456.6,503,456.9z"/>
			<path d="M469.8,424.3c2.5,0.6,3.9,3,3.8,5.8c-0.1,2.6-1.4,4.4-3.9,5.1c-1.2,0.3-2.5,0.3-3.7,0.3c-22.8,0-45.7,0.1-68.5,0
				c-5.2,0-7.5-2.2-7.1-6.4c0.2-2.6,1.6-4.3,4.1-4.9c1.4-0.3,2.9-0.2,4.4-0.2c11.1,0,22.2,0,33.3,0c0,0,0,0,0,0
				c10.9,0,21.8,0,32.7,0C466.5,424,468.2,423.9,469.8,424.3z"/>
			<path class="st21" d="M463.3,250.2c0.1,2.9-0.8,3.7-3.6,3.4c-16.7-1.5-33.4-1.4-50.1-0.1c-3,0.2-4-0.5-3.6-3.2
				c1.1-8.2,3.8-12.8,14.2-13.6c4.8-0.3,9.6-0.1,14.4-0.1c0,0,0,0.1,0,0.1c5,0,10.1-0.2,15.1,0.1C458,237.2,463,242.3,463.3,250.2z"
				/>
			<path class="st21" d="M361.8,268.4c0.1,2.3-0.7,3.9-2.6,5.3c-9.5,6.9-18,14.9-25.1,24.3c-0.2,0.3-0.6,0.5-0.9,0.8
				c-0.3-0.5-0.7-1-0.7-1.5c-0.1-7.5,0-15.1,0-22.6c0,0-0.1,0-0.1,0c0-7.1-0.1-14.2,0-21.3c0.1-5.1,2.5-7.8,7.6-8
				c4.8-0.2,9.6-0.2,14.4,0c5.3,0.2,7.4,2.6,7.5,7.9C361.9,258.4,361.7,263.4,361.8,268.4z"/>
			<path class="st21" d="M311,516.3c0,9.4,0,18.9-0.1,28.3c0,1.3-0.7,2.6-1,3.9c-1.1-0.9-2.5-1.5-3.2-2.7c-2.4-4.2-5.1-8.2-6.7-12.7
				c-2-5.3-2.8-10.9-2.6-16.6c0.2-9.6,0-19.3,0.1-28.9c0-5.4,0.2-5.5,5.8-5.5c8,0,7.8-0.7,7.8,7.9C311,498.7,311,507.5,311,516.3z"
				/>
			<path class="st22" d="M311,466.9c0,2.4-0.9,3.3-3.2,3.6c-9.7,1.1-10.2,0.7-10.3-9.1c-0.1-6.5-0.1-12.9,2.2-19.1
				c1.8-4.8,4.5-8.9,8.5-12.2c0.5-0.4,1.5-0.6,2.2-0.5c0.3,0,0.6,1.1,0.6,1.6c0.1,6,0,12.1,0,18.2h0
				C311,455.2,310.9,461.1,311,466.9z"/>
		</g>
	</g>
</g>
</svg>
